ISO-10303-21;
HEADER;
/* Generated by software containing ST-Developer
 * from STEP Tools, Inc. (www.steptools.com) 
 */

FILE_DESCRIPTION(
/* description */ (''),
/* implementation_level */ '2;1');

FILE_NAME(
/* name */ 'bottom.step',
/* time_stamp */ '2026-08-06T11:20:21+02:00',
/* author */ (''),
/* organization */ (''),
/* preprocessor_version */ 'ST-DEVELOPER v20.1',
/* originating_system */ 'Autodesk Translation Framework v15.8.0.0',
/* authorisation */ '');

FILE_SCHEMA (('AUTOMOTIVE_DESIGN { 1 0 10303 214 3 1 1 }'));
ENDSEC;

DATA;
#10=MECHANICAL_DESIGN_GEOMETRIC_PRESENTATION_REPRESENTATION('',(#13),#1006);
#11=SHAPE_REPRESENTATION_RELATIONSHIP('SRR','None',#1063,#12);
#12=ADVANCED_BREP_SHAPE_REPRESENTATION('',(#14),#991);
#13=STYLED_ITEM('',(#1142),#14);
#14=MANIFOLD_SOLID_BREP('K\X\F6rper2',#419);
#15=B_SPLINE_CURVE_WITH_KNOTS('',3,(#886,#887,#888,#889,#890,#891,#892,
#893,#894,#895,#896,#897,#898,#899,#900,#901,#902,#903,#904,#905,#906),
 .UNSPECIFIED.,.F.,.F.,(4,2,2,3,2,2,2,2,2,4),(-0.145003349021224,-0.109051330658489,
-0.0545256653292446,0.,0.0544653364000706,0.108930672800141,0.163426096676348,
0.217921520552554,0.272519779634717,0.291526607904116),.UNSPECIFIED.);
#16=CONICAL_SURFACE('',#593,0.725,1.02974425867665);
#17=FACE_BOUND('',#77,.T.);
#18=FACE_BOUND('',#78,.T.);
#19=FACE_BOUND('',#79,.T.);
#20=FACE_BOUND('',#80,.T.);
#21=FACE_BOUND('',#86,.T.);
#22=FACE_BOUND('',#87,.T.);
#23=FACE_BOUND('',#88,.T.);
#24=FACE_BOUND('',#89,.T.);
#25=CIRCLE('',#589,1.45);
#26=CIRCLE('',#590,1.45);
#27=CIRCLE('',#591,1.45);
#28=CIRCLE('',#592,1.45);
#29=CIRCLE('',#594,1.45);
#30=CIRCLE('',#596,1.45);
#31=CIRCLE('',#598,1.45);
#32=CIRCLE('',#599,1.45);
#33=CIRCLE('',#602,1.45);
#34=CIRCLE('',#603,1.45);
#35=CIRCLE('',#604,1.45);
#36=PLANE('',#586);
#37=PLANE('',#587);
#38=PLANE('',#588);
#39=PLANE('',#600);
#40=PLANE('',#601);
#41=PLANE('',#605);
#42=PLANE('',#606);
#43=PLANE('',#607);
#44=PLANE('',#608);
#45=PLANE('',#609);
#46=PLANE('',#613);
#47=PLANE('',#614);
#48=FACE_OUTER_BOUND('',#70,.T.);
#49=FACE_OUTER_BOUND('',#71,.T.);
#50=FACE_OUTER_BOUND('',#72,.T.);
#51=FACE_OUTER_BOUND('',#73,.T.);
#52=FACE_OUTER_BOUND('',#74,.T.);
#53=FACE_OUTER_BOUND('',#75,.T.);
#54=FACE_OUTER_BOUND('',#76,.T.);
#55=FACE_OUTER_BOUND('',#81,.T.);
#56=FACE_OUTER_BOUND('',#82,.T.);
#57=FACE_OUTER_BOUND('',#83,.T.);
#58=FACE_OUTER_BOUND('',#84,.T.);
#59=FACE_OUTER_BOUND('',#85,.T.);
#60=FACE_OUTER_BOUND('',#90,.T.);
#61=FACE_OUTER_BOUND('',#91,.T.);
#62=FACE_OUTER_BOUND('',#92,.T.);
#63=FACE_OUTER_BOUND('',#93,.T.);
#64=FACE_OUTER_BOUND('',#94,.T.);
#65=FACE_OUTER_BOUND('',#95,.T.);
#66=FACE_OUTER_BOUND('',#96,.T.);
#67=FACE_OUTER_BOUND('',#97,.T.);
#68=FACE_OUTER_BOUND('',#98,.T.);
#69=FACE_OUTER_BOUND('',#99,.T.);
#70=EDGE_LOOP('',(#276,#277,#278,#279));
#71=EDGE_LOOP('',(#280,#281,#282,#283));
#72=EDGE_LOOP('',(#284,#285,#286,#287));
#73=EDGE_LOOP('',(#288,#289,#290,#291));
#74=EDGE_LOOP('',(#292,#293,#294,#295));
#75=EDGE_LOOP('',(#296,#297,#298,#299));
#76=EDGE_LOOP('',(#300,#301,#302,#303));
#77=EDGE_LOOP('',(#304));
#78=EDGE_LOOP('',(#305));
#79=EDGE_LOOP('',(#306));
#80=EDGE_LOOP('',(#307));
#81=EDGE_LOOP('',(#308,#309));
#82=EDGE_LOOP('',(#310,#311,#312,#313));
#83=EDGE_LOOP('',(#314,#315,#316,#317,#318,#319,#320,#321));
#84=EDGE_LOOP('',(#322,#323,#324,#325));
#85=EDGE_LOOP('',(#326,#327,#328,#329,#330,#331,#332,#333,#334,#335));
#86=EDGE_LOOP('',(#336,#337,#338));
#87=EDGE_LOOP('',(#339));
#88=EDGE_LOOP('',(#340));
#89=EDGE_LOOP('',(#341));
#90=EDGE_LOOP('',(#342,#343,#344,#345));
#91=EDGE_LOOP('',(#346,#347,#348,#349));
#92=EDGE_LOOP('',(#350,#351,#352,#353));
#93=EDGE_LOOP('',(#354,#355,#356,#357));
#94=EDGE_LOOP('',(#358,#359,#360,#361,#362,#363));
#95=EDGE_LOOP('',(#364,#365,#366,#367));
#96=EDGE_LOOP('',(#368,#369,#370,#371));
#97=EDGE_LOOP('',(#372,#373,#374,#375));
#98=EDGE_LOOP('',(#376,#377,#378,#379,#380,#381,#382,#383));
#99=EDGE_LOOP('',(#384,#385,#386,#387));
#100=ELLIPSE('',#579,1.4142135623731,1.);
#101=ELLIPSE('',#580,1.4142135623731,1.);
#102=ELLIPSE('',#582,1.41421356237309,1.);
#103=ELLIPSE('',#584,1.4142135623731,1.);
#104=LINE('',#843,#144);
#105=LINE('',#847,#145);
#106=LINE('',#851,#146);
#107=LINE('',#853,#147);
#108=LINE('',#857,#148);
#109=LINE('',#859,#149);
#110=LINE('',#862,#150);
#111=LINE('',#863,#151);
#112=LINE('',#866,#152);
#113=LINE('',#868,#153);
#114=LINE('',#869,#154);
#115=LINE('',#872,#155);
#116=LINE('',#873,#156);
#117=LINE('',#910,#157);
#118=LINE('',#913,#158);
#119=LINE('',#917,#159);
#120=LINE('',#922,#160);
#121=LINE('',#924,#161);
#122=LINE('',#926,#162);
#123=LINE('',#927,#163);
#124=LINE('',#929,#164);
#125=LINE('',#931,#165);
#126=LINE('',#933,#166);
#127=LINE('',#935,#167);
#128=LINE('',#937,#168);
#129=LINE('',#939,#169);
#130=LINE('',#940,#170);
#131=LINE('',#949,#171);
#132=LINE('',#951,#172);
#133=LINE('',#952,#173);
#134=LINE('',#955,#174);
#135=LINE('',#956,#175);
#136=LINE('',#959,#176);
#137=LINE('',#960,#177);
#138=LINE('',#962,#178);
#139=LINE('',#964,#179);
#140=LINE('',#966,#180);
#141=LINE('',#968,#181);
#142=LINE('',#970,#182);
#143=LINE('',#972,#183);
#144=VECTOR('',#690,10.);
#145=VECTOR('',#693,10.);
#146=VECTOR('',#698,10.);
#147=VECTOR('',#699,10.);
#148=VECTOR('',#704,10.);
#149=VECTOR('',#705,10.);
#150=VECTOR('',#710,10.);
#151=VECTOR('',#711,10.);
#152=VECTOR('',#714,10.);
#153=VECTOR('',#715,10.);
#154=VECTOR('',#716,10.);
#155=VECTOR('',#719,10.);
#156=VECTOR('',#720,10.);
#157=VECTOR('',#737,10.);
#158=VECTOR('',#740,10.);
#159=VECTOR('',#745,1.45);
#160=VECTOR('',#750,10.);
#161=VECTOR('',#751,10.);
#162=VECTOR('',#752,10.);
#163=VECTOR('',#753,10.);
#164=VECTOR('',#756,10.);
#165=VECTOR('',#757,10.);
#166=VECTOR('',#758,10.);
#167=VECTOR('',#759,10.);
#168=VECTOR('',#760,10.);
#169=VECTOR('',#761,10.);
#170=VECTOR('',#762,10.);
#171=VECTOR('',#771,10.);
#172=VECTOR('',#772,10.);
#173=VECTOR('',#773,10.);
#174=VECTOR('',#776,10.);
#175=VECTOR('',#777,10.);
#176=VECTOR('',#780,10.);
#177=VECTOR('',#781,10.);
#178=VECTOR('',#784,10.);
#179=VECTOR('',#787,10.);
#180=VECTOR('',#790,1.45);
#181=VECTOR('',#793,1.45);
#182=VECTOR('',#796,1.45);
#183=VECTOR('',#799,10.);
#184=VERTEX_POINT('',#841);
#185=VERTEX_POINT('',#842);
#186=VERTEX_POINT('',#844);
#187=VERTEX_POINT('',#846);
#188=VERTEX_POINT('',#850);
#189=VERTEX_POINT('',#852);
#190=VERTEX_POINT('',#856);
#191=VERTEX_POINT('',#858);
#192=VERTEX_POINT('',#865);
#193=VERTEX_POINT('',#867);
#194=VERTEX_POINT('',#871);
#195=VERTEX_POINT('',#875);
#196=VERTEX_POINT('',#877);
#197=VERTEX_POINT('',#879);
#198=VERTEX_POINT('',#881);
#199=VERTEX_POINT('',#884);
#200=VERTEX_POINT('',#885);
#201=VERTEX_POINT('',#909);
#202=VERTEX_POINT('',#911);
#203=VERTEX_POINT('',#915);
#204=VERTEX_POINT('',#920);
#205=VERTEX_POINT('',#921);
#206=VERTEX_POINT('',#923);
#207=VERTEX_POINT('',#925);
#208=VERTEX_POINT('',#930);
#209=VERTEX_POINT('',#932);
#210=VERTEX_POINT('',#934);
#211=VERTEX_POINT('',#936);
#212=VERTEX_POINT('',#938);
#213=VERTEX_POINT('',#941);
#214=VERTEX_POINT('',#943);
#215=VERTEX_POINT('',#945);
#216=VERTEX_POINT('',#948);
#217=VERTEX_POINT('',#950);
#218=VERTEX_POINT('',#954);
#219=VERTEX_POINT('',#958);
#220=EDGE_CURVE('',#184,#185,#104,.T.);
#221=EDGE_CURVE('',#185,#186,#100,.T.);
#222=EDGE_CURVE('',#186,#187,#105,.T.);
#223=EDGE_CURVE('',#187,#184,#101,.T.);
#224=EDGE_CURVE('',#188,#186,#106,.T.);
#225=EDGE_CURVE('',#185,#189,#107,.T.);
#226=EDGE_CURVE('',#189,#188,#102,.T.);
#227=EDGE_CURVE('',#190,#188,#108,.T.);
#228=EDGE_CURVE('',#189,#191,#109,.T.);
#229=EDGE_CURVE('',#191,#190,#103,.T.);
#230=EDGE_CURVE('',#187,#190,#110,.T.);
#231=EDGE_CURVE('',#191,#184,#111,.T.);
#232=EDGE_CURVE('',#187,#192,#112,.T.);
#233=EDGE_CURVE('',#193,#192,#113,.T.);
#234=EDGE_CURVE('',#190,#193,#114,.T.);
#235=EDGE_CURVE('',#186,#194,#115,.T.);
#236=EDGE_CURVE('',#192,#194,#116,.T.);
#237=EDGE_CURVE('',#195,#195,#25,.T.);
#238=EDGE_CURVE('',#196,#196,#26,.T.);
#239=EDGE_CURVE('',#197,#197,#27,.T.);
#240=EDGE_CURVE('',#198,#198,#28,.T.);
#241=EDGE_CURVE('',#199,#200,#15,.T.);
#242=EDGE_CURVE('',#200,#199,#29,.T.);
#243=EDGE_CURVE('',#201,#199,#117,.T.);
#244=EDGE_CURVE('',#202,#201,#30,.T.);
#245=EDGE_CURVE('',#200,#202,#118,.T.);
#246=EDGE_CURVE('',#203,#202,#31,.T.);
#247=EDGE_CURVE('',#203,#196,#119,.T.);
#248=EDGE_CURVE('',#201,#203,#32,.T.);
#249=EDGE_CURVE('',#204,#205,#120,.T.);
#250=EDGE_CURVE('',#206,#205,#121,.T.);
#251=EDGE_CURVE('',#207,#206,#122,.T.);
#252=EDGE_CURVE('',#207,#204,#123,.T.);
#253=EDGE_CURVE('',#206,#193,#124,.T.);
#254=EDGE_CURVE('',#194,#208,#125,.T.);
#255=EDGE_CURVE('',#208,#209,#126,.T.);
#256=EDGE_CURVE('',#209,#210,#127,.T.);
#257=EDGE_CURVE('',#210,#211,#128,.T.);
#258=EDGE_CURVE('',#211,#212,#129,.T.);
#259=EDGE_CURVE('',#212,#207,#130,.T.);
#260=EDGE_CURVE('',#213,#213,#33,.T.);
#261=EDGE_CURVE('',#214,#214,#34,.T.);
#262=EDGE_CURVE('',#215,#215,#35,.T.);
#263=EDGE_CURVE('',#216,#209,#131,.T.);
#264=EDGE_CURVE('',#216,#217,#132,.T.);
#265=EDGE_CURVE('',#210,#217,#133,.T.);
#266=EDGE_CURVE('',#212,#218,#134,.T.);
#267=EDGE_CURVE('',#218,#204,#135,.T.);
#268=EDGE_CURVE('',#211,#219,#136,.T.);
#269=EDGE_CURVE('',#219,#218,#137,.T.);
#270=EDGE_CURVE('',#217,#219,#138,.T.);
#271=EDGE_CURVE('',#205,#216,#139,.T.);
#272=EDGE_CURVE('',#213,#195,#140,.T.);
#273=EDGE_CURVE('',#214,#197,#141,.T.);
#274=EDGE_CURVE('',#215,#198,#142,.T.);
#275=EDGE_CURVE('',#188,#208,#143,.T.);
#276=ORIENTED_EDGE('',*,*,#220,.T.);
#277=ORIENTED_EDGE('',*,*,#221,.T.);
#278=ORIENTED_EDGE('',*,*,#222,.T.);
#279=ORIENTED_EDGE('',*,*,#223,.T.);
#280=ORIENTED_EDGE('',*,*,#224,.T.);
#281=ORIENTED_EDGE('',*,*,#221,.F.);
#282=ORIENTED_EDGE('',*,*,#225,.T.);
#283=ORIENTED_EDGE('',*,*,#226,.T.);
#284=ORIENTED_EDGE('',*,*,#227,.T.);
#285=ORIENTED_EDGE('',*,*,#226,.F.);
#286=ORIENTED_EDGE('',*,*,#228,.T.);
#287=ORIENTED_EDGE('',*,*,#229,.T.);
#288=ORIENTED_EDGE('',*,*,#230,.T.);
#289=ORIENTED_EDGE('',*,*,#229,.F.);
#290=ORIENTED_EDGE('',*,*,#231,.T.);
#291=ORIENTED_EDGE('',*,*,#223,.F.);
#292=ORIENTED_EDGE('',*,*,#230,.F.);
#293=ORIENTED_EDGE('',*,*,#232,.T.);
#294=ORIENTED_EDGE('',*,*,#233,.F.);
#295=ORIENTED_EDGE('',*,*,#234,.F.);
#296=ORIENTED_EDGE('',*,*,#222,.F.);
#297=ORIENTED_EDGE('',*,*,#235,.T.);
#298=ORIENTED_EDGE('',*,*,#236,.F.);
#299=ORIENTED_EDGE('',*,*,#232,.F.);
#300=ORIENTED_EDGE('',*,*,#220,.F.);
#301=ORIENTED_EDGE('',*,*,#231,.F.);
#302=ORIENTED_EDGE('',*,*,#228,.F.);
#303=ORIENTED_EDGE('',*,*,#225,.F.);
#304=ORIENTED_EDGE('',*,*,#237,.F.);
#305=ORIENTED_EDGE('',*,*,#238,.F.);
#306=ORIENTED_EDGE('',*,*,#239,.F.);
#307=ORIENTED_EDGE('',*,*,#240,.F.);
#308=ORIENTED_EDGE('',*,*,#241,.F.);
#309=ORIENTED_EDGE('',*,*,#242,.F.);
#310=ORIENTED_EDGE('',*,*,#243,.F.);
#311=ORIENTED_EDGE('',*,*,#244,.F.);
#312=ORIENTED_EDGE('',*,*,#245,.F.);
#313=ORIENTED_EDGE('',*,*,#242,.T.);
#314=ORIENTED_EDGE('',*,*,#243,.T.);
#315=ORIENTED_EDGE('',*,*,#241,.T.);
#316=ORIENTED_EDGE('',*,*,#245,.T.);
#317=ORIENTED_EDGE('',*,*,#246,.F.);
#318=ORIENTED_EDGE('',*,*,#247,.T.);
#319=ORIENTED_EDGE('',*,*,#238,.T.);
#320=ORIENTED_EDGE('',*,*,#247,.F.);
#321=ORIENTED_EDGE('',*,*,#248,.F.);
#322=ORIENTED_EDGE('',*,*,#249,.T.);
#323=ORIENTED_EDGE('',*,*,#250,.F.);
#324=ORIENTED_EDGE('',*,*,#251,.F.);
#325=ORIENTED_EDGE('',*,*,#252,.T.);
#326=ORIENTED_EDGE('',*,*,#251,.T.);
#327=ORIENTED_EDGE('',*,*,#253,.T.);
#328=ORIENTED_EDGE('',*,*,#233,.T.);
#329=ORIENTED_EDGE('',*,*,#236,.T.);
#330=ORIENTED_EDGE('',*,*,#254,.T.);
#331=ORIENTED_EDGE('',*,*,#255,.T.);
#332=ORIENTED_EDGE('',*,*,#256,.T.);
#333=ORIENTED_EDGE('',*,*,#257,.T.);
#334=ORIENTED_EDGE('',*,*,#258,.T.);
#335=ORIENTED_EDGE('',*,*,#259,.T.);
#336=ORIENTED_EDGE('',*,*,#244,.T.);
#337=ORIENTED_EDGE('',*,*,#248,.T.);
#338=ORIENTED_EDGE('',*,*,#246,.T.);
#339=ORIENTED_EDGE('',*,*,#260,.T.);
#340=ORIENTED_EDGE('',*,*,#261,.T.);
#341=ORIENTED_EDGE('',*,*,#262,.T.);
#342=ORIENTED_EDGE('',*,*,#256,.F.);
#343=ORIENTED_EDGE('',*,*,#263,.F.);
#344=ORIENTED_EDGE('',*,*,#264,.T.);
#345=ORIENTED_EDGE('',*,*,#265,.F.);
#346=ORIENTED_EDGE('',*,*,#252,.F.);
#347=ORIENTED_EDGE('',*,*,#259,.F.);
#348=ORIENTED_EDGE('',*,*,#266,.T.);
#349=ORIENTED_EDGE('',*,*,#267,.T.);
#350=ORIENTED_EDGE('',*,*,#258,.F.);
#351=ORIENTED_EDGE('',*,*,#268,.T.);
#352=ORIENTED_EDGE('',*,*,#269,.T.);
#353=ORIENTED_EDGE('',*,*,#266,.F.);
#354=ORIENTED_EDGE('',*,*,#257,.F.);
#355=ORIENTED_EDGE('',*,*,#265,.T.);
#356=ORIENTED_EDGE('',*,*,#270,.T.);
#357=ORIENTED_EDGE('',*,*,#268,.F.);
#358=ORIENTED_EDGE('',*,*,#267,.F.);
#359=ORIENTED_EDGE('',*,*,#269,.F.);
#360=ORIENTED_EDGE('',*,*,#270,.F.);
#361=ORIENTED_EDGE('',*,*,#264,.F.);
#362=ORIENTED_EDGE('',*,*,#271,.F.);
#363=ORIENTED_EDGE('',*,*,#249,.F.);
#364=ORIENTED_EDGE('',*,*,#260,.F.);
#365=ORIENTED_EDGE('',*,*,#272,.T.);
#366=ORIENTED_EDGE('',*,*,#237,.T.);
#367=ORIENTED_EDGE('',*,*,#272,.F.);
#368=ORIENTED_EDGE('',*,*,#261,.F.);
#369=ORIENTED_EDGE('',*,*,#273,.T.);
#370=ORIENTED_EDGE('',*,*,#239,.T.);
#371=ORIENTED_EDGE('',*,*,#273,.F.);
#372=ORIENTED_EDGE('',*,*,#262,.F.);
#373=ORIENTED_EDGE('',*,*,#274,.T.);
#374=ORIENTED_EDGE('',*,*,#240,.T.);
#375=ORIENTED_EDGE('',*,*,#274,.F.);
#376=ORIENTED_EDGE('',*,*,#227,.F.);
#377=ORIENTED_EDGE('',*,*,#234,.T.);
#378=ORIENTED_EDGE('',*,*,#253,.F.);
#379=ORIENTED_EDGE('',*,*,#250,.T.);
#380=ORIENTED_EDGE('',*,*,#271,.T.);
#381=ORIENTED_EDGE('',*,*,#263,.T.);
#382=ORIENTED_EDGE('',*,*,#255,.F.);
#383=ORIENTED_EDGE('',*,*,#275,.F.);
#384=ORIENTED_EDGE('',*,*,#224,.F.);
#385=ORIENTED_EDGE('',*,*,#275,.T.);
#386=ORIENTED_EDGE('',*,*,#254,.F.);
#387=ORIENTED_EDGE('',*,*,#235,.F.);
#388=CYLINDRICAL_SURFACE('',#578,1.);
#389=CYLINDRICAL_SURFACE('',#581,1.);
#390=CYLINDRICAL_SURFACE('',#583,1.);
#391=CYLINDRICAL_SURFACE('',#585,1.);
#392=CYLINDRICAL_SURFACE('',#595,1.45);
#393=CYLINDRICAL_SURFACE('',#597,1.45);
#394=CYLINDRICAL_SURFACE('',#610,1.45);
#395=CYLINDRICAL_SURFACE('',#611,1.45);
#396=CYLINDRICAL_SURFACE('',#612,1.45);
#397=ADVANCED_FACE('',(#48),#388,.T.);
#398=ADVANCED_FACE('',(#49),#389,.T.);
#399=ADVANCED_FACE('',(#50),#390,.T.);
#400=ADVANCED_FACE('',(#51),#391,.T.);
#401=ADVANCED_FACE('',(#52),#36,.T.);
#402=ADVANCED_FACE('',(#53),#37,.T.);
#403=ADVANCED_FACE('',(#54,#17,#18,#19,#20),#38,.F.);
#404=ADVANCED_FACE('',(#55),#16,.F.);
#405=ADVANCED_FACE('',(#56),#392,.F.);
#406=ADVANCED_FACE('',(#57),#393,.F.);
#407=ADVANCED_FACE('',(#58),#39,.F.);
#408=ADVANCED_FACE('',(#59,#21,#22,#23,#24),#40,.T.);
#409=ADVANCED_FACE('',(#60),#41,.F.);
#410=ADVANCED_FACE('',(#61),#42,.F.);
#411=ADVANCED_FACE('',(#62),#43,.F.);
#412=ADVANCED_FACE('',(#63),#44,.F.);
#413=ADVANCED_FACE('',(#64),#45,.F.);
#414=ADVANCED_FACE('',(#65),#394,.F.);
#415=ADVANCED_FACE('',(#66),#395,.F.);
#416=ADVANCED_FACE('',(#67),#396,.F.);
#417=ADVANCED_FACE('',(#68),#46,.T.);
#418=ADVANCED_FACE('',(#69),#47,.T.);
#419=CLOSED_SHELL('',(#397,#398,#399,#400,#401,#402,#403,#404,#405,#406,
#407,#408,#409,#410,#411,#412,#413,#414,#415,#416,#417,#418));
#420=ITEM_DEFINED_TRANSFORMATION($,$,#545,#546);
#421=ITEM_DEFINED_TRANSFORMATION($,$,#556,#557);
#422=ITEM_DEFINED_TRANSFORMATION($,$,#556,#558);
#423=ITEM_DEFINED_TRANSFORMATION($,$,#556,#559);
#424=ITEM_DEFINED_TRANSFORMATION($,$,#556,#560);
#425=ITEM_DEFINED_TRANSFORMATION($,$,#556,#561);
#426=ITEM_DEFINED_TRANSFORMATION($,$,#556,#562);
#427=ITEM_DEFINED_TRANSFORMATION($,$,#556,#563);
#428=ITEM_DEFINED_TRANSFORMATION($,$,#556,#564);
#429=ITEM_DEFINED_TRANSFORMATION($,$,#556,#565);
#430=ITEM_DEFINED_TRANSFORMATION($,$,#544,#567);
#431=ITEM_DEFINED_TRANSFORMATION($,$,#547,#568);
#432=ITEM_DEFINED_TRANSFORMATION($,$,#548,#569);
#433=ITEM_DEFINED_TRANSFORMATION($,$,#549,#570);
#434=ITEM_DEFINED_TRANSFORMATION($,$,#550,#571);
#435=ITEM_DEFINED_TRANSFORMATION($,$,#551,#572);
#436=ITEM_DEFINED_TRANSFORMATION($,$,#552,#573);
#437=ITEM_DEFINED_TRANSFORMATION($,$,#553,#574);
#438=ITEM_DEFINED_TRANSFORMATION($,$,#554,#575);
#439=ITEM_DEFINED_TRANSFORMATION($,$,#555,#576);
#440=ITEM_DEFINED_TRANSFORMATION($,$,#566,#577);
#441=ITEM_DEFINED_TRANSFORMATION($,$,#543,#615);
#442=(
REPRESENTATION_RELATIONSHIP($,$,#1066,#1065)
REPRESENTATION_RELATIONSHIP_WITH_TRANSFORMATION(#420)
SHAPE_REPRESENTATION_RELATIONSHIP()
);
#443=(
REPRESENTATION_RELATIONSHIP($,$,#1076,#1067)
REPRESENTATION_RELATIONSHIP_WITH_TRANSFORMATION(#421)
SHAPE_REPRESENTATION_RELATIONSHIP()
);
#444=(
REPRESENTATION_RELATIONSHIP($,$,#1076,#1068)
REPRESENTATION_RELATIONSHIP_WITH_TRANSFORMATION(#422)
SHAPE_REPRESENTATION_RELATIONSHIP()
);
#445=(
REPRESENTATION_RELATIONSHIP($,$,#1076,#1069)
REPRESENTATION_RELATIONSHIP_WITH_TRANSFORMATION(#423)
SHAPE_REPRESENTATION_RELATIONSHIP()
);
#446=(
REPRESENTATION_RELATIONSHIP($,$,#1076,#1070)
REPRESENTATION_RELATIONSHIP_WITH_TRANSFORMATION(#424)
SHAPE_REPRESENTATION_RELATIONSHIP()
);
#447=(
REPRESENTATION_RELATIONSHIP($,$,#1076,#1071)
REPRESENTATION_RELATIONSHIP_WITH_TRANSFORMATION(#425)
SHAPE_REPRESENTATION_RELATIONSHIP()
);
#448=(
REPRESENTATION_RELATIONSHIP($,$,#1076,#1072)
REPRESENTATION_RELATIONSHIP_WITH_TRANSFORMATION(#426)
SHAPE_REPRESENTATION_RELATIONSHIP()
);
#449=(
REPRESENTATION_RELATIONSHIP($,$,#1076,#1073)
REPRESENTATION_RELATIONSHIP_WITH_TRANSFORMATION(#427)
SHAPE_REPRESENTATION_RELATIONSHIP()
);
#450=(
REPRESENTATION_RELATIONSHIP($,$,#1076,#1074)
REPRESENTATION_RELATIONSHIP_WITH_TRANSFORMATION(#428)
SHAPE_REPRESENTATION_RELATIONSHIP()
);
#451=(
REPRESENTATION_RELATIONSHIP($,$,#1076,#1075)
REPRESENTATION_RELATIONSHIP_WITH_TRANSFORMATION(#429)
SHAPE_REPRESENTATION_RELATIONSHIP()
);
#452=(
REPRESENTATION_RELATIONSHIP($,$,#1065,#1064)
REPRESENTATION_RELATIONSHIP_WITH_TRANSFORMATION(#430)
SHAPE_REPRESENTATION_RELATIONSHIP()
);
#453=(
REPRESENTATION_RELATIONSHIP($,$,#1067,#1064)
REPRESENTATION_RELATIONSHIP_WITH_TRANSFORMATION(#431)
SHAPE_REPRESENTATION_RELATIONSHIP()
);
#454=(
REPRESENTATION_RELATIONSHIP($,$,#1068,#1064)
REPRESENTATION_RELATIONSHIP_WITH_TRANSFORMATION(#432)
SHAPE_REPRESENTATION_RELATIONSHIP()
);
#455=(
REPRESENTATION_RELATIONSHIP($,$,#1069,#1064)
REPRESENTATION_RELATIONSHIP_WITH_TRANSFORMATION(#433)
SHAPE_REPRESENTATION_RELATIONSHIP()
);
#456=(
REPRESENTATION_RELATIONSHIP($,$,#1070,#1064)
REPRESENTATION_RELATIONSHIP_WITH_TRANSFORMATION(#434)
SHAPE_REPRESENTATION_RELATIONSHIP()
);
#457=(
REPRESENTATION_RELATIONSHIP($,$,#1071,#1064)
REPRESENTATION_RELATIONSHIP_WITH_TRANSFORMATION(#435)
SHAPE_REPRESENTATION_RELATIONSHIP()
);
#458=(
REPRESENTATION_RELATIONSHIP($,$,#1072,#1064)
REPRESENTATION_RELATIONSHIP_WITH_TRANSFORMATION(#436)
SHAPE_REPRESENTATION_RELATIONSHIP()
);
#459=(
REPRESENTATION_RELATIONSHIP($,$,#1073,#1064)
REPRESENTATION_RELATIONSHIP_WITH_TRANSFORMATION(#437)
SHAPE_REPRESENTATION_RELATIONSHIP()
);
#460=(
REPRESENTATION_RELATIONSHIP($,$,#1074,#1064)
REPRESENTATION_RELATIONSHIP_WITH_TRANSFORMATION(#438)
SHAPE_REPRESENTATION_RELATIONSHIP()
);
#461=(
REPRESENTATION_RELATIONSHIP($,$,#1075,#1064)
REPRESENTATION_RELATIONSHIP_WITH_TRANSFORMATION(#439)
SHAPE_REPRESENTATION_RELATIONSHIP()
);
#462=(
REPRESENTATION_RELATIONSHIP($,$,#1077,#1064)
REPRESENTATION_RELATIONSHIP_WITH_TRANSFORMATION(#440)
SHAPE_REPRESENTATION_RELATIONSHIP()
);
#463=(
REPRESENTATION_RELATIONSHIP($,$,#1064,#1063)
REPRESENTATION_RELATIONSHIP_WITH_TRANSFORMATION(#441)
SHAPE_REPRESENTATION_RELATIONSHIP()
);
#464=CONTEXT_DEPENDENT_SHAPE_REPRESENTATION(#442,#1030);
#465=CONTEXT_DEPENDENT_SHAPE_REPRESENTATION(#443,#1041);
#466=CONTEXT_DEPENDENT_SHAPE_REPRESENTATION(#444,#1042);
#467=CONTEXT_DEPENDENT_SHAPE_REPRESENTATION(#445,#1043);
#468=CONTEXT_DEPENDENT_SHAPE_REPRESENTATION(#446,#1044);
#469=CONTEXT_DEPENDENT_SHAPE_REPRESENTATION(#447,#1045);
#470=CONTEXT_DEPENDENT_SHAPE_REPRESENTATION(#448,#1046);
#471=CONTEXT_DEPENDENT_SHAPE_REPRESENTATION(#449,#1047);
#472=CONTEXT_DEPENDENT_SHAPE_REPRESENTATION(#450,#1048);
#473=CONTEXT_DEPENDENT_SHAPE_REPRESENTATION(#451,#1049);
#474=CONTEXT_DEPENDENT_SHAPE_REPRESENTATION(#452,#1051);
#475=CONTEXT_DEPENDENT_SHAPE_REPRESENTATION(#453,#1052);
#476=CONTEXT_DEPENDENT_SHAPE_REPRESENTATION(#454,#1053);
#477=CONTEXT_DEPENDENT_SHAPE_REPRESENTATION(#455,#1054);
#478=CONTEXT_DEPENDENT_SHAPE_REPRESENTATION(#456,#1055);
#479=CONTEXT_DEPENDENT_SHAPE_REPRESENTATION(#457,#1056);
#480=CONTEXT_DEPENDENT_SHAPE_REPRESENTATION(#458,#1057);
#481=CONTEXT_DEPENDENT_SHAPE_REPRESENTATION(#459,#1058);
#482=CONTEXT_DEPENDENT_SHAPE_REPRESENTATION(#460,#1059);
#483=CONTEXT_DEPENDENT_SHAPE_REPRESENTATION(#461,#1060);
#484=CONTEXT_DEPENDENT_SHAPE_REPRESENTATION(#462,#1061);
#485=CONTEXT_DEPENDENT_SHAPE_REPRESENTATION(#463,#1062);
#486=NEXT_ASSEMBLY_USAGE_OCCURRENCE('PinHeader_1x04_P254mm_Vertical:1',
'PinHeader_1x04_P254mm_Vertical:1','PinHeader_1x04_P254mm_Vertical:1',#1081,
#1082,'PinHeader_1x04_P254mm_Vertical:1');
#487=NEXT_ASSEMBLY_USAGE_OCCURRENCE(
'D_DO-35_SOD27_P7.62mm_Horizontal:1',
'D_DO-35_SOD27_P7.62mm_Horizontal:1',
'D_DO-35_SOD27_P7.62mm_Horizontal:1',#1083,#1092,
'D_DO-35_SOD27_P7.62mm_Horizontal:1');
#488=NEXT_ASSEMBLY_USAGE_OCCURRENCE(
'D_DO-35_SOD27_P7.62mm_Horizontal:1',
'D_DO-35_SOD27_P7.62mm_Horizontal:1',
'D_DO-35_SOD27_P7.62mm_Horizontal:1',#1084,#1092,
'D_DO-35_SOD27_P7.62mm_Horizontal:1');
#489=NEXT_ASSEMBLY_USAGE_OCCURRENCE(
'D_DO-35_SOD27_P7.62mm_Horizontal:1',
'D_DO-35_SOD27_P7.62mm_Horizontal:1',
'D_DO-35_SOD27_P7.62mm_Horizontal:1',#1085,#1092,
'D_DO-35_SOD27_P7.62mm_Horizontal:1');
#490=NEXT_ASSEMBLY_USAGE_OCCURRENCE(
'D_DO-35_SOD27_P7.62mm_Horizontal:1',
'D_DO-35_SOD27_P7.62mm_Horizontal:1',
'D_DO-35_SOD27_P7.62mm_Horizontal:1',#1086,#1092,
'D_DO-35_SOD27_P7.62mm_Horizontal:1');
#491=NEXT_ASSEMBLY_USAGE_OCCURRENCE(
'D_DO-35_SOD27_P7.62mm_Horizontal:1',
'D_DO-35_SOD27_P7.62mm_Horizontal:1',
'D_DO-35_SOD27_P7.62mm_Horizontal:1',#1087,#1092,
'D_DO-35_SOD27_P7.62mm_Horizontal:1');
#492=NEXT_ASSEMBLY_USAGE_OCCURRENCE(
'D_DO-35_SOD27_P7.62mm_Horizontal:1',
'D_DO-35_SOD27_P7.62mm_Horizontal:1',
'D_DO-35_SOD27_P7.62mm_Horizontal:1',#1088,#1092,
'D_DO-35_SOD27_P7.62mm_Horizontal:1');
#493=NEXT_ASSEMBLY_USAGE_OCCURRENCE(
'D_DO-35_SOD27_P7.62mm_Horizontal:1',
'D_DO-35_SOD27_P7.62mm_Horizontal:1',
'D_DO-35_SOD27_P7.62mm_Horizontal:1',#1089,#1092,
'D_DO-35_SOD27_P7.62mm_Horizontal:1');
#494=NEXT_ASSEMBLY_USAGE_OCCURRENCE(
'D_DO-35_SOD27_P7.62mm_Horizontal:1',
'D_DO-35_SOD27_P7.62mm_Horizontal:1',
'D_DO-35_SOD27_P7.62mm_Horizontal:1',#1090,#1092,
'D_DO-35_SOD27_P7.62mm_Horizontal:1');
#495=NEXT_ASSEMBLY_USAGE_OCCURRENCE(
'D_DO-35_SOD27_P7.62mm_Horizontal:1',
'D_DO-35_SOD27_P7.62mm_Horizontal:1',
'D_DO-35_SOD27_P7.62mm_Horizontal:1',#1091,#1092,
'D_DO-35_SOD27_P7.62mm_Horizontal:1');
#496=NEXT_ASSEMBLY_USAGE_OCCURRENCE('PinHeader_1x04_P2.54mm_Vertical:1',
'PinHeader_1x04_P2.54mm_Vertical:1','PinHeader_1x04_P2.54mm_Vertical:1',
#1080,#1081,'PinHeader_1x04_P2.54mm_Vertical:1');
#497=NEXT_ASSEMBLY_USAGE_OCCURRENCE(
'D_DO-35_SOD27_P7.62mm_Horizontal (1):1',
'D_DO-35_SOD27_P7.62mm_Horizontal (1):1',
'D_DO-35_SOD27_P7.62mm_Horizontal (1):1',#1080,#1083,
'D_DO-35_SOD27_P7.62mm_Horizontal (1):1');
#498=NEXT_ASSEMBLY_USAGE_OCCURRENCE(
'D_DO-35_SOD27_P7.62mm_Horizontal (1):2',
'D_DO-35_SOD27_P7.62mm_Horizontal (1):2',
'D_DO-35_SOD27_P7.62mm_Horizontal (1):2',#1080,#1084,
'D_DO-35_SOD27_P7.62mm_Horizontal (1):2');
#499=NEXT_ASSEMBLY_USAGE_OCCURRENCE(
'D_DO-35_SOD27_P7.62mm_Horizontal (1):3',
'D_DO-35_SOD27_P7.62mm_Horizontal (1):3',
'D_DO-35_SOD27_P7.62mm_Horizontal (1):3',#1080,#1085,
'D_DO-35_SOD27_P7.62mm_Horizontal (1):3');
#500=NEXT_ASSEMBLY_USAGE_OCCURRENCE(
'D_DO-35_SOD27_P7.62mm_Horizontal (1):4',
'D_DO-35_SOD27_P7.62mm_Horizontal (1):4',
'D_DO-35_SOD27_P7.62mm_Horizontal (1):4',#1080,#1086,
'D_DO-35_SOD27_P7.62mm_Horizontal (1):4');
#501=NEXT_ASSEMBLY_USAGE_OCCURRENCE(
'D_DO-35_SOD27_P7.62mm_Horizontal (1):5',
'D_DO-35_SOD27_P7.62mm_Horizontal (1):5',
'D_DO-35_SOD27_P7.62mm_Horizontal (1):5',#1080,#1087,
'D_DO-35_SOD27_P7.62mm_Horizontal (1):5');
#502=NEXT_ASSEMBLY_USAGE_OCCURRENCE(
'D_DO-35_SOD27_P7.62mm_Horizontal (1):6',
'D_DO-35_SOD27_P7.62mm_Horizontal (1):6',
'D_DO-35_SOD27_P7.62mm_Horizontal (1):6',#1080,#1088,
'D_DO-35_SOD27_P7.62mm_Horizontal (1):6');
#503=NEXT_ASSEMBLY_USAGE_OCCURRENCE(
'D_DO-35_SOD27_P7.62mm_Horizontal (1):7',
'D_DO-35_SOD27_P7.62mm_Horizontal (1):7',
'D_DO-35_SOD27_P7.62mm_Horizontal (1):7',#1080,#1089,
'D_DO-35_SOD27_P7.62mm_Horizontal (1):7');
#504=NEXT_ASSEMBLY_USAGE_OCCURRENCE(
'D_DO-35_SOD27_P7.62mm_Horizontal (1):8',
'D_DO-35_SOD27_P7.62mm_Horizontal (1):8',
'D_DO-35_SOD27_P7.62mm_Horizontal (1):8',#1080,#1090,
'D_DO-35_SOD27_P7.62mm_Horizontal (1):8');
#505=NEXT_ASSEMBLY_USAGE_OCCURRENCE(
'D_DO-35_SOD27_P7.62mm_Horizontal (1):9',
'D_DO-35_SOD27_P7.62mm_Horizontal (1):9',
'D_DO-35_SOD27_P7.62mm_Horizontal (1):9',#1080,#1091,
'D_DO-35_SOD27_P7.62mm_Horizontal (1):9');
#506=NEXT_ASSEMBLY_USAGE_OCCURRENCE('SchB4E_PCB:1','SchB4E_PCB:1',
'SchB4E_PCB:1',#1080,#1093,'SchB4E_PCB:1');
#507=NEXT_ASSEMBLY_USAGE_OCCURRENCE('PCB:1','PCB:1','PCB:1',#1079,#1080,
'PCB:1');
#508=DERIVED_UNIT_ELEMENT(#514,1.);
#509=DERIVED_UNIT_ELEMENT(#1008,-3.);
#510=DERIVED_UNIT_ELEMENT(#514,1.);
#511=DERIVED_UNIT_ELEMENT(#1008,-3.);
#512=DERIVED_UNIT_ELEMENT(#514,1.);
#513=DERIVED_UNIT_ELEMENT(#1008,-3.);
#514=(
MASS_UNIT()
NAMED_UNIT(*)
SI_UNIT(.KILO.,.GRAM.)
);
#515=DERIVED_UNIT((#508,#509));
#516=DERIVED_UNIT((#510,#511));
#517=DERIVED_UNIT((#512,#513));
#518=MEASURE_REPRESENTATION_ITEM('density measure',
POSITIVE_RATIO_MEASURE(7850.),#515);
#519=MEASURE_REPRESENTATION_ITEM('density measure',
POSITIVE_RATIO_MEASURE(7850.),#516);
#520=MEASURE_REPRESENTATION_ITEM('density measure',
POSITIVE_RATIO_MEASURE(7850.),#517);
#521=PROPERTY_DEFINITION_REPRESENTATION(#536,#527);
#522=PROPERTY_DEFINITION_REPRESENTATION(#537,#528);
#523=PROPERTY_DEFINITION_REPRESENTATION(#538,#529);
#524=PROPERTY_DEFINITION_REPRESENTATION(#539,#530);
#525=PROPERTY_DEFINITION_REPRESENTATION(#540,#531);
#526=PROPERTY_DEFINITION_REPRESENTATION(#541,#532);
#527=REPRESENTATION('material name',(#533),#994);
#528=REPRESENTATION('density',(#518),#994);
#529=REPRESENTATION('material name',(#534),#1004);
#530=REPRESENTATION('density',(#519),#1004);
#531=REPRESENTATION('material name',(#535),#1005);
#532=REPRESENTATION('density',(#520),#1005);
#533=DESCRIPTIVE_REPRESENTATION_ITEM('Stahl','Stahl');
#534=DESCRIPTIVE_REPRESENTATION_ITEM('Stahl','Stahl');
#535=DESCRIPTIVE_REPRESENTATION_ITEM('Stahl','Stahl');
#536=PROPERTY_DEFINITION('material property','material name',#1082);
#537=PROPERTY_DEFINITION('material property','density of part',#1082);
#538=PROPERTY_DEFINITION('material property','material name',#1092);
#539=PROPERTY_DEFINITION('material property','density of part',#1092);
#540=PROPERTY_DEFINITION('material property','material name',#1093);
#541=PROPERTY_DEFINITION('material property','density of part',#1093);
#542=AXIS2_PLACEMENT_3D('',#804,#616,#617);
#543=AXIS2_PLACEMENT_3D('',#805,#618,#619);
#544=AXIS2_PLACEMENT_3D('',#806,#620,#621);
#545=AXIS2_PLACEMENT_3D('',#807,#622,#623);
#546=AXIS2_PLACEMENT_3D('',#808,#624,#625);
#547=AXIS2_PLACEMENT_3D('',#809,#626,#627);
#548=AXIS2_PLACEMENT_3D('',#810,#628,#629);
#549=AXIS2_PLACEMENT_3D('',#811,#630,#631);
#550=AXIS2_PLACEMENT_3D('',#812,#632,#633);
#551=AXIS2_PLACEMENT_3D('',#813,#634,#635);
#552=AXIS2_PLACEMENT_3D('',#814,#636,#637);
#553=AXIS2_PLACEMENT_3D('',#815,#638,#639);
#554=AXIS2_PLACEMENT_3D('',#816,#640,#641);
#555=AXIS2_PLACEMENT_3D('',#817,#642,#643);
#556=AXIS2_PLACEMENT_3D('',#818,#644,#645);
#557=AXIS2_PLACEMENT_3D('',#819,#646,#647);
#558=AXIS2_PLACEMENT_3D('',#820,#648,#649);
#559=AXIS2_PLACEMENT_3D('',#821,#650,#651);
#560=AXIS2_PLACEMENT_3D('',#822,#652,#653);
#561=AXIS2_PLACEMENT_3D('',#823,#654,#655);
#562=AXIS2_PLACEMENT_3D('',#824,#656,#657);
#563=AXIS2_PLACEMENT_3D('',#825,#658,#659);
#564=AXIS2_PLACEMENT_3D('',#826,#660,#661);
#565=AXIS2_PLACEMENT_3D('',#827,#662,#663);
#566=AXIS2_PLACEMENT_3D('',#828,#664,#665);
#567=AXIS2_PLACEMENT_3D('',#829,#666,#667);
#568=AXIS2_PLACEMENT_3D('',#830,#668,#669);
#569=AXIS2_PLACEMENT_3D('',#831,#670,#671);
#570=AXIS2_PLACEMENT_3D('',#832,#672,#673);
#571=AXIS2_PLACEMENT_3D('',#833,#674,#675);
#572=AXIS2_PLACEMENT_3D('',#834,#676,#677);
#573=AXIS2_PLACEMENT_3D('',#835,#678,#679);
#574=AXIS2_PLACEMENT_3D('',#836,#680,#681);
#575=AXIS2_PLACEMENT_3D('',#837,#682,#683);
#576=AXIS2_PLACEMENT_3D('',#838,#684,#685);
#577=AXIS2_PLACEMENT_3D('',#839,#686,#687);
#578=AXIS2_PLACEMENT_3D('',#840,#688,#689);
#579=AXIS2_PLACEMENT_3D('',#845,#691,#692);
#580=AXIS2_PLACEMENT_3D('',#848,#694,#695);
#581=AXIS2_PLACEMENT_3D('',#849,#696,#697);
#582=AXIS2_PLACEMENT_3D('',#854,#700,#701);
#583=AXIS2_PLACEMENT_3D('',#855,#702,#703);
#584=AXIS2_PLACEMENT_3D('',#860,#706,#707);
#585=AXIS2_PLACEMENT_3D('',#861,#708,#709);
#586=AXIS2_PLACEMENT_3D('',#864,#712,#713);
#587=AXIS2_PLACEMENT_3D('',#870,#717,#718);
#588=AXIS2_PLACEMENT_3D('',#874,#721,#722);
#589=AXIS2_PLACEMENT_3D('',#876,#723,#724);
#590=AXIS2_PLACEMENT_3D('',#878,#725,#726);
#591=AXIS2_PLACEMENT_3D('',#880,#727,#728);
#592=AXIS2_PLACEMENT_3D('',#882,#729,#730);
#593=AXIS2_PLACEMENT_3D('',#883,#731,#732);
#594=AXIS2_PLACEMENT_3D('',#907,#733,#734);
#595=AXIS2_PLACEMENT_3D('',#908,#735,#736);
#596=AXIS2_PLACEMENT_3D('',#912,#738,#739);
#597=AXIS2_PLACEMENT_3D('',#914,#741,#742);
#598=AXIS2_PLACEMENT_3D('',#916,#743,#744);
#599=AXIS2_PLACEMENT_3D('',#918,#746,#747);
#600=AXIS2_PLACEMENT_3D('',#919,#748,#749);
#601=AXIS2_PLACEMENT_3D('',#928,#754,#755);
#602=AXIS2_PLACEMENT_3D('',#942,#763,#764);
#603=AXIS2_PLACEMENT_3D('',#944,#765,#766);
#604=AXIS2_PLACEMENT_3D('',#946,#767,#768);
#605=AXIS2_PLACEMENT_3D('',#947,#769,#770);
#606=AXIS2_PLACEMENT_3D('',#953,#774,#775);
#607=AXIS2_PLACEMENT_3D('',#957,#778,#779);
#608=AXIS2_PLACEMENT_3D('',#961,#782,#783);
#609=AXIS2_PLACEMENT_3D('',#963,#785,#786);
#610=AXIS2_PLACEMENT_3D('',#965,#788,#789);
#611=AXIS2_PLACEMENT_3D('',#967,#791,#792);
#612=AXIS2_PLACEMENT_3D('',#969,#794,#795);
#613=AXIS2_PLACEMENT_3D('',#971,#797,#798);
#614=AXIS2_PLACEMENT_3D('',#973,#800,#801);
#615=AXIS2_PLACEMENT_3D('',#974,#802,#803);
#616=DIRECTION('axis',(0.,0.,1.));
#617=DIRECTION('refdir',(1.,0.,0.));
#618=DIRECTION('axis',(0.,0.,1.));
#619=DIRECTION('refdir',(1.,0.,0.));
#620=DIRECTION('axis',(0.,0.,1.));
#621=DIRECTION('refdir',(1.,0.,0.));
#622=DIRECTION('axis',(0.,0.,1.));
#623=DIRECTION('refdir',(1.,0.,0.));
#624=DIRECTION('',(8.27116153345751E-15,0.999999999999973,1.35276343533642E-14));
#625=DIRECTION('',(1.05733895987908E-15,1.37311786728223E-14,-1.00000000000001));
#626=DIRECTION('axis',(0.,0.,1.));
#627=DIRECTION('refdir',(1.,0.,0.));
#628=DIRECTION('axis',(0.,0.,1.));
#629=DIRECTION('refdir',(1.,0.,0.));
#630=DIRECTION('axis',(0.,0.,1.));
#631=DIRECTION('refdir',(1.,0.,0.));
#632=DIRECTION('axis',(0.,0.,1.));
#633=DIRECTION('refdir',(1.,0.,0.));
#634=DIRECTION('axis',(0.,0.,1.));
#635=DIRECTION('refdir',(1.,0.,0.));
#636=DIRECTION('axis',(0.,0.,1.));
#637=DIRECTION('refdir',(1.,0.,0.));
#638=DIRECTION('axis',(0.,0.,1.));
#639=DIRECTION('refdir',(1.,0.,0.));
#640=DIRECTION('axis',(0.,0.,1.));
#641=DIRECTION('refdir',(1.,0.,0.));
#642=DIRECTION('axis',(0.,0.,1.));
#643=DIRECTION('refdir',(1.,0.,0.));
#644=DIRECTION('axis',(0.,0.,1.));
#645=DIRECTION('refdir',(1.,0.,0.));
#646=DIRECTION('',(8.27116153345751E-15,0.999999999999973,1.35276343533642E-14));
#647=DIRECTION('',(1.05733895987908E-15,1.37311786728223E-14,-1.00000000000001));
#648=DIRECTION('',(8.27116153345751E-15,0.999999999999973,1.35276343533642E-14));
#649=DIRECTION('',(1.05733895987908E-15,1.37311786728223E-14,-1.00000000000001));
#650=DIRECTION('',(8.27116153345751E-15,0.999999999999973,1.35276343533642E-14));
#651=DIRECTION('',(1.05733895987908E-15,1.37311786728223E-14,-1.00000000000001));
#652=DIRECTION('',(8.27116153345751E-15,0.999999999999973,1.35276343533642E-14));
#653=DIRECTION('',(1.05733895987908E-15,1.37311786728223E-14,-1.00000000000001));
#654=DIRECTION('',(8.27116153345751E-15,0.999999999999973,1.35276343533642E-14));
#655=DIRECTION('',(1.05733895987908E-15,1.37311786728223E-14,-1.00000000000001));
#656=DIRECTION('',(8.27116153345751E-15,0.999999999999973,1.35276343533642E-14));
#657=DIRECTION('',(1.05733895987908E-15,1.37311786728223E-14,-1.00000000000001));
#658=DIRECTION('',(8.27116153345751E-15,0.999999999999973,1.35276343533642E-14));
#659=DIRECTION('',(1.05733895987908E-15,1.37311786728223E-14,-1.00000000000001));
#660=DIRECTION('',(8.27116153345751E-15,0.999999999999973,1.35276343533642E-14));
#661=DIRECTION('',(1.05733895987908E-15,1.37311786728223E-14,-1.00000000000001));
#662=DIRECTION('',(8.27116153345751E-15,0.999999999999973,1.35276343533642E-14));
#663=DIRECTION('',(1.05733895987908E-15,1.37311786728223E-14,-1.00000000000001));
#664=DIRECTION('axis',(0.,0.,1.));
#665=DIRECTION('refdir',(1.,0.,0.));
#666=DIRECTION('',(0.,0.,1.));
#667=DIRECTION('',(1.,0.,0.));
#668=DIRECTION('',(0.,0.,1.));
#669=DIRECTION('',(1.,0.,0.));
#670=DIRECTION('',(0.,0.,1.));
#671=DIRECTION('',(1.,0.,0.));
#672=DIRECTION('',(0.,0.,1.));
#673=DIRECTION('',(1.,0.,0.));
#674=DIRECTION('',(0.,0.,1.));
#675=DIRECTION('',(1.,0.,0.));
#676=DIRECTION('',(0.,0.,1.));
#677=DIRECTION('',(1.,0.,0.));
#678=DIRECTION('',(0.,0.,1.));
#679=DIRECTION('',(1.,0.,0.));
#680=DIRECTION('',(0.,0.,1.));
#681=DIRECTION('',(1.,0.,0.));
#682=DIRECTION('',(0.,0.,1.));
#683=DIRECTION('',(1.,0.,0.));
#684=DIRECTION('',(0.,0.,1.));
#685=DIRECTION('',(1.,0.,0.));
#686=DIRECTION('',(8.27116153345751E-15,0.999999999999973,1.35276343533642E-14));
#687=DIRECTION('',(1.05733895987908E-15,1.37311786728223E-14,-1.00000000000001));
#688=DIRECTION('center_axis',(0.,0.,1.));
#689=DIRECTION('ref_axis',(-0.707106781186546,-0.707106781186549,0.));
#690=DIRECTION('',(0.,0.,1.));
#691=DIRECTION('center_axis',(-0.707106781186551,-3.14018491736754E-15,
-0.707106781186544));
#692=DIRECTION('ref_axis',(0.707106781186544,3.14018491736751E-15,-0.707106781186551));
#693=DIRECTION('',(0.,0.,-1.));
#694=DIRECTION('center_axis',(-0.707106781186548,0.,0.707106781186548));
#695=DIRECTION('ref_axis',(-0.707106781186547,0.,-0.707106781186547));
#696=DIRECTION('center_axis',(1.,0.,0.));
#697=DIRECTION('ref_axis',(0.,-0.707106781186547,0.707106781186548));
#698=DIRECTION('',(-1.,0.,0.));
#699=DIRECTION('',(1.,0.,0.));
#700=DIRECTION('center_axis',(-0.707106781186549,0.,0.707106781186546));
#701=DIRECTION('ref_axis',(-0.707106781186546,0.,-0.707106781186549));
#702=DIRECTION('center_axis',(0.,0.,-1.));
#703=DIRECTION('ref_axis',(0.707106781186553,-0.707106781186543,0.));
#704=DIRECTION('',(0.,0.,1.));
#705=DIRECTION('',(0.,0.,-1.));
#706=DIRECTION('center_axis',(0.707106781186548,0.,0.707106781186548));
#707=DIRECTION('ref_axis',(-0.707106781186547,0.,0.707106781186547));
#708=DIRECTION('center_axis',(-1.,0.,0.));
#709=DIRECTION('ref_axis',(0.,-0.707106781186549,-0.707106781186546));
#710=DIRECTION('',(1.,0.,0.));
#711=DIRECTION('',(-1.,0.,0.));
#712=DIRECTION('center_axis',(0.,0.,-1.));
#713=DIRECTION('ref_axis',(-1.,0.,0.));
#714=DIRECTION('',(0.,1.,0.));
#715=DIRECTION('',(-1.,0.,0.));
#716=DIRECTION('',(0.,1.,0.));
#717=DIRECTION('center_axis',(-1.,0.,0.));
#718=DIRECTION('ref_axis',(0.,0.,1.));
#719=DIRECTION('',(0.,1.,0.));
#720=DIRECTION('',(0.,0.,1.));
#721=DIRECTION('center_axis',(0.,1.,0.));
#722=DIRECTION('ref_axis',(1.,0.,0.));
#723=DIRECTION('center_axis',(0.,-1.,0.));
#724=DIRECTION('ref_axis',(1.,0.,0.));
#725=DIRECTION('center_axis',(0.,-1.,0.));
#726=DIRECTION('ref_axis',(1.,0.,0.));
#727=DIRECTION('center_axis',(0.,-1.,0.));
#728=DIRECTION('ref_axis',(1.,0.,0.));
#729=DIRECTION('center_axis',(0.,-1.,0.));
#730=DIRECTION('ref_axis',(1.,0.,0.));
#731=DIRECTION('center_axis',(0.,1.,0.));
#732=DIRECTION('ref_axis',(0.,0.,1.));
#733=DIRECTION('center_axis',(0.,-1.,0.));
#734=DIRECTION('ref_axis',(0.,0.,1.));
#735=DIRECTION('center_axis',(0.,-1.,0.));
#736=DIRECTION('ref_axis',(0.,0.,1.));
#737=DIRECTION('',(0.,-1.,0.));
#738=DIRECTION('center_axis',(0.,-1.,0.));
#739=DIRECTION('ref_axis',(0.,0.,1.));
#740=DIRECTION('',(0.,1.,0.));
#741=DIRECTION('center_axis',(0.,1.,0.));
#742=DIRECTION('ref_axis',(1.,0.,0.));
#743=DIRECTION('center_axis',(0.,-1.,0.));
#744=DIRECTION('ref_axis',(1.,0.,0.));
#745=DIRECTION('',(0.,-1.,0.));
#746=DIRECTION('center_axis',(0.,-1.,0.));
#747=DIRECTION('ref_axis',(1.,0.,0.));
#748=DIRECTION('center_axis',(0.,0.,-1.));
#749=DIRECTION('ref_axis',(1.,0.,0.));
#750=DIRECTION('',(1.,0.,0.));
#751=DIRECTION('',(0.,-1.,0.));
#752=DIRECTION('',(1.,0.,0.));
#753=DIRECTION('',(0.,-1.,0.));
#754=DIRECTION('center_axis',(0.,1.,0.));
#755=DIRECTION('ref_axis',(1.,0.,0.));
#756=DIRECTION('',(0.,0.,-1.));
#757=DIRECTION('',(1.,0.,0.));
#758=DIRECTION('',(0.,0.,-1.));
#759=DIRECTION('',(-1.,0.,0.));
#760=DIRECTION('',(0.,0.,-1.));
#761=DIRECTION('',(1.,0.,0.));
#762=DIRECTION('',(0.,0.,1.));
#763=DIRECTION('center_axis',(0.,-1.,0.));
#764=DIRECTION('ref_axis',(1.,0.,0.));
#765=DIRECTION('center_axis',(0.,-1.,0.));
#766=DIRECTION('ref_axis',(1.,0.,0.));
#767=DIRECTION('center_axis',(0.,-1.,0.));
#768=DIRECTION('ref_axis',(1.,0.,0.));
#769=DIRECTION('center_axis',(0.,0.,1.));
#770=DIRECTION('ref_axis',(-1.,0.,0.));
#771=DIRECTION('',(0.,1.,0.));
#772=DIRECTION('',(-1.,-2.01858728742099E-16,0.));
#773=DIRECTION('',(0.,-1.,0.));
#774=DIRECTION('center_axis',(1.,0.,0.));
#775=DIRECTION('ref_axis',(0.,0.,1.));
#776=DIRECTION('',(0.,-1.,0.));
#777=DIRECTION('',(0.,0.,1.));
#778=DIRECTION('center_axis',(0.,0.,-1.));
#779=DIRECTION('ref_axis',(1.,0.,0.));
#780=DIRECTION('',(0.,-1.,0.));
#781=DIRECTION('',(1.,0.,0.));
#782=DIRECTION('center_axis',(-1.,0.,0.));
#783=DIRECTION('ref_axis',(0.,0.,-1.));
#784=DIRECTION('',(0.,0.,-1.));
#785=DIRECTION('center_axis',(0.,-1.,0.));
#786=DIRECTION('ref_axis',(0.,0.,-1.));
#787=DIRECTION('',(0.,0.,1.));
#788=DIRECTION('center_axis',(0.,1.,0.));
#789=DIRECTION('ref_axis',(1.,0.,0.));
#790=DIRECTION('',(0.,-1.,0.));
#791=DIRECTION('center_axis',(0.,1.,0.));
#792=DIRECTION('ref_axis',(1.,0.,0.));
#793=DIRECTION('',(0.,-1.,0.));
#794=DIRECTION('center_axis',(0.,1.,0.));
#795=DIRECTION('ref_axis',(1.,0.,0.));
#796=DIRECTION('',(0.,-1.,0.));
#797=DIRECTION('center_axis',(1.,0.,0.));
#798=DIRECTION('ref_axis',(0.,0.,-1.));
#799=DIRECTION('',(0.,1.,0.));
#800=DIRECTION('center_axis',(0.,0.,1.));
#801=DIRECTION('ref_axis',(1.,0.,0.));
#802=DIRECTION('',(0.,0.,1.));
#803=DIRECTION('',(1.,0.,0.));
#804=CARTESIAN_POINT('',(0.,0.,0.));
#805=CARTESIAN_POINT('',(0.,0.,0.));
#806=CARTESIAN_POINT('',(0.,0.,0.));
#807=CARTESIAN_POINT('',(0.,0.,0.));
#808=CARTESIAN_POINT('',(-111.306713301373,50.0147408372605,-28.2849981617931));
#809=CARTESIAN_POINT('',(0.,0.,0.));
#810=CARTESIAN_POINT('',(0.,0.,0.));
#811=CARTESIAN_POINT('',(0.,0.,0.));
#812=CARTESIAN_POINT('',(0.,0.,0.));
#813=CARTESIAN_POINT('',(0.,0.,0.));
#814=CARTESIAN_POINT('',(0.,0.,0.));
#815=CARTESIAN_POINT('',(0.,0.,0.));
#816=CARTESIAN_POINT('',(0.,0.,0.));
#817=CARTESIAN_POINT('',(0.,0.,0.));
#818=CARTESIAN_POINT('',(0.,0.,0.));
#819=CARTESIAN_POINT('',(-49.5067133013733,114.10974083726,-30.5799981617921));
#820=CARTESIAN_POINT('',(-53.0567133013733,110.55974083726,-30.5799981617922));
#821=CARTESIAN_POINT('',(-31.7567133013735,131.85974083726,-30.579998161792));
#822=CARTESIAN_POINT('',(-24.6567133013737,138.95974083726,-30.5799981617919));
#823=CARTESIAN_POINT('',(-35.3067133013735,128.30974083726,-30.579998161792));
#824=CARTESIAN_POINT('',(-45.9567133013734,117.65974083726,-30.579998161792));
#825=CARTESIAN_POINT('',(-28.2067133013735,135.40974083726,-30.579998161792));
#826=CARTESIAN_POINT('',(-38.8567133013735,124.75974083726,-30.5799981617921));
#827=CARTESIAN_POINT('',(-42.4067133013735,121.20974083726,-30.5799981617919));
#828=CARTESIAN_POINT('',(0.,0.,0.));
#829=CARTESIAN_POINT('',(117.,-44.,1.595));
#830=CARTESIAN_POINT('',(119.295,-108.095,1.595));
#831=CARTESIAN_POINT('',(119.295,-104.545,1.595));
#832=CARTESIAN_POINT('',(119.295,-125.845,1.595));
#833=CARTESIAN_POINT('',(119.295,-132.945,1.595));
#834=CARTESIAN_POINT('',(119.295,-122.295,1.595));
#835=CARTESIAN_POINT('',(119.295,-111.645,1.595));
#836=CARTESIAN_POINT('',(119.295,-129.395,1.595));
#837=CARTESIAN_POINT('',(119.295,-118.745,1.595));
#838=CARTESIAN_POINT('',(119.295,-115.195,1.595));
#839=CARTESIAN_POINT('',(-38.3067133013706,4.41974083725923,90.3100018382059));
#840=CARTESIAN_POINT('Origin',(-9.00000014901162,1.,-49.9249998509884));
#841=CARTESIAN_POINT('',(-9.00000014901162,0.,-68.8999998509884));
#842=CARTESIAN_POINT('',(-9.00000014901162,0.,9.00000014901161));
#843=CARTESIAN_POINT('',(-9.00000014901162,0.,-49.9249998509884));
#844=CARTESIAN_POINT('',(-10.0000001490116,1.,10.0000001490116));
#845=CARTESIAN_POINT('Origin',(-9.00000014901162,1.,9.00000014901161));
#846=CARTESIAN_POINT('',(-10.0000001490116,1.,-69.8999998509884));
#847=CARTESIAN_POINT('',(-10.0000001490116,1.,-49.9249998509884));
#848=CARTESIAN_POINT('Origin',(-9.00000014901162,1.,-68.8999998509884));
#849=CARTESIAN_POINT('Origin',(20.2249998509884,1.,9.00000014901161));
#850=CARTESIAN_POINT('',(110.899999850988,1.,10.0000001490116));
#851=CARTESIAN_POINT('',(20.2249998509884,1.,10.0000001490116));
#852=CARTESIAN_POINT('',(109.899999850988,0.,9.00000014901161));
#853=CARTESIAN_POINT('',(20.2249998509884,0.,9.00000014901161));
#854=CARTESIAN_POINT('Origin',(109.899999850988,1.,9.00000014901161));
#855=CARTESIAN_POINT('Origin',(109.899999850988,1.,-9.97499985098839));
#856=CARTESIAN_POINT('',(110.899999850988,1.,-69.8999998509884));
#857=CARTESIAN_POINT('',(110.899999850988,1.,-9.97499985098839));
#858=CARTESIAN_POINT('',(109.899999850988,0.,-68.8999998509884));
#859=CARTESIAN_POINT('',(109.899999850988,0.,-9.97499985098839));
#860=CARTESIAN_POINT('Origin',(109.899999850988,1.,-68.8999998509884));
#861=CARTESIAN_POINT('Origin',(80.6749998509884,1.,-68.8999998509884));
#862=CARTESIAN_POINT('',(80.6749998509884,1.,-69.8999998509884));
#863=CARTESIAN_POINT('',(80.6749998509884,0.,-68.8999998509884));
#864=CARTESIAN_POINT('Origin',(110.899999850988,0.,-69.8999998509884));
#865=CARTESIAN_POINT('',(-10.0000001490116,13.,-69.8999998509884));
#866=CARTESIAN_POINT('',(-10.0000001490116,0.,-69.8999998509884));
#867=CARTESIAN_POINT('',(110.899999850988,13.,-69.8999998509884));
#868=CARTESIAN_POINT('',(110.899999850988,13.,-69.8999998509884));
#869=CARTESIAN_POINT('',(110.899999850988,0.,-69.8999998509884));
#870=CARTESIAN_POINT('Origin',(-10.0000001490116,0.,-69.8999998509884));
#871=CARTESIAN_POINT('',(-10.0000001490116,13.,10.0000001490116));
#872=CARTESIAN_POINT('',(-10.0000001490116,0.,10.0000001490116));
#873=CARTESIAN_POINT('',(-10.0000001490116,13.,-69.8999998509884));
#874=CARTESIAN_POINT('Origin',(50.4499998509884,0.,-29.9499998509884));
#875=CARTESIAN_POINT('',(104.449999850988,0.,-64.8999998509884));
#876=CARTESIAN_POINT('Origin',(105.899999850988,0.,-64.8999998509884));
#877=CARTESIAN_POINT('',(-6.45000014901161,0.,-64.8999998509884));
#878=CARTESIAN_POINT('Origin',(-5.00000014901161,0.,-64.8999998509884));
#879=CARTESIAN_POINT('',(104.449999850988,0.,5.00000014901161));
#880=CARTESIAN_POINT('Origin',(105.899999850988,0.,5.00000014901161));
#881=CARTESIAN_POINT('',(-6.45000014901161,0.,5.00000014901161));
#882=CARTESIAN_POINT('Origin',(-5.00000014901161,0.,5.00000014901161));
#883=CARTESIAN_POINT('Origin',(-4.99794929537606,9.56437605120502,-64.8965035311344));
#884=CARTESIAN_POINT('',(-6.24968467782605,10.,-64.1646165642312));
#885=CARTESIAN_POINT('',(-3.74826476656153,10.,-65.6318868178914));
#886=CARTESIAN_POINT('Ctrl Pts',(-6.24968467782605,10.,-64.1646165642312));
#887=CARTESIAN_POINT('Ctrl Pts',(-6.18551380535209,9.99978747029818,-64.055566837408));
#888=CARTESIAN_POINT('Ctrl Pts',(-6.10749604586135,9.9995774616454,-63.9564350992151));
#889=CARTESIAN_POINT('Ctrl Pts',(-5.89366224296941,9.99908725169817,-63.7437551350171));
#890=CARTESIAN_POINT('Ctrl Pts',(-5.73062091765328,9.99878746832084,-63.632737166953));
#891=CARTESIAN_POINT('Ctrl Pts',(-5.3736404294579,9.99827023073139,-63.4857317156098));
#892=CARTESIAN_POINT('Ctrl Pts',(-5.1797012657105,9.99805278903282,-63.4497442343949));
#893=CARTESIAN_POINT('Ctrl Pts',(-4.99794929537606,9.99789832763255,-63.4500013013342));
#894=CARTESIAN_POINT('Ctrl Pts',(-4.81639842119843,9.99774403713328,-63.4502580838464));
#895=CARTESIAN_POINT('Ctrl Pts',(-4.62276247938056,9.99763198510827,-63.486714195282));
#896=CARTESIAN_POINT('Ctrl Pts',(-4.26650573749595,9.99754298800587,-63.6344286154235));
#897=CARTESIAN_POINT('Ctrl Pts',(-4.10388493767293,9.99756604647203,-63.7456869247192));
#898=CARTESIAN_POINT('Ctrl Pts',(-3.84688098143815,9.99771987868662,-64.002328744585));
#899=CARTESIAN_POINT('Ctrl Pts',(-3.73535065515311,9.99786099671943,-64.1648913150207));
#900=CARTESIAN_POINT('Ctrl Pts',(-3.58713135132877,9.9982520679438,-64.5211533616245));
#901=CARTESIAN_POINT('Ctrl Pts',(-3.55044237170821,9.99850200861178,-64.7148528369405));
#902=CARTESIAN_POINT('Ctrl Pts',(-3.54956553030741,9.99902886807865,-65.0784970079918));
#903=CARTESIAN_POINT('Ctrl Pts',(-3.58545486666158,9.99934106661218,-65.2727136940458));
#904=CARTESIAN_POINT('Ctrl Pts',(-3.68454837074,9.99977457951398,-65.5136882842559));
#905=CARTESIAN_POINT('Ctrl Pts',(-3.71450664902261,9.99988766123332,-65.5741508120883));
#906=CARTESIAN_POINT('Ctrl Pts',(-3.74826476656153,10.,-65.6318868178914));
#907=CARTESIAN_POINT('Origin',(-4.99794929537606,10.,-64.8965035311344));
#908=CARTESIAN_POINT('Origin',(-4.99794929537606,13.,-64.8965035311344));
#909=CARTESIAN_POINT('',(-6.24968467782605,13.,-64.1646165642312));
#910=CARTESIAN_POINT('',(-6.24968467782605,13.,-64.1646165642312));
#911=CARTESIAN_POINT('',(-3.74826476656153,13.,-65.6318868178914));
#912=CARTESIAN_POINT('Origin',(-4.99794929537606,13.,-64.8965035311344));
#913=CARTESIAN_POINT('',(-3.74826476656153,13.,-65.6318868178914));
#914=CARTESIAN_POINT('Origin',(-5.00000014901161,0.,-64.8999998509884));
#915=CARTESIAN_POINT('',(-6.45000014901161,13.,-64.8999998509884));
#916=CARTESIAN_POINT('Origin',(-5.00000014901161,13.,-64.8999998509884));
#917=CARTESIAN_POINT('',(-6.45000014901161,0.,-64.8999998509884));
#918=CARTESIAN_POINT('Origin',(-5.00000014901161,13.,-64.8999998509884));
#919=CARTESIAN_POINT('Origin',(101.000001505017,13.,-27.0000004023314));
#920=CARTESIAN_POINT('',(100.9,3.,-27.0000004023314));
#921=CARTESIAN_POINT('',(110.899999850988,3.,-27.0000004023314));
#922=CARTESIAN_POINT('',(101.000001505017,3.,-27.0000004023314));
#923=CARTESIAN_POINT('',(110.899999850988,13.,-27.0000004023314));
#924=CARTESIAN_POINT('',(110.899999850988,6.5,-27.0000004023314));
#925=CARTESIAN_POINT('',(100.9,13.,-27.0000004023314));
#926=CARTESIAN_POINT('',(75.7250006780028,13.,-27.0000004023314));
#927=CARTESIAN_POINT('',(100.9,13.,-27.0000004023314));
#928=CARTESIAN_POINT('Origin',(50.4499998509884,13.,-29.9499998509884));
#929=CARTESIAN_POINT('',(110.899999850988,13.,10.0000001490116));
#930=CARTESIAN_POINT('',(110.899999850988,13.,10.0000001490116));
#931=CARTESIAN_POINT('',(-10.0000001490116,13.,10.0000001490116));
#932=CARTESIAN_POINT('',(110.899999850988,13.,0.));
#933=CARTESIAN_POINT('',(110.899999850988,13.,10.0000001490116));
#934=CARTESIAN_POINT('',(0.,13.,0.));
#935=CARTESIAN_POINT('',(81.2250007599592,13.,0.));
#936=CARTESIAN_POINT('',(0.,13.,-59.9));
#937=CARTESIAN_POINT('',(0.,13.,-14.9749999254942));
#938=CARTESIAN_POINT('',(100.9,13.,-59.9));
#939=CARTESIAN_POINT('',(25.2249999254942,13.,-59.9));
#940=CARTESIAN_POINT('',(100.9,13.,-44.9249999254942));
#941=CARTESIAN_POINT('',(104.449999850988,13.,-64.8999998509884));
#942=CARTESIAN_POINT('Origin',(105.899999850988,13.,-64.8999998509884));
#943=CARTESIAN_POINT('',(104.449999850988,13.,5.00000014901161));
#944=CARTESIAN_POINT('Origin',(105.899999850988,13.,5.00000014901161));
#945=CARTESIAN_POINT('',(-6.45000014901161,13.,5.00000014901161));
#946=CARTESIAN_POINT('Origin',(-5.00000014901161,13.,5.00000014901161));
#947=CARTESIAN_POINT('Origin',(100.9,13.,0.));
#948=CARTESIAN_POINT('',(110.899999850988,3.,0.));
#949=CARTESIAN_POINT('',(110.899999850988,6.5,0.));
#950=CARTESIAN_POINT('',(0.,3.,0.));
#951=CARTESIAN_POINT('',(112.00000166893,3.,0.));
#952=CARTESIAN_POINT('',(0.,13.,0.));
#953=CARTESIAN_POINT('Origin',(100.9,13.,-59.9));
#954=CARTESIAN_POINT('',(100.9,3.,-59.9));
#955=CARTESIAN_POINT('',(100.9,13.,-59.9));
#956=CARTESIAN_POINT('',(100.9,3.,0.));
#957=CARTESIAN_POINT('Origin',(0.,13.,-59.9));
#958=CARTESIAN_POINT('',(0.,3.,-59.9));
#959=CARTESIAN_POINT('',(0.,13.,-59.9));
#960=CARTESIAN_POINT('',(100.9,3.,-59.9));
#961=CARTESIAN_POINT('Origin',(0.,13.,0.));
#962=CARTESIAN_POINT('',(0.,3.,-59.9));
#963=CARTESIAN_POINT('Origin',(50.45,3.,-29.95));
#964=CARTESIAN_POINT('',(110.899999850988,3.,-1.75000002607703));
#965=CARTESIAN_POINT('Origin',(105.899999850988,0.,-64.8999998509884));
#966=CARTESIAN_POINT('',(104.449999850988,0.,-64.8999998509884));
#967=CARTESIAN_POINT('Origin',(105.899999850988,0.,5.00000014901161));
#968=CARTESIAN_POINT('',(104.449999850988,0.,5.00000014901161));
#969=CARTESIAN_POINT('Origin',(-5.00000014901161,0.,5.00000014901161));
#970=CARTESIAN_POINT('',(-6.45000014901161,0.,5.00000014901161));
#971=CARTESIAN_POINT('Origin',(110.899999850988,0.,10.0000001490116));
#972=CARTESIAN_POINT('',(110.899999850988,0.,10.0000001490116));
#973=CARTESIAN_POINT('Origin',(-10.0000001490116,0.,10.0000001490116));
#974=CARTESIAN_POINT('',(0.,0.,0.));
#975=UNCERTAINTY_MEASURE_WITH_UNIT(LENGTH_MEASURE(0.01),#1007,
'DISTANCE_ACCURACY_VALUE',
'Maximum model space distance between geometric entities at asserted c
onnectivities');
#976=UNCERTAINTY_MEASURE_WITH_UNIT(LENGTH_MEASURE(0.01),#1007,
'DISTANCE_ACCURACY_VALUE',
'Maximum model space distance between geometric entities at asserted c
onnectivities');
#977=UNCERTAINTY_MEASURE_WITH_UNIT(LENGTH_MEASURE(0.01),#1007,
'DISTANCE_ACCURACY_VALUE',
'Maximum model space distance between geometric entities at asserted c
onnectivities');
#978=UNCERTAINTY_MEASURE_WITH_UNIT(LENGTH_MEASURE(0.01),#1007,
'DISTANCE_ACCURACY_VALUE',
'Maximum model space distance between geometric entities at asserted c
onnectivities');
#979=UNCERTAINTY_MEASURE_WITH_UNIT(LENGTH_MEASURE(0.01),#1007,
'DISTANCE_ACCURACY_VALUE',
'Maximum model space distance between geometric entities at asserted c
onnectivities');
#980=UNCERTAINTY_MEASURE_WITH_UNIT(LENGTH_MEASURE(0.01),#1007,
'DISTANCE_ACCURACY_VALUE',
'Maximum model space distance between geometric entities at asserted c
onnectivities');
#981=UNCERTAINTY_MEASURE_WITH_UNIT(LENGTH_MEASURE(0.01),#1007,
'DISTANCE_ACCURACY_VALUE',
'Maximum model space distance between geometric entities at asserted c
onnectivities');
#982=UNCERTAINTY_MEASURE_WITH_UNIT(LENGTH_MEASURE(0.01),#1007,
'DISTANCE_ACCURACY_VALUE',
'Maximum model space distance between geometric entities at asserted c
onnectivities');
#983=UNCERTAINTY_MEASURE_WITH_UNIT(LENGTH_MEASURE(0.01),#1007,
'DISTANCE_ACCURACY_VALUE',
'Maximum model space distance between geometric entities at asserted c
onnectivities');
#984=UNCERTAINTY_MEASURE_WITH_UNIT(LENGTH_MEASURE(0.01),#1007,
'DISTANCE_ACCURACY_VALUE',
'Maximum model space distance between geometric entities at asserted c
onnectivities');
#985=UNCERTAINTY_MEASURE_WITH_UNIT(LENGTH_MEASURE(0.01),#1007,
'DISTANCE_ACCURACY_VALUE',
'Maximum model space distance between geometric entities at asserted c
onnectivities');
#986=UNCERTAINTY_MEASURE_WITH_UNIT(LENGTH_MEASURE(0.01),#1007,
'DISTANCE_ACCURACY_VALUE',
'Maximum model space distance between geometric entities at asserted c
onnectivities');
#987=UNCERTAINTY_MEASURE_WITH_UNIT(LENGTH_MEASURE(0.01),#1007,
'DISTANCE_ACCURACY_VALUE',
'Maximum model space distance between geometric entities at asserted c
onnectivities');
#988=UNCERTAINTY_MEASURE_WITH_UNIT(LENGTH_MEASURE(0.01),#1007,
'DISTANCE_ACCURACY_VALUE',
'Maximum model space distance between geometric entities at asserted c
onnectivities');
#989=UNCERTAINTY_MEASURE_WITH_UNIT(LENGTH_MEASURE(0.01),#1007,
'DISTANCE_ACCURACY_VALUE',
'Maximum model space distance between geometric entities at asserted c
onnectivities');
#990=UNCERTAINTY_MEASURE_WITH_UNIT(LENGTH_MEASURE(0.01),#1007,
'DISTANCE_ACCURACY_VALUE',
'Maximum model space distance between geometric entities at asserted c
onnectivities');
#991=(
GEOMETRIC_REPRESENTATION_CONTEXT(3)
GLOBAL_UNCERTAINTY_ASSIGNED_CONTEXT((#975))
GLOBAL_UNIT_ASSIGNED_CONTEXT((#1007,#1009,#1010))
REPRESENTATION_CONTEXT('','3D')
);
#992=(
GEOMETRIC_REPRESENTATION_CONTEXT(3)
GLOBAL_UNCERTAINTY_ASSIGNED_CONTEXT((#976))
GLOBAL_UNIT_ASSIGNED_CONTEXT((#1007,#1009,#1010))
REPRESENTATION_CONTEXT('','3D')
);
#993=(
GEOMETRIC_REPRESENTATION_CONTEXT(3)
GLOBAL_UNCERTAINTY_ASSIGNED_CONTEXT((#977))
GLOBAL_UNIT_ASSIGNED_CONTEXT((#1007,#1009,#1010))
REPRESENTATION_CONTEXT('','3D')
);
#994=(
GEOMETRIC_REPRESENTATION_CONTEXT(3)
GLOBAL_UNCERTAINTY_ASSIGNED_CONTEXT((#978))
GLOBAL_UNIT_ASSIGNED_CONTEXT((#1007,#1009,#1010))
REPRESENTATION_CONTEXT('','3D')
);
#995=(
GEOMETRIC_REPRESENTATION_CONTEXT(3)
GLOBAL_UNCERTAINTY_ASSIGNED_CONTEXT((#979))
GLOBAL_UNIT_ASSIGNED_CONTEXT((#1007,#1009,#1010))
REPRESENTATION_CONTEXT('','3D')
);
#996=(
GEOMETRIC_REPRESENTATION_CONTEXT(3)
GLOBAL_UNCERTAINTY_ASSIGNED_CONTEXT((#980))
GLOBAL_UNIT_ASSIGNED_CONTEXT((#1007,#1009,#1010))
REPRESENTATION_CONTEXT('','3D')
);
#997=(
GEOMETRIC_REPRESENTATION_CONTEXT(3)
GLOBAL_UNCERTAINTY_ASSIGNED_CONTEXT((#981))
GLOBAL_UNIT_ASSIGNED_CONTEXT((#1007,#1009,#1010))
REPRESENTATION_CONTEXT('','3D')
);
#998=(
GEOMETRIC_REPRESENTATION_CONTEXT(3)
GLOBAL_UNCERTAINTY_ASSIGNED_CONTEXT((#982))
GLOBAL_UNIT_ASSIGNED_CONTEXT((#1007,#1009,#1010))
REPRESENTATION_CONTEXT('','3D')
);
#999=(
GEOMETRIC_REPRESENTATION_CONTEXT(3)
GLOBAL_UNCERTAINTY_ASSIGNED_CONTEXT((#983))
GLOBAL_UNIT_ASSIGNED_CONTEXT((#1007,#1009,#1010))
REPRESENTATION_CONTEXT('','3D')
);
#1000=(
GEOMETRIC_REPRESENTATION_CONTEXT(3)
GLOBAL_UNCERTAINTY_ASSIGNED_CONTEXT((#984))
GLOBAL_UNIT_ASSIGNED_CONTEXT((#1007,#1009,#1010))
REPRESENTATION_CONTEXT('','3D')
);
#1001=(
GEOMETRIC_REPRESENTATION_CONTEXT(3)
GLOBAL_UNCERTAINTY_ASSIGNED_CONTEXT((#985))
GLOBAL_UNIT_ASSIGNED_CONTEXT((#1007,#1009,#1010))
REPRESENTATION_CONTEXT('','3D')
);
#1002=(
GEOMETRIC_REPRESENTATION_CONTEXT(3)
GLOBAL_UNCERTAINTY_ASSIGNED_CONTEXT((#986))
GLOBAL_UNIT_ASSIGNED_CONTEXT((#1007,#1009,#1010))
REPRESENTATION_CONTEXT('','3D')
);
#1003=(
GEOMETRIC_REPRESENTATION_CONTEXT(3)
GLOBAL_UNCERTAINTY_ASSIGNED_CONTEXT((#987))
GLOBAL_UNIT_ASSIGNED_CONTEXT((#1007,#1009,#1010))
REPRESENTATION_CONTEXT('','3D')
);
#1004=(
GEOMETRIC_REPRESENTATION_CONTEXT(3)
GLOBAL_UNCERTAINTY_ASSIGNED_CONTEXT((#988))
GLOBAL_UNIT_ASSIGNED_CONTEXT((#1007,#1009,#1010))
REPRESENTATION_CONTEXT('','3D')
);
#1005=(
GEOMETRIC_REPRESENTATION_CONTEXT(3)
GLOBAL_UNCERTAINTY_ASSIGNED_CONTEXT((#989))
GLOBAL_UNIT_ASSIGNED_CONTEXT((#1007,#1009,#1010))
REPRESENTATION_CONTEXT('','3D')
);
#1006=(
GEOMETRIC_REPRESENTATION_CONTEXT(3)
GLOBAL_UNCERTAINTY_ASSIGNED_CONTEXT((#990))
GLOBAL_UNIT_ASSIGNED_CONTEXT((#1007,#1009,#1010))
REPRESENTATION_CONTEXT('','3D')
);
#1007=(
LENGTH_UNIT()
NAMED_UNIT(*)
SI_UNIT(.MILLI.,.METRE.)
);
#1008=(
LENGTH_UNIT()
NAMED_UNIT(*)
SI_UNIT($,.METRE.)
);
#1009=(
NAMED_UNIT(*)
PLANE_ANGLE_UNIT()
SI_UNIT($,.RADIAN.)
);
#1010=(
NAMED_UNIT(*)
SI_UNIT($,.STERADIAN.)
SOLID_ANGLE_UNIT()
);
#1011=SHAPE_DEFINITION_REPRESENTATION(#1026,#1063);
#1012=SHAPE_DEFINITION_REPRESENTATION(#1027,#1064);
#1013=SHAPE_DEFINITION_REPRESENTATION(#1028,#1065);
#1014=SHAPE_DEFINITION_REPRESENTATION(#1029,#1066);
#1015=SHAPE_DEFINITION_REPRESENTATION(#1031,#1067);
#1016=SHAPE_DEFINITION_REPRESENTATION(#1032,#1068);
#1017=SHAPE_DEFINITION_REPRESENTATION(#1033,#1069);
#1018=SHAPE_DEFINITION_REPRESENTATION(#1034,#1070);
#1019=SHAPE_DEFINITION_REPRESENTATION(#1035,#1071);
#1020=SHAPE_DEFINITION_REPRESENTATION(#1036,#1072);
#1021=SHAPE_DEFINITION_REPRESENTATION(#1037,#1073);
#1022=SHAPE_DEFINITION_REPRESENTATION(#1038,#1074);
#1023=SHAPE_DEFINITION_REPRESENTATION(#1039,#1075);
#1024=SHAPE_DEFINITION_REPRESENTATION(#1040,#1076);
#1025=SHAPE_DEFINITION_REPRESENTATION(#1050,#1077);
#1026=PRODUCT_DEFINITION_SHAPE('',$,#1079);
#1027=PRODUCT_DEFINITION_SHAPE('',$,#1080);
#1028=PRODUCT_DEFINITION_SHAPE('',$,#1081);
#1029=PRODUCT_DEFINITION_SHAPE('',$,#1082);
#1030=PRODUCT_DEFINITION_SHAPE($,$,#486);
#1031=PRODUCT_DEFINITION_SHAPE('',$,#1083);
#1032=PRODUCT_DEFINITION_SHAPE('',$,#1084);
#1033=PRODUCT_DEFINITION_SHAPE('',$,#1085);
#1034=PRODUCT_DEFINITION_SHAPE('',$,#1086);
#1035=PRODUCT_DEFINITION_SHAPE('',$,#1087);
#1036=PRODUCT_DEFINITION_SHAPE('',$,#1088);
#1037=PRODUCT_DEFINITION_SHAPE('',$,#1089);
#1038=PRODUCT_DEFINITION_SHAPE('',$,#1090);
#1039=PRODUCT_DEFINITION_SHAPE('',$,#1091);
#1040=PRODUCT_DEFINITION_SHAPE('',$,#1092);
#1041=PRODUCT_DEFINITION_SHAPE($,$,#487);
#1042=PRODUCT_DEFINITION_SHAPE($,$,#488);
#1043=PRODUCT_DEFINITION_SHAPE($,$,#489);
#1044=PRODUCT_DEFINITION_SHAPE($,$,#490);
#1045=PRODUCT_DEFINITION_SHAPE($,$,#491);
#1046=PRODUCT_DEFINITION_SHAPE($,$,#492);
#1047=PRODUCT_DEFINITION_SHAPE($,$,#493);
#1048=PRODUCT_DEFINITION_SHAPE($,$,#494);
#1049=PRODUCT_DEFINITION_SHAPE($,$,#495);
#1050=PRODUCT_DEFINITION_SHAPE('',$,#1093);
#1051=PRODUCT_DEFINITION_SHAPE($,$,#496);
#1052=PRODUCT_DEFINITION_SHAPE($,$,#497);
#1053=PRODUCT_DEFINITION_SHAPE($,$,#498);
#1054=PRODUCT_DEFINITION_SHAPE($,$,#499);
#1055=PRODUCT_DEFINITION_SHAPE($,$,#500);
#1056=PRODUCT_DEFINITION_SHAPE($,$,#501);
#1057=PRODUCT_DEFINITION_SHAPE($,$,#502);
#1058=PRODUCT_DEFINITION_SHAPE($,$,#503);
#1059=PRODUCT_DEFINITION_SHAPE($,$,#504);
#1060=PRODUCT_DEFINITION_SHAPE($,$,#505);
#1061=PRODUCT_DEFINITION_SHAPE($,$,#506);
#1062=PRODUCT_DEFINITION_SHAPE($,$,#507);
#1063=SHAPE_REPRESENTATION('',(#542,#615),#991);
#1064=SHAPE_REPRESENTATION('',(#543,#567,#568,#569,#570,#571,#572,#573,
#574,#575,#576,#577),#992);
#1065=SHAPE_REPRESENTATION('',(#544,#546),#993);
#1066=SHAPE_REPRESENTATION('',(#545),#994);
#1067=SHAPE_REPRESENTATION('',(#547,#557),#995);
#1068=SHAPE_REPRESENTATION('',(#548,#558),#996);
#1069=SHAPE_REPRESENTATION('',(#549,#559),#997);
#1070=SHAPE_REPRESENTATION('',(#550,#560),#998);
#1071=SHAPE_REPRESENTATION('',(#551,#561),#999);
#1072=SHAPE_REPRESENTATION('',(#552,#562),#1000);
#1073=SHAPE_REPRESENTATION('',(#553,#563),#1001);
#1074=SHAPE_REPRESENTATION('',(#554,#564),#1002);
#1075=SHAPE_REPRESENTATION('',(#555,#565),#1003);
#1076=SHAPE_REPRESENTATION('',(#556),#1004);
#1077=SHAPE_REPRESENTATION('',(#566),#1005);
#1078=PRODUCT_DEFINITION_CONTEXT('part definition',#1125,'design');
#1079=PRODUCT_DEFINITION('2026-08-04-16-44-00-452','Case2.0',#1094,#1078);
#1080=PRODUCT_DEFINITION('Schaltplatte_6_Tasten 1','PCB',#1095,#1078);
#1081=PRODUCT_DEFINITION('PinHeader_1x04_P2.54mm_Vertical',
'PinHeader_1x04_P2.54mm_Vertical',#1096,#1078);
#1082=PRODUCT_DEFINITION('PinHeader_1x04_P254mm_Vertical',
'PinHeader_1x04_P254mm_Vertical',#1097,#1078);
#1083=PRODUCT_DEFINITION('D_DO-35_SOD27_P7.62mm_Horizontal',
'D_DO-35_SOD27_P7.62mm_Horizontal (1)',#1098,#1078);
#1084=PRODUCT_DEFINITION('D_DO-35_SOD27_P7.62mm_Horizontal_1',
'D_DO-35_SOD27_P7.62mm_Horizontal (1)',#1099,#1078);
#1085=PRODUCT_DEFINITION('D_DO-35_SOD27_P7.62mm_Horizontal_2',
'D_DO-35_SOD27_P7.62mm_Horizontal (1)',#1100,#1078);
#1086=PRODUCT_DEFINITION('D_DO-35_SOD27_P7.62mm_Horizontal_3',
'D_DO-35_SOD27_P7.62mm_Horizontal (1)',#1101,#1078);
#1087=PRODUCT_DEFINITION('D_DO-35_SOD27_P7.62mm_Horizontal_4',
'D_DO-35_SOD27_P7.62mm_Horizontal (1)',#1102,#1078);
#1088=PRODUCT_DEFINITION('D_DO-35_SOD27_P7.62mm_Horizontal_5',
'D_DO-35_SOD27_P7.62mm_Horizontal (1)',#1103,#1078);
#1089=PRODUCT_DEFINITION('D_DO-35_SOD27_P7.62mm_Horizontal_6',
'D_DO-35_SOD27_P7.62mm_Horizontal (1)',#1104,#1078);
#1090=PRODUCT_DEFINITION('D_DO-35_SOD27_P7.62mm_Horizontal_7',
'D_DO-35_SOD27_P7.62mm_Horizontal (1)',#1105,#1078);
#1091=PRODUCT_DEFINITION('D_DO-35_SOD27_P7.62mm_Horizontal_8',
'D_DO-35_SOD27_P7.62mm_Horizontal (1)',#1106,#1078);
#1092=PRODUCT_DEFINITION('D_DO-35_SOD27_P7.62mm_Horizontal_9',
'D_DO-35_SOD27_P7.62mm_Horizontal',#1107,#1078);
#1093=PRODUCT_DEFINITION('SchB4E_PCB','SchB4E_PCB',#1108,#1078);
#1094=PRODUCT_DEFINITION_FORMATION('',$,#1127);
#1095=PRODUCT_DEFINITION_FORMATION('',$,#1128);
#1096=PRODUCT_DEFINITION_FORMATION('',$,#1129);
#1097=PRODUCT_DEFINITION_FORMATION('',$,#1130);
#1098=PRODUCT_DEFINITION_FORMATION('',$,#1131);
#1099=PRODUCT_DEFINITION_FORMATION('',$,#1132);
#1100=PRODUCT_DEFINITION_FORMATION('',$,#1133);
#1101=PRODUCT_DEFINITION_FORMATION('',$,#1134);
#1102=PRODUCT_DEFINITION_FORMATION('',$,#1135);
#1103=PRODUCT_DEFINITION_FORMATION('',$,#1136);
#1104=PRODUCT_DEFINITION_FORMATION('',$,#1137);
#1105=PRODUCT_DEFINITION_FORMATION('',$,#1138);
#1106=PRODUCT_DEFINITION_FORMATION('',$,#1139);
#1107=PRODUCT_DEFINITION_FORMATION('',$,#1140);
#1108=PRODUCT_DEFINITION_FORMATION('',$,#1141);
#1109=PRODUCT_RELATED_PRODUCT_CATEGORY('Case2.0','Case2.0',(#1127));
#1110=PRODUCT_RELATED_PRODUCT_CATEGORY('PCB','PCB',(#1128));
#1111=PRODUCT_RELATED_PRODUCT_CATEGORY(
'PinHeader_1x04_P2.54mm_Vertical','PinHeader_1x04_P2.54mm_Vertical',(#1129));
#1112=PRODUCT_RELATED_PRODUCT_CATEGORY('PinHeader_1x04_P254mm_Vertical',
'PinHeader_1x04_P254mm_Vertical',(#1130));
#1113=PRODUCT_RELATED_PRODUCT_CATEGORY(
'D_DO-35_SOD27_P7.62mm_Horizontal (1)',
'D_DO-35_SOD27_P7.62mm_Horizontal (1)',(#1131));
#1114=PRODUCT_RELATED_PRODUCT_CATEGORY(
'D_DO-35_SOD27_P7.62mm_Horizontal (1)',
'D_DO-35_SOD27_P7.62mm_Horizontal (1)',(#1132));
#1115=PRODUCT_RELATED_PRODUCT_CATEGORY(
'D_DO-35_SOD27_P7.62mm_Horizontal (1)',
'D_DO-35_SOD27_P7.62mm_Horizontal (1)',(#1133));
#1116=PRODUCT_RELATED_PRODUCT_CATEGORY(
'D_DO-35_SOD27_P7.62mm_Horizontal (1)',
'D_DO-35_SOD27_P7.62mm_Horizontal (1)',(#1134));
#1117=PRODUCT_RELATED_PRODUCT_CATEGORY(
'D_DO-35_SOD27_P7.62mm_Horizontal (1)',
'D_DO-35_SOD27_P7.62mm_Horizontal (1)',(#1135));
#1118=PRODUCT_RELATED_PRODUCT_CATEGORY(
'D_DO-35_SOD27_P7.62mm_Horizontal (1)',
'D_DO-35_SOD27_P7.62mm_Horizontal (1)',(#1136));
#1119=PRODUCT_RELATED_PRODUCT_CATEGORY(
'D_DO-35_SOD27_P7.62mm_Horizontal (1)',
'D_DO-35_SOD27_P7.62mm_Horizontal (1)',(#1137));
#1120=PRODUCT_RELATED_PRODUCT_CATEGORY(
'D_DO-35_SOD27_P7.62mm_Horizontal (1)',
'D_DO-35_SOD27_P7.62mm_Horizontal (1)',(#1138));
#1121=PRODUCT_RELATED_PRODUCT_CATEGORY(
'D_DO-35_SOD27_P7.62mm_Horizontal (1)',
'D_DO-35_SOD27_P7.62mm_Horizontal (1)',(#1139));
#1122=PRODUCT_RELATED_PRODUCT_CATEGORY(
'D_DO-35_SOD27_P7.62mm_Horizontal','D_DO-35_SOD27_P7.62mm_Horizontal',(#1140));
#1123=PRODUCT_RELATED_PRODUCT_CATEGORY('SchB4E_PCB','SchB4E_PCB',(#1141));
#1124=APPLICATION_PROTOCOL_DEFINITION('international standard',
'automotive_design',2009,#1125);
#1125=APPLICATION_CONTEXT(
'Core Data for Automotive Mechanical Design Process');
#1126=PRODUCT_CONTEXT('part definition',#1125,'mechanical');
#1127=PRODUCT('2026-08-04-16-44-00-452','Case2.0',$,(#1126));
#1128=PRODUCT('Schaltplatte_6_Tasten 1','PCB',
'KiCad electronic assembly',(#1126));
#1129=PRODUCT('PinHeader_1x04_P2.54mm_Vertical',
'PinHeader_1x04_P2.54mm_Vertical',$,(#1126));
#1130=PRODUCT('PinHeader_1x04_P254mm_Vertical',
'PinHeader_1x04_P254mm_Vertical',$,(#1126));
#1131=PRODUCT('D_DO-35_SOD27_P7.62mm_Horizontal',
'D_DO-35_SOD27_P7.62mm_Horizontal (1)',$,(#1126));
#1132=PRODUCT('D_DO-35_SOD27_P7.62mm_Horizontal_1',
'D_DO-35_SOD27_P7.62mm_Horizontal (1)',$,(#1126));
#1133=PRODUCT('D_DO-35_SOD27_P7.62mm_Horizontal_2',
'D_DO-35_SOD27_P7.62mm_Horizontal (1)',$,(#1126));
#1134=PRODUCT('D_DO-35_SOD27_P7.62mm_Horizontal_3',
'D_DO-35_SOD27_P7.62mm_Horizontal (1)',$,(#1126));
#1135=PRODUCT('D_DO-35_SOD27_P7.62mm_Horizontal_4',
'D_DO-35_SOD27_P7.62mm_Horizontal (1)',$,(#1126));
#1136=PRODUCT('D_DO-35_SOD27_P7.62mm_Horizontal_5',
'D_DO-35_SOD27_P7.62mm_Horizontal (1)',$,(#1126));
#1137=PRODUCT('D_DO-35_SOD27_P7.62mm_Horizontal_6',
'D_DO-35_SOD27_P7.62mm_Horizontal (1)',$,(#1126));
#1138=PRODUCT('D_DO-35_SOD27_P7.62mm_Horizontal_7',
'D_DO-35_SOD27_P7.62mm_Horizontal (1)',$,(#1126));
#1139=PRODUCT('D_DO-35_SOD27_P7.62mm_Horizontal_8',
'D_DO-35_SOD27_P7.62mm_Horizontal (1)',$,(#1126));
#1140=PRODUCT('D_DO-35_SOD27_P7.62mm_Horizontal_9',
'D_DO-35_SOD27_P7.62mm_Horizontal',$,(#1126));
#1141=PRODUCT('SchB4E_PCB','SchB4E_PCB',$,(#1126));
#1142=PRESENTATION_STYLE_ASSIGNMENT((#1143));
#1143=SURFACE_STYLE_USAGE(.BOTH.,#1144);
#1144=SURFACE_SIDE_STYLE('',(#1145));
#1145=SURFACE_STYLE_FILL_AREA(#1146);
#1146=FILL_AREA_STYLE('Stahl - satiniert',(#1147));
#1147=FILL_AREA_STYLE_COLOUR('Stahl - satiniert',#1148);
#1148=COLOUR_RGB('Stahl - satiniert',0.627450980392157,0.627450980392157,
0.627450980392157);
ENDSEC;
END-ISO-10303-21;
