ISO-10303-21;
HEADER;
/* Generated by software containing ST-Developer
 * from STEP Tools, Inc. (www.steptools.com) 
 */

FILE_DESCRIPTION(
/* description */ (''),
/* implementation_level */ '2;1');

FILE_NAME(
/* name */ 'top.step',
/* time_stamp */ '2026-08-06T11:22:24+02:00',
/* author */ (''),
/* organization */ (''),
/* preprocessor_version */ 'ST-DEVELOPER v20.1',
/* originating_system */ 'Autodesk Translation Framework v15.8.0.0',
/* authorisation */ '');

FILE_SCHEMA (('AUTOMOTIVE_DESIGN { 1 0 10303 214 3 1 1 }'));
ENDSEC;

DATA;
#10=MECHANICAL_DESIGN_GEOMETRIC_PRESENTATION_REPRESENTATION('',(#21),#1889);
#11=SHAPE_REPRESENTATION_RELATIONSHIP('SRR','None',#1902,#12);
#12=ADVANCED_BREP_SHAPE_REPRESENTATION('',(#22),#1886);
#13=ITEM_DEFINED_TRANSFORMATION($,$,#1068,#1203);
#14=ITEM_DEFINED_TRANSFORMATION($,$,#1069,#1204);
#15=(
REPRESENTATION_RELATIONSHIP($,$,#1903,#1902)
REPRESENTATION_RELATIONSHIP_WITH_TRANSFORMATION(#13)
SHAPE_REPRESENTATION_RELATIONSHIP()
);
#16=(
REPRESENTATION_RELATIONSHIP($,$,#1904,#1902)
REPRESENTATION_RELATIONSHIP_WITH_TRANSFORMATION(#14)
SHAPE_REPRESENTATION_RELATIONSHIP()
);
#17=CONTEXT_DEPENDENT_SHAPE_REPRESENTATION(#15,#1900);
#18=CONTEXT_DEPENDENT_SHAPE_REPRESENTATION(#16,#1901);
#19=NEXT_ASSEMBLY_USAGE_OCCURRENCE('Komponente1:1','Komponente1:1',
'Komponente1:1',#1906,#1907,'Komponente1:1');
#20=NEXT_ASSEMBLY_USAGE_OCCURRENCE('Komponente2:1','Komponente2:1',
'Komponente2:1',#1906,#1908,'Komponente2:1');
#21=STYLED_ITEM('',(#1921),#22);
#22=MANIFOLD_SOLID_BREP('K\X\F6rper3',#1043);
#23=B_SPLINE_SURFACE_WITH_KNOTS('',3,3,((#1719,#1720,#1721,#1722,#1723),
(#1724,#1725,#1726,#1727,#1728),(#1729,#1730,#1731,#1732,#1733),(#1734,
#1735,#1736,#1737,#1738),(#1739,#1740,#1741,#1742,#1743)),.UNSPECIFIED.,
 .F.,.F.,.F.,(4,1,4),(4,1,4),(0.,0.5,1.),(6.93889390390722E-17,0.673198425769241,
1.5707963267949),.UNSPECIFIED.);
#24=TOROIDAL_SURFACE('',#1094,2.45,1.);
#25=TOROIDAL_SURFACE('',#1100,2.45,1.);
#26=TOROIDAL_SURFACE('',#1106,2.82909412097519,1.);
#27=TOROIDAL_SURFACE('',#1112,2.45,1.);
#28=TOROIDAL_SURFACE('',#1121,1.5,1.);
#29=TOROIDAL_SURFACE('',#1126,1.5,1.);
#30=TOROIDAL_SURFACE('',#1131,1.5,1.);
#31=TOROIDAL_SURFACE('',#1142,1.5,1.);
#32=TOROIDAL_SURFACE('',#1147,1.5,1.);
#33=TOROIDAL_SURFACE('',#1154,1.5,1.);
#34=TOROIDAL_SURFACE('',#1159,1.5,1.);
#35=TOROIDAL_SURFACE('',#1164,1.5,1.);
#36=TOROIDAL_SURFACE('',#1169,1.5,1.);
#37=FACE_BOUND('',#200,.T.);
#38=FACE_BOUND('',#201,.T.);
#39=FACE_BOUND('',#202,.T.);
#40=FACE_BOUND('',#203,.T.);
#41=FACE_BOUND('',#204,.T.);
#42=FACE_BOUND('',#205,.T.);
#43=FACE_BOUND('',#254,.T.);
#44=FACE_BOUND('',#255,.T.);
#45=FACE_BOUND('',#256,.T.);
#46=FACE_BOUND('',#257,.T.);
#47=FACE_BOUND('',#258,.T.);
#48=FACE_BOUND('',#259,.T.);
#49=CIRCLE('',#1081,2.45);
#50=CIRCLE('',#1082,2.82909412097519);
#51=CIRCLE('',#1083,1.5);
#52=CIRCLE('',#1084,1.5);
#53=CIRCLE('',#1085,1.5);
#54=CIRCLE('',#1086,1.5);
#55=CIRCLE('',#1087,1.5);
#56=CIRCLE('',#1088,1.5);
#57=CIRCLE('',#1089,1.5);
#58=CIRCLE('',#1090,1.5);
#59=CIRCLE('',#1091,1.5);
#60=CIRCLE('',#1092,2.45);
#61=CIRCLE('',#1093,2.45);
#62=CIRCLE('',#1095,1.);
#63=CIRCLE('',#1096,1.45);
#64=CIRCLE('',#1097,1.45);
#65=CIRCLE('',#1099,1.45);
#66=CIRCLE('',#1101,1.);
#67=CIRCLE('',#1102,1.45);
#68=CIRCLE('',#1103,1.45);
#69=CIRCLE('',#1105,1.45);
#70=CIRCLE('',#1107,1.);
#71=CIRCLE('',#1108,1.82909412097519);
#72=CIRCLE('',#1109,1.82909412097519);
#73=CIRCLE('',#1111,1.82909412097519);
#74=CIRCLE('',#1113,1.);
#75=CIRCLE('',#1114,1.45);
#76=CIRCLE('',#1115,1.45);
#77=CIRCLE('',#1117,1.45);
#78=CIRCLE('',#1119,0.999999999999999);
#79=CIRCLE('',#1120,0.999999999999996);
#80=CIRCLE('',#1122,0.999999999999979);
#81=CIRCLE('',#1123,0.5);
#82=CIRCLE('',#1125,0.999999999999996);
#83=CIRCLE('',#1127,1.00000000000001);
#84=CIRCLE('',#1128,0.5);
#85=CIRCLE('',#1130,1.);
#86=CIRCLE('',#1132,0.5);
#87=CIRCLE('',#1135,0.5);
#88=CIRCLE('',#1139,0.499999999999989);
#89=CIRCLE('',#1141,1.);
#90=CIRCLE('',#1143,1.);
#91=CIRCLE('',#1144,0.5);
#92=CIRCLE('',#1146,1.);
#93=CIRCLE('',#1148,1.);
#94=CIRCLE('',#1149,0.5);
#95=CIRCLE('',#1153,0.999999999999999);
#96=CIRCLE('',#1155,1.);
#97=CIRCLE('',#1156,0.5);
#98=CIRCLE('',#1158,1.);
#99=CIRCLE('',#1160,1.);
#100=CIRCLE('',#1161,0.5);
#101=CIRCLE('',#1163,0.999999999999999);
#102=CIRCLE('',#1165,1.);
#103=CIRCLE('',#1166,0.5);
#104=CIRCLE('',#1168,0.999999999999999);
#105=CIRCLE('',#1170,1.);
#106=CIRCLE('',#1171,0.5);
#107=CIRCLE('',#1175,0.5);
#108=CIRCLE('',#1178,0.5);
#109=CIRCLE('',#1181,0.5);
#110=CIRCLE('',#1184,0.5);
#111=CIRCLE('',#1187,0.5);
#112=CIRCLE('',#1189,0.5);
#113=CIRCLE('',#1192,0.5);
#114=CIRCLE('',#1195,0.5);
#115=CIRCLE('',#1197,0.5);
#116=PLANE('',#1078);
#117=PLANE('',#1079);
#118=PLANE('',#1080);
#119=PLANE('',#1133);
#120=PLANE('',#1136);
#121=PLANE('',#1173);
#122=PLANE('',#1176);
#123=PLANE('',#1179);
#124=PLANE('',#1182);
#125=PLANE('',#1185);
#126=PLANE('',#1190);
#127=PLANE('',#1193);
#128=PLANE('',#1196);
#129=PLANE('',#1199);
#130=PLANE('',#1200);
#131=PLANE('',#1201);
#132=PLANE('',#1202);
#133=FACE_OUTER_BOUND('',#193,.T.);
#134=FACE_OUTER_BOUND('',#194,.T.);
#135=FACE_OUTER_BOUND('',#195,.T.);
#136=FACE_OUTER_BOUND('',#196,.T.);
#137=FACE_OUTER_BOUND('',#197,.T.);
#138=FACE_OUTER_BOUND('',#198,.T.);
#139=FACE_OUTER_BOUND('',#199,.T.);
#140=FACE_OUTER_BOUND('',#206,.T.);
#141=FACE_OUTER_BOUND('',#207,.T.);
#142=FACE_OUTER_BOUND('',#208,.T.);
#143=FACE_OUTER_BOUND('',#209,.T.);
#144=FACE_OUTER_BOUND('',#210,.T.);
#145=FACE_OUTER_BOUND('',#211,.T.);
#146=FACE_OUTER_BOUND('',#212,.T.);
#147=FACE_OUTER_BOUND('',#213,.T.);
#148=FACE_OUTER_BOUND('',#214,.T.);
#149=FACE_OUTER_BOUND('',#215,.T.);
#150=FACE_OUTER_BOUND('',#216,.T.);
#151=FACE_OUTER_BOUND('',#217,.T.);
#152=FACE_OUTER_BOUND('',#218,.T.);
#153=FACE_OUTER_BOUND('',#219,.T.);
#154=FACE_OUTER_BOUND('',#220,.T.);
#155=FACE_OUTER_BOUND('',#221,.T.);
#156=FACE_OUTER_BOUND('',#222,.T.);
#157=FACE_OUTER_BOUND('',#223,.T.);
#158=FACE_OUTER_BOUND('',#224,.T.);
#159=FACE_OUTER_BOUND('',#225,.T.);
#160=FACE_OUTER_BOUND('',#226,.T.);
#161=FACE_OUTER_BOUND('',#227,.T.);
#162=FACE_OUTER_BOUND('',#228,.T.);
#163=FACE_OUTER_BOUND('',#229,.T.);
#164=FACE_OUTER_BOUND('',#230,.T.);
#165=FACE_OUTER_BOUND('',#231,.T.);
#166=FACE_OUTER_BOUND('',#232,.T.);
#167=FACE_OUTER_BOUND('',#233,.T.);
#168=FACE_OUTER_BOUND('',#234,.T.);
#169=FACE_OUTER_BOUND('',#235,.T.);
#170=FACE_OUTER_BOUND('',#236,.T.);
#171=FACE_OUTER_BOUND('',#237,.T.);
#172=FACE_OUTER_BOUND('',#238,.T.);
#173=FACE_OUTER_BOUND('',#239,.T.);
#174=FACE_OUTER_BOUND('',#240,.T.);
#175=FACE_OUTER_BOUND('',#241,.T.);
#176=FACE_OUTER_BOUND('',#242,.T.);
#177=FACE_OUTER_BOUND('',#243,.T.);
#178=FACE_OUTER_BOUND('',#244,.T.);
#179=FACE_OUTER_BOUND('',#245,.T.);
#180=FACE_OUTER_BOUND('',#246,.T.);
#181=FACE_OUTER_BOUND('',#247,.T.);
#182=FACE_OUTER_BOUND('',#248,.T.);
#183=FACE_OUTER_BOUND('',#249,.T.);
#184=FACE_OUTER_BOUND('',#250,.T.);
#185=FACE_OUTER_BOUND('',#251,.T.);
#186=FACE_OUTER_BOUND('',#252,.T.);
#187=FACE_OUTER_BOUND('',#253,.T.);
#188=FACE_OUTER_BOUND('',#260,.T.);
#189=FACE_OUTER_BOUND('',#261,.T.);
#190=FACE_OUTER_BOUND('',#262,.T.);
#191=FACE_OUTER_BOUND('',#263,.T.);
#192=FACE_OUTER_BOUND('',#264,.T.);
#193=EDGE_LOOP('',(#658,#659,#660,#661));
#194=EDGE_LOOP('',(#662,#663,#664,#665));
#195=EDGE_LOOP('',(#666,#667,#668,#669));
#196=EDGE_LOOP('',(#670,#671,#672,#673));
#197=EDGE_LOOP('',(#674,#675,#676,#677));
#198=EDGE_LOOP('',(#678,#679,#680,#681));
#199=EDGE_LOOP('',(#682,#683,#684,#685));
#200=EDGE_LOOP('',(#686));
#201=EDGE_LOOP('',(#687));
#202=EDGE_LOOP('',(#688,#689,#690,#691,#692,#693));
#203=EDGE_LOOP('',(#694,#695,#696,#697,#698,#699,#700,#701,#702,#703,#704,
#705,#706,#707));
#204=EDGE_LOOP('',(#708));
#205=EDGE_LOOP('',(#709));
#206=EDGE_LOOP('',(#710,#711,#712,#713,#714));
#207=EDGE_LOOP('',(#715,#716,#717,#718,#719));
#208=EDGE_LOOP('',(#720,#721,#722,#723,#724));
#209=EDGE_LOOP('',(#725,#726,#727,#728,#729));
#210=EDGE_LOOP('',(#730,#731,#732,#733,#734));
#211=EDGE_LOOP('',(#735,#736,#737,#738,#739));
#212=EDGE_LOOP('',(#740,#741,#742,#743,#744));
#213=EDGE_LOOP('',(#745,#746,#747,#748,#749));
#214=EDGE_LOOP('',(#750,#751,#752,#753));
#215=EDGE_LOOP('',(#754,#755,#756,#757));
#216=EDGE_LOOP('',(#758,#759,#760,#761));
#217=EDGE_LOOP('',(#762,#763,#764,#765));
#218=EDGE_LOOP('',(#766,#767,#768,#769));
#219=EDGE_LOOP('',(#770,#771,#772,#773));
#220=EDGE_LOOP('',(#774,#775,#776,#777));
#221=EDGE_LOOP('',(#778,#779,#780,#781));
#222=EDGE_LOOP('',(#782,#783,#784,#785));
#223=EDGE_LOOP('',(#786,#787,#788));
#224=EDGE_LOOP('',(#789,#790,#791,#792));
#225=EDGE_LOOP('',(#793,#794,#795,#796));
#226=EDGE_LOOP('',(#797,#798,#799,#800));
#227=EDGE_LOOP('',(#801,#802,#803,#804));
#228=EDGE_LOOP('',(#805,#806,#807,#808));
#229=EDGE_LOOP('',(#809,#810,#811,#812));
#230=EDGE_LOOP('',(#813,#814,#815,#816));
#231=EDGE_LOOP('',(#817,#818,#819,#820));
#232=EDGE_LOOP('',(#821,#822,#823,#824));
#233=EDGE_LOOP('',(#825,#826,#827,#828));
#234=EDGE_LOOP('',(#829,#830,#831,#832));
#235=EDGE_LOOP('',(#833,#834,#835,#836));
#236=EDGE_LOOP('',(#837,#838,#839,#840));
#237=EDGE_LOOP('',(#841,#842,#843,#844));
#238=EDGE_LOOP('',(#845,#846,#847,#848));
#239=EDGE_LOOP('',(#849,#850,#851,#852));
#240=EDGE_LOOP('',(#853,#854,#855,#856));
#241=EDGE_LOOP('',(#857,#858,#859,#860));
#242=EDGE_LOOP('',(#861,#862,#863,#864));
#243=EDGE_LOOP('',(#865,#866,#867,#868));
#244=EDGE_LOOP('',(#869,#870,#871,#872));
#245=EDGE_LOOP('',(#873,#874,#875,#876));
#246=EDGE_LOOP('',(#877,#878,#879,#880));
#247=EDGE_LOOP('',(#881,#882,#883,#884));
#248=EDGE_LOOP('',(#885,#886,#887,#888));
#249=EDGE_LOOP('',(#889,#890,#891,#892));
#250=EDGE_LOOP('',(#893,#894,#895,#896));
#251=EDGE_LOOP('',(#897,#898,#899,#900));
#252=EDGE_LOOP('',(#901,#902,#903,#904));
#253=EDGE_LOOP('',(#905,#906,#907,#908));
#254=EDGE_LOOP('',(#909));
#255=EDGE_LOOP('',(#910));
#256=EDGE_LOOP('',(#911));
#257=EDGE_LOOP('',(#912));
#258=EDGE_LOOP('',(#913,#914,#915,#916,#917,#918));
#259=EDGE_LOOP('',(#919,#920,#921,#922,#923,#924,#925,#926,#927,#928,#929,
#930,#931,#932,#933));
#260=EDGE_LOOP('',(#934,#935,#936,#937));
#261=EDGE_LOOP('',(#938,#939,#940,#941));
#262=EDGE_LOOP('',(#942,#943,#944,#945));
#263=EDGE_LOOP('',(#946,#947,#948,#949));
#264=EDGE_LOOP('',(#950,#951,#952,#953));
#265=ELLIPSE('',#1071,1.41421356237308,1.);
#266=ELLIPSE('',#1072,1.41421356237309,1.);
#267=ELLIPSE('',#1074,1.4142135623731,1.);
#268=ELLIPSE('',#1076,1.41421356237309,1.);
#269=ELLIPSE('',#1137,1.1180339887499,1.);
#270=ELLIPSE('',#1138,1.1180339887499,1.);
#271=ELLIPSE('',#1151,1.41421356237308,1.);
#272=LINE('',#1561,#346);
#273=LINE('',#1565,#347);
#274=LINE('',#1569,#348);
#275=LINE('',#1572,#349);
#276=LINE('',#1575,#350);
#277=LINE('',#1578,#351);
#278=LINE('',#1580,#352);
#279=LINE('',#1581,#353);
#280=LINE('',#1584,#354);
#281=LINE('',#1586,#355);
#282=LINE('',#1587,#356);
#283=LINE('',#1590,#357);
#284=LINE('',#1591,#358);
#285=LINE('',#1599,#359);
#286=LINE('',#1603,#360);
#287=LINE('',#1607,#361);
#288=LINE('',#1611,#362);
#289=LINE('',#1615,#363);
#290=LINE('',#1619,#364);
#291=LINE('',#1621,#365);
#292=LINE('',#1625,#366);
#293=LINE('',#1629,#367);
#294=LINE('',#1633,#368);
#295=LINE('',#1636,#369);
#296=LINE('',#1650,#370);
#297=LINE('',#1659,#371);
#298=LINE('',#1669,#372);
#299=LINE('',#1679,#373);
#300=LINE('',#1685,#374);
#301=LINE('',#1694,#375);
#302=LINE('',#1702,#376);
#303=LINE('',#1707,#377);
#304=LINE('',#1709,#378);
#305=LINE('',#1710,#379);
#306=LINE('',#1713,#380);
#307=LINE('',#1717,#381);
#308=LINE('',#1718,#382);
#309=LINE('',#1752,#383);
#310=LINE('',#1760,#384);
#311=LINE('',#1767,#385);
#312=LINE('',#1772,#386);
#313=LINE('',#1780,#387);
#314=LINE('',#1788,#388);
#315=LINE('',#1796,#389);
#316=LINE('',#1802,#390);
#317=LINE('',#1805,#391);
#318=LINE('',#1807,#392);
#319=LINE('',#1808,#393);
#320=LINE('',#1811,#394);
#321=LINE('',#1815,#395);
#322=LINE('',#1816,#396);
#323=LINE('',#1819,#397);
#324=LINE('',#1823,#398);
#325=LINE('',#1824,#399);
#326=LINE('',#1827,#400);
#327=LINE('',#1831,#401);
#328=LINE('',#1832,#402);
#329=LINE('',#1836,#403);
#330=LINE('',#1839,#404);
#331=LINE('',#1840,#405);
#332=LINE('',#1845,#406);
#333=LINE('',#1848,#407);
#334=LINE('',#1851,#408);
#335=LINE('',#1852,#409);
#336=LINE('',#1855,#410);
#337=LINE('',#1858,#411);
#338=LINE('',#1861,#412);
#339=LINE('',#1862,#413);
#340=LINE('',#1867,#414);
#341=LINE('',#1868,#415);
#342=LINE('',#1870,#416);
#343=LINE('',#1872,#417);
#344=LINE('',#1874,#418);
#345=LINE('',#1878,#419);
#346=VECTOR('',#1213,10.);
#347=VECTOR('',#1216,10.);
#348=VECTOR('',#1221,10.);
#349=VECTOR('',#1224,10.);
#350=VECTOR('',#1227,10.);
#351=VECTOR('',#1230,10.);
#352=VECTOR('',#1233,10.);
#353=VECTOR('',#1234,10.);
#354=VECTOR('',#1237,10.);
#355=VECTOR('',#1238,10.);
#356=VECTOR('',#1239,10.);
#357=VECTOR('',#1242,10.);
#358=VECTOR('',#1243,10.);
#359=VECTOR('',#1250,10.);
#360=VECTOR('',#1253,10.);
#361=VECTOR('',#1256,10.);
#362=VECTOR('',#1259,10.);
#363=VECTOR('',#1262,10.);
#364=VECTOR('',#1265,10.);
#365=VECTOR('',#1266,10.);
#366=VECTOR('',#1269,10.);
#367=VECTOR('',#1272,10.);
#368=VECTOR('',#1275,10.);
#369=VECTOR('',#1278,10.);
#370=VECTOR('',#1295,1.45);
#371=VECTOR('',#1306,1.45);
#372=VECTOR('',#1319,1.82909412097519);
#373=VECTOR('',#1332,1.45);
#374=VECTOR('',#1339,10.);
#375=VECTOR('',#1352,10.);
#376=VECTOR('',#1363,10.);
#377=VECTOR('',#1370,10.);
#378=VECTOR('',#1371,10.);
#379=VECTOR('',#1372,10.);
#380=VECTOR('',#1375,10.);
#381=VECTOR('',#1380,10.);
#382=VECTOR('',#1381,10.);
#383=VECTOR('',#1392,10.);
#384=VECTOR('',#1403,10.);
#385=VECTOR('',#1412,10.);
#386=VECTOR('',#1419,10.);
#387=VECTOR('',#1430,10.);
#388=VECTOR('',#1441,10.);
#389=VECTOR('',#1452,10.);
#390=VECTOR('',#1461,10.);
#391=VECTOR('',#1464,10.);
#392=VECTOR('',#1465,10.);
#393=VECTOR('',#1466,10.);
#394=VECTOR('',#1469,10.);
#395=VECTOR('',#1474,10.);
#396=VECTOR('',#1475,10.);
#397=VECTOR('',#1478,10.);
#398=VECTOR('',#1483,10.);
#399=VECTOR('',#1484,10.);
#400=VECTOR('',#1487,10.);
#401=VECTOR('',#1492,10.);
#402=VECTOR('',#1493,10.);
#403=VECTOR('',#1498,10.);
#404=VECTOR('',#1501,10.);
#405=VECTOR('',#1502,10.);
#406=VECTOR('',#1509,10.);
#407=VECTOR('',#1512,10.);
#408=VECTOR('',#1515,10.);
#409=VECTOR('',#1516,10.);
#410=VECTOR('',#1519,10.);
#411=VECTOR('',#1522,10.);
#412=VECTOR('',#1525,10.);
#413=VECTOR('',#1526,10.);
#414=VECTOR('',#1533,10.);
#415=VECTOR('',#1534,10.);
#416=VECTOR('',#1535,10.);
#417=VECTOR('',#1538,10.);
#418=VECTOR('',#1541,10.);
#419=VECTOR('',#1548,10.);
#420=VERTEX_POINT('',#1559);
#421=VERTEX_POINT('',#1560);
#422=VERTEX_POINT('',#1562);
#423=VERTEX_POINT('',#1564);
#424=VERTEX_POINT('',#1568);
#425=VERTEX_POINT('',#1570);
#426=VERTEX_POINT('',#1574);
#427=VERTEX_POINT('',#1576);
#428=VERTEX_POINT('',#1583);
#429=VERTEX_POINT('',#1585);
#430=VERTEX_POINT('',#1589);
#431=VERTEX_POINT('',#1593);
#432=VERTEX_POINT('',#1595);
#433=VERTEX_POINT('',#1597);
#434=VERTEX_POINT('',#1598);
#435=VERTEX_POINT('',#1600);
#436=VERTEX_POINT('',#1602);
#437=VERTEX_POINT('',#1604);
#438=VERTEX_POINT('',#1606);
#439=VERTEX_POINT('',#1609);
#440=VERTEX_POINT('',#1610);
#441=VERTEX_POINT('',#1612);
#442=VERTEX_POINT('',#1614);
#443=VERTEX_POINT('',#1616);
#444=VERTEX_POINT('',#1618);
#445=VERTEX_POINT('',#1620);
#446=VERTEX_POINT('',#1622);
#447=VERTEX_POINT('',#1624);
#448=VERTEX_POINT('',#1626);
#449=VERTEX_POINT('',#1628);
#450=VERTEX_POINT('',#1630);
#451=VERTEX_POINT('',#1632);
#452=VERTEX_POINT('',#1634);
#453=VERTEX_POINT('',#1637);
#454=VERTEX_POINT('',#1639);
#455=VERTEX_POINT('',#1642);
#456=VERTEX_POINT('',#1644);
#457=VERTEX_POINT('',#1648);
#458=VERTEX_POINT('',#1652);
#459=VERTEX_POINT('',#1654);
#460=VERTEX_POINT('',#1658);
#461=VERTEX_POINT('',#1662);
#462=VERTEX_POINT('',#1664);
#463=VERTEX_POINT('',#1668);
#464=VERTEX_POINT('',#1672);
#465=VERTEX_POINT('',#1674);
#466=VERTEX_POINT('',#1678);
#467=VERTEX_POINT('',#1682);
#468=VERTEX_POINT('',#1684);
#469=VERTEX_POINT('',#1688);
#470=VERTEX_POINT('',#1692);
#471=VERTEX_POINT('',#1696);
#472=VERTEX_POINT('',#1700);
#473=VERTEX_POINT('',#1706);
#474=VERTEX_POINT('',#1708);
#475=VERTEX_POINT('',#1712);
#476=VERTEX_POINT('',#1716);
#477=VERTEX_POINT('',#1744);
#478=VERTEX_POINT('',#1746);
#479=VERTEX_POINT('',#1750);
#480=VERTEX_POINT('',#1754);
#481=VERTEX_POINT('',#1758);
#482=VERTEX_POINT('',#1762);
#483=VERTEX_POINT('',#1766);
#484=VERTEX_POINT('',#1770);
#485=VERTEX_POINT('',#1774);
#486=VERTEX_POINT('',#1778);
#487=VERTEX_POINT('',#1782);
#488=VERTEX_POINT('',#1786);
#489=VERTEX_POINT('',#1790);
#490=VERTEX_POINT('',#1794);
#491=VERTEX_POINT('',#1798);
#492=VERTEX_POINT('',#1804);
#493=VERTEX_POINT('',#1806);
#494=VERTEX_POINT('',#1810);
#495=VERTEX_POINT('',#1814);
#496=VERTEX_POINT('',#1818);
#497=VERTEX_POINT('',#1822);
#498=VERTEX_POINT('',#1826);
#499=VERTEX_POINT('',#1830);
#500=VERTEX_POINT('',#1834);
#501=VERTEX_POINT('',#1838);
#502=VERTEX_POINT('',#1844);
#503=VERTEX_POINT('',#1846);
#504=VERTEX_POINT('',#1850);
#505=VERTEX_POINT('',#1854);
#506=VERTEX_POINT('',#1856);
#507=VERTEX_POINT('',#1860);
#508=VERTEX_POINT('',#1866);
#509=VERTEX_POINT('',#1869);
#510=EDGE_CURVE('',#420,#421,#272,.T.);
#511=EDGE_CURVE('',#421,#422,#265,.T.);
#512=EDGE_CURVE('',#422,#423,#273,.T.);
#513=EDGE_CURVE('',#420,#423,#266,.T.);
#514=EDGE_CURVE('',#421,#424,#274,.T.);
#515=EDGE_CURVE('',#424,#425,#267,.T.);
#516=EDGE_CURVE('',#425,#422,#275,.T.);
#517=EDGE_CURVE('',#424,#426,#276,.T.);
#518=EDGE_CURVE('',#426,#427,#268,.T.);
#519=EDGE_CURVE('',#427,#425,#277,.T.);
#520=EDGE_CURVE('',#423,#427,#278,.T.);
#521=EDGE_CURVE('',#426,#420,#279,.T.);
#522=EDGE_CURVE('',#428,#423,#280,.T.);
#523=EDGE_CURVE('',#429,#428,#281,.T.);
#524=EDGE_CURVE('',#429,#427,#282,.T.);
#525=EDGE_CURVE('',#430,#422,#283,.T.);
#526=EDGE_CURVE('',#428,#430,#284,.T.);
#527=EDGE_CURVE('',#431,#431,#49,.T.);
#528=EDGE_CURVE('',#432,#432,#50,.T.);
#529=EDGE_CURVE('',#433,#434,#285,.T.);
#530=EDGE_CURVE('',#435,#433,#51,.T.);
#531=EDGE_CURVE('',#436,#435,#286,.T.);
#532=EDGE_CURVE('',#437,#436,#52,.T.);
#533=EDGE_CURVE('',#438,#437,#287,.T.);
#534=EDGE_CURVE('',#434,#438,#53,.T.);
#535=EDGE_CURVE('',#439,#440,#288,.T.);
#536=EDGE_CURVE('',#441,#439,#54,.T.);
#537=EDGE_CURVE('',#442,#441,#289,.T.);
#538=EDGE_CURVE('',#443,#442,#55,.T.);
#539=EDGE_CURVE('',#444,#443,#290,.T.);
#540=EDGE_CURVE('',#445,#444,#291,.T.);
#541=EDGE_CURVE('',#446,#445,#56,.T.);
#542=EDGE_CURVE('',#447,#446,#292,.T.);
#543=EDGE_CURVE('',#448,#447,#57,.T.);
#544=EDGE_CURVE('',#449,#448,#293,.T.);
#545=EDGE_CURVE('',#450,#449,#58,.T.);
#546=EDGE_CURVE('',#451,#450,#294,.T.);
#547=EDGE_CURVE('',#452,#451,#59,.T.);
#548=EDGE_CURVE('',#440,#452,#295,.T.);
#549=EDGE_CURVE('',#453,#453,#60,.T.);
#550=EDGE_CURVE('',#454,#454,#61,.T.);
#551=EDGE_CURVE('',#431,#455,#62,.T.);
#552=EDGE_CURVE('',#455,#456,#63,.T.);
#553=EDGE_CURVE('',#456,#455,#64,.T.);
#554=EDGE_CURVE('',#457,#457,#65,.T.);
#555=EDGE_CURVE('',#457,#456,#296,.T.);
#556=EDGE_CURVE('',#454,#458,#66,.T.);
#557=EDGE_CURVE('',#458,#459,#67,.T.);
#558=EDGE_CURVE('',#459,#458,#68,.T.);
#559=EDGE_CURVE('',#459,#460,#297,.T.);
#560=EDGE_CURVE('',#460,#460,#69,.T.);
#561=EDGE_CURVE('',#432,#461,#70,.T.);
#562=EDGE_CURVE('',#461,#462,#71,.T.);
#563=EDGE_CURVE('',#462,#461,#72,.T.);
#564=EDGE_CURVE('',#462,#463,#298,.T.);
#565=EDGE_CURVE('',#463,#463,#73,.T.);
#566=EDGE_CURVE('',#453,#464,#74,.T.);
#567=EDGE_CURVE('',#464,#465,#75,.T.);
#568=EDGE_CURVE('',#465,#464,#76,.T.);
#569=EDGE_CURVE('',#465,#466,#299,.T.);
#570=EDGE_CURVE('',#466,#466,#77,.T.);
#571=EDGE_CURVE('',#434,#467,#78,.T.);
#572=EDGE_CURVE('',#467,#468,#300,.T.);
#573=EDGE_CURVE('',#468,#433,#79,.T.);
#574=EDGE_CURVE('',#469,#435,#80,.T.);
#575=EDGE_CURVE('',#468,#469,#81,.T.);
#576=EDGE_CURVE('',#470,#436,#82,.T.);
#577=EDGE_CURVE('',#469,#470,#301,.T.);
#578=EDGE_CURVE('',#471,#437,#83,.T.);
#579=EDGE_CURVE('',#470,#471,#84,.T.);
#580=EDGE_CURVE('',#472,#438,#85,.T.);
#581=EDGE_CURVE('',#471,#472,#302,.T.);
#582=EDGE_CURVE('',#472,#467,#86,.T.);
#583=EDGE_CURVE('',#473,#469,#303,.T.);
#584=EDGE_CURVE('',#474,#473,#304,.T.);
#585=EDGE_CURVE('',#470,#474,#305,.T.);
#586=EDGE_CURVE('',#468,#475,#306,.T.);
#587=EDGE_CURVE('',#475,#473,#87,.T.);
#588=EDGE_CURVE('',#476,#467,#307,.T.);
#589=EDGE_CURVE('',#475,#476,#308,.T.);
#590=EDGE_CURVE('',#477,#444,#269,.T.);
#591=EDGE_CURVE('',#444,#478,#270,.T.);
#592=EDGE_CURVE('',#478,#477,#88,.T.);
#593=EDGE_CURVE('',#443,#479,#89,.T.);
#594=EDGE_CURVE('',#479,#478,#309,.T.);
#595=EDGE_CURVE('',#442,#480,#90,.T.);
#596=EDGE_CURVE('',#480,#479,#91,.T.);
#597=EDGE_CURVE('',#441,#481,#92,.T.);
#598=EDGE_CURVE('',#481,#480,#310,.T.);
#599=EDGE_CURVE('',#439,#482,#93,.T.);
#600=EDGE_CURVE('',#482,#481,#94,.T.);
#601=EDGE_CURVE('',#483,#482,#311,.T.);
#602=EDGE_CURVE('',#440,#483,#271,.T.);
#603=EDGE_CURVE('',#452,#484,#95,.T.);
#604=EDGE_CURVE('',#484,#483,#312,.T.);
#605=EDGE_CURVE('',#451,#485,#96,.T.);
#606=EDGE_CURVE('',#485,#484,#97,.T.);
#607=EDGE_CURVE('',#450,#486,#98,.T.);
#608=EDGE_CURVE('',#486,#485,#313,.T.);
#609=EDGE_CURVE('',#449,#487,#99,.T.);
#610=EDGE_CURVE('',#487,#486,#100,.T.);
#611=EDGE_CURVE('',#448,#488,#101,.T.);
#612=EDGE_CURVE('',#488,#487,#314,.T.);
#613=EDGE_CURVE('',#447,#489,#102,.T.);
#614=EDGE_CURVE('',#489,#488,#103,.T.);
#615=EDGE_CURVE('',#446,#490,#104,.T.);
#616=EDGE_CURVE('',#490,#489,#315,.T.);
#617=EDGE_CURVE('',#445,#491,#105,.T.);
#618=EDGE_CURVE('',#491,#490,#106,.T.);
#619=EDGE_CURVE('',#477,#491,#316,.T.);
#620=EDGE_CURVE('',#492,#477,#317,.T.);
#621=EDGE_CURVE('',#492,#493,#318,.T.);
#622=EDGE_CURVE('',#491,#493,#319,.T.);
#623=EDGE_CURVE('',#478,#494,#320,.T.);
#624=EDGE_CURVE('',#494,#492,#107,.T.);
#625=EDGE_CURVE('',#495,#479,#321,.T.);
#626=EDGE_CURVE('',#494,#495,#322,.T.);
#627=EDGE_CURVE('',#480,#496,#323,.T.);
#628=EDGE_CURVE('',#496,#495,#108,.T.);
#629=EDGE_CURVE('',#497,#481,#324,.T.);
#630=EDGE_CURVE('',#496,#497,#325,.T.);
#631=EDGE_CURVE('',#482,#498,#326,.T.);
#632=EDGE_CURVE('',#498,#497,#109,.T.);
#633=EDGE_CURVE('',#499,#483,#327,.T.);
#634=EDGE_CURVE('',#498,#499,#328,.T.);
#635=EDGE_CURVE('',#474,#500,#110,.T.);
#636=EDGE_CURVE('',#500,#471,#329,.T.);
#637=EDGE_CURVE('',#501,#500,#330,.T.);
#638=EDGE_CURVE('',#472,#501,#331,.T.);
#639=EDGE_CURVE('',#501,#476,#111,.T.);
#640=EDGE_CURVE('',#487,#502,#332,.T.);
#641=EDGE_CURVE('',#502,#503,#112,.T.);
#642=EDGE_CURVE('',#503,#486,#333,.T.);
#643=EDGE_CURVE('',#504,#503,#334,.T.);
#644=EDGE_CURVE('',#485,#504,#335,.T.);
#645=EDGE_CURVE('',#489,#505,#336,.T.);
#646=EDGE_CURVE('',#505,#506,#113,.T.);
#647=EDGE_CURVE('',#506,#488,#337,.T.);
#648=EDGE_CURVE('',#507,#490,#338,.T.);
#649=EDGE_CURVE('',#505,#507,#339,.T.);
#650=EDGE_CURVE('',#493,#507,#114,.T.);
#651=EDGE_CURVE('',#508,#429,#340,.T.);
#652=EDGE_CURVE('',#430,#508,#341,.T.);
#653=EDGE_CURVE('',#499,#509,#342,.T.);
#654=EDGE_CURVE('',#504,#509,#115,.T.);
#655=EDGE_CURVE('',#502,#506,#343,.T.);
#656=EDGE_CURVE('',#509,#484,#344,.T.);
#657=EDGE_CURVE('',#508,#425,#345,.T.);
#658=ORIENTED_EDGE('',*,*,#510,.T.);
#659=ORIENTED_EDGE('',*,*,#511,.T.);
#660=ORIENTED_EDGE('',*,*,#512,.T.);
#661=ORIENTED_EDGE('',*,*,#513,.F.);
#662=ORIENTED_EDGE('',*,*,#514,.T.);
#663=ORIENTED_EDGE('',*,*,#515,.T.);
#664=ORIENTED_EDGE('',*,*,#516,.T.);
#665=ORIENTED_EDGE('',*,*,#511,.F.);
#666=ORIENTED_EDGE('',*,*,#517,.T.);
#667=ORIENTED_EDGE('',*,*,#518,.T.);
#668=ORIENTED_EDGE('',*,*,#519,.T.);
#669=ORIENTED_EDGE('',*,*,#515,.F.);
#670=ORIENTED_EDGE('',*,*,#520,.T.);
#671=ORIENTED_EDGE('',*,*,#518,.F.);
#672=ORIENTED_EDGE('',*,*,#521,.T.);
#673=ORIENTED_EDGE('',*,*,#513,.T.);
#674=ORIENTED_EDGE('',*,*,#520,.F.);
#675=ORIENTED_EDGE('',*,*,#522,.F.);
#676=ORIENTED_EDGE('',*,*,#523,.F.);
#677=ORIENTED_EDGE('',*,*,#524,.T.);
#678=ORIENTED_EDGE('',*,*,#512,.F.);
#679=ORIENTED_EDGE('',*,*,#525,.F.);
#680=ORIENTED_EDGE('',*,*,#526,.F.);
#681=ORIENTED_EDGE('',*,*,#522,.T.);
#682=ORIENTED_EDGE('',*,*,#510,.F.);
#683=ORIENTED_EDGE('',*,*,#521,.F.);
#684=ORIENTED_EDGE('',*,*,#517,.F.);
#685=ORIENTED_EDGE('',*,*,#514,.F.);
#686=ORIENTED_EDGE('',*,*,#527,.F.);
#687=ORIENTED_EDGE('',*,*,#528,.F.);
#688=ORIENTED_EDGE('',*,*,#529,.F.);
#689=ORIENTED_EDGE('',*,*,#530,.F.);
#690=ORIENTED_EDGE('',*,*,#531,.F.);
#691=ORIENTED_EDGE('',*,*,#532,.F.);
#692=ORIENTED_EDGE('',*,*,#533,.F.);
#693=ORIENTED_EDGE('',*,*,#534,.F.);
#694=ORIENTED_EDGE('',*,*,#535,.F.);
#695=ORIENTED_EDGE('',*,*,#536,.F.);
#696=ORIENTED_EDGE('',*,*,#537,.F.);
#697=ORIENTED_EDGE('',*,*,#538,.F.);
#698=ORIENTED_EDGE('',*,*,#539,.F.);
#699=ORIENTED_EDGE('',*,*,#540,.F.);
#700=ORIENTED_EDGE('',*,*,#541,.F.);
#701=ORIENTED_EDGE('',*,*,#542,.F.);
#702=ORIENTED_EDGE('',*,*,#543,.F.);
#703=ORIENTED_EDGE('',*,*,#544,.F.);
#704=ORIENTED_EDGE('',*,*,#545,.F.);
#705=ORIENTED_EDGE('',*,*,#546,.F.);
#706=ORIENTED_EDGE('',*,*,#547,.F.);
#707=ORIENTED_EDGE('',*,*,#548,.F.);
#708=ORIENTED_EDGE('',*,*,#549,.F.);
#709=ORIENTED_EDGE('',*,*,#550,.F.);
#710=ORIENTED_EDGE('',*,*,#527,.T.);
#711=ORIENTED_EDGE('',*,*,#551,.T.);
#712=ORIENTED_EDGE('',*,*,#552,.T.);
#713=ORIENTED_EDGE('',*,*,#553,.T.);
#714=ORIENTED_EDGE('',*,*,#551,.F.);
#715=ORIENTED_EDGE('',*,*,#554,.F.);
#716=ORIENTED_EDGE('',*,*,#555,.T.);
#717=ORIENTED_EDGE('',*,*,#552,.F.);
#718=ORIENTED_EDGE('',*,*,#553,.F.);
#719=ORIENTED_EDGE('',*,*,#555,.F.);
#720=ORIENTED_EDGE('',*,*,#550,.T.);
#721=ORIENTED_EDGE('',*,*,#556,.T.);
#722=ORIENTED_EDGE('',*,*,#557,.T.);
#723=ORIENTED_EDGE('',*,*,#558,.T.);
#724=ORIENTED_EDGE('',*,*,#556,.F.);
#725=ORIENTED_EDGE('',*,*,#558,.F.);
#726=ORIENTED_EDGE('',*,*,#559,.T.);
#727=ORIENTED_EDGE('',*,*,#560,.F.);
#728=ORIENTED_EDGE('',*,*,#559,.F.);
#729=ORIENTED_EDGE('',*,*,#557,.F.);
#730=ORIENTED_EDGE('',*,*,#528,.T.);
#731=ORIENTED_EDGE('',*,*,#561,.T.);
#732=ORIENTED_EDGE('',*,*,#562,.T.);
#733=ORIENTED_EDGE('',*,*,#563,.T.);
#734=ORIENTED_EDGE('',*,*,#561,.F.);
#735=ORIENTED_EDGE('',*,*,#563,.F.);
#736=ORIENTED_EDGE('',*,*,#564,.T.);
#737=ORIENTED_EDGE('',*,*,#565,.F.);
#738=ORIENTED_EDGE('',*,*,#564,.F.);
#739=ORIENTED_EDGE('',*,*,#562,.F.);
#740=ORIENTED_EDGE('',*,*,#549,.T.);
#741=ORIENTED_EDGE('',*,*,#566,.T.);
#742=ORIENTED_EDGE('',*,*,#567,.T.);
#743=ORIENTED_EDGE('',*,*,#568,.T.);
#744=ORIENTED_EDGE('',*,*,#566,.F.);
#745=ORIENTED_EDGE('',*,*,#568,.F.);
#746=ORIENTED_EDGE('',*,*,#569,.T.);
#747=ORIENTED_EDGE('',*,*,#570,.F.);
#748=ORIENTED_EDGE('',*,*,#569,.F.);
#749=ORIENTED_EDGE('',*,*,#567,.F.);
#750=ORIENTED_EDGE('',*,*,#571,.T.);
#751=ORIENTED_EDGE('',*,*,#572,.T.);
#752=ORIENTED_EDGE('',*,*,#573,.T.);
#753=ORIENTED_EDGE('',*,*,#529,.T.);
#754=ORIENTED_EDGE('',*,*,#574,.T.);
#755=ORIENTED_EDGE('',*,*,#530,.T.);
#756=ORIENTED_EDGE('',*,*,#573,.F.);
#757=ORIENTED_EDGE('',*,*,#575,.T.);
#758=ORIENTED_EDGE('',*,*,#576,.T.);
#759=ORIENTED_EDGE('',*,*,#531,.T.);
#760=ORIENTED_EDGE('',*,*,#574,.F.);
#761=ORIENTED_EDGE('',*,*,#577,.T.);
#762=ORIENTED_EDGE('',*,*,#578,.T.);
#763=ORIENTED_EDGE('',*,*,#532,.T.);
#764=ORIENTED_EDGE('',*,*,#576,.F.);
#765=ORIENTED_EDGE('',*,*,#579,.T.);
#766=ORIENTED_EDGE('',*,*,#580,.T.);
#767=ORIENTED_EDGE('',*,*,#533,.T.);
#768=ORIENTED_EDGE('',*,*,#578,.F.);
#769=ORIENTED_EDGE('',*,*,#581,.T.);
#770=ORIENTED_EDGE('',*,*,#580,.F.);
#771=ORIENTED_EDGE('',*,*,#582,.T.);
#772=ORIENTED_EDGE('',*,*,#571,.F.);
#773=ORIENTED_EDGE('',*,*,#534,.T.);
#774=ORIENTED_EDGE('',*,*,#577,.F.);
#775=ORIENTED_EDGE('',*,*,#583,.F.);
#776=ORIENTED_EDGE('',*,*,#584,.F.);
#777=ORIENTED_EDGE('',*,*,#585,.F.);
#778=ORIENTED_EDGE('',*,*,#575,.F.);
#779=ORIENTED_EDGE('',*,*,#586,.T.);
#780=ORIENTED_EDGE('',*,*,#587,.T.);
#781=ORIENTED_EDGE('',*,*,#583,.T.);
#782=ORIENTED_EDGE('',*,*,#572,.F.);
#783=ORIENTED_EDGE('',*,*,#588,.F.);
#784=ORIENTED_EDGE('',*,*,#589,.F.);
#785=ORIENTED_EDGE('',*,*,#586,.F.);
#786=ORIENTED_EDGE('',*,*,#590,.T.);
#787=ORIENTED_EDGE('',*,*,#591,.T.);
#788=ORIENTED_EDGE('',*,*,#592,.T.);
#789=ORIENTED_EDGE('',*,*,#591,.F.);
#790=ORIENTED_EDGE('',*,*,#539,.T.);
#791=ORIENTED_EDGE('',*,*,#593,.T.);
#792=ORIENTED_EDGE('',*,*,#594,.T.);
#793=ORIENTED_EDGE('',*,*,#595,.T.);
#794=ORIENTED_EDGE('',*,*,#596,.T.);
#795=ORIENTED_EDGE('',*,*,#593,.F.);
#796=ORIENTED_EDGE('',*,*,#538,.T.);
#797=ORIENTED_EDGE('',*,*,#597,.T.);
#798=ORIENTED_EDGE('',*,*,#598,.T.);
#799=ORIENTED_EDGE('',*,*,#595,.F.);
#800=ORIENTED_EDGE('',*,*,#537,.T.);
#801=ORIENTED_EDGE('',*,*,#599,.T.);
#802=ORIENTED_EDGE('',*,*,#600,.T.);
#803=ORIENTED_EDGE('',*,*,#597,.F.);
#804=ORIENTED_EDGE('',*,*,#536,.T.);
#805=ORIENTED_EDGE('',*,*,#601,.T.);
#806=ORIENTED_EDGE('',*,*,#599,.F.);
#807=ORIENTED_EDGE('',*,*,#535,.T.);
#808=ORIENTED_EDGE('',*,*,#602,.T.);
#809=ORIENTED_EDGE('',*,*,#548,.T.);
#810=ORIENTED_EDGE('',*,*,#603,.T.);
#811=ORIENTED_EDGE('',*,*,#604,.T.);
#812=ORIENTED_EDGE('',*,*,#602,.F.);
#813=ORIENTED_EDGE('',*,*,#605,.T.);
#814=ORIENTED_EDGE('',*,*,#606,.T.);
#815=ORIENTED_EDGE('',*,*,#603,.F.);
#816=ORIENTED_EDGE('',*,*,#547,.T.);
#817=ORIENTED_EDGE('',*,*,#607,.T.);
#818=ORIENTED_EDGE('',*,*,#608,.T.);
#819=ORIENTED_EDGE('',*,*,#605,.F.);
#820=ORIENTED_EDGE('',*,*,#546,.T.);
#821=ORIENTED_EDGE('',*,*,#609,.T.);
#822=ORIENTED_EDGE('',*,*,#610,.T.);
#823=ORIENTED_EDGE('',*,*,#607,.F.);
#824=ORIENTED_EDGE('',*,*,#545,.T.);
#825=ORIENTED_EDGE('',*,*,#611,.T.);
#826=ORIENTED_EDGE('',*,*,#612,.T.);
#827=ORIENTED_EDGE('',*,*,#609,.F.);
#828=ORIENTED_EDGE('',*,*,#544,.T.);
#829=ORIENTED_EDGE('',*,*,#613,.T.);
#830=ORIENTED_EDGE('',*,*,#614,.T.);
#831=ORIENTED_EDGE('',*,*,#611,.F.);
#832=ORIENTED_EDGE('',*,*,#543,.T.);
#833=ORIENTED_EDGE('',*,*,#615,.T.);
#834=ORIENTED_EDGE('',*,*,#616,.T.);
#835=ORIENTED_EDGE('',*,*,#613,.F.);
#836=ORIENTED_EDGE('',*,*,#542,.T.);
#837=ORIENTED_EDGE('',*,*,#617,.T.);
#838=ORIENTED_EDGE('',*,*,#618,.T.);
#839=ORIENTED_EDGE('',*,*,#615,.F.);
#840=ORIENTED_EDGE('',*,*,#541,.T.);
#841=ORIENTED_EDGE('',*,*,#590,.F.);
#842=ORIENTED_EDGE('',*,*,#619,.T.);
#843=ORIENTED_EDGE('',*,*,#617,.F.);
#844=ORIENTED_EDGE('',*,*,#540,.T.);
#845=ORIENTED_EDGE('',*,*,#619,.F.);
#846=ORIENTED_EDGE('',*,*,#620,.F.);
#847=ORIENTED_EDGE('',*,*,#621,.T.);
#848=ORIENTED_EDGE('',*,*,#622,.F.);
#849=ORIENTED_EDGE('',*,*,#592,.F.);
#850=ORIENTED_EDGE('',*,*,#623,.T.);
#851=ORIENTED_EDGE('',*,*,#624,.T.);
#852=ORIENTED_EDGE('',*,*,#620,.T.);
#853=ORIENTED_EDGE('',*,*,#594,.F.);
#854=ORIENTED_EDGE('',*,*,#625,.F.);
#855=ORIENTED_EDGE('',*,*,#626,.F.);
#856=ORIENTED_EDGE('',*,*,#623,.F.);
#857=ORIENTED_EDGE('',*,*,#596,.F.);
#858=ORIENTED_EDGE('',*,*,#627,.T.);
#859=ORIENTED_EDGE('',*,*,#628,.T.);
#860=ORIENTED_EDGE('',*,*,#625,.T.);
#861=ORIENTED_EDGE('',*,*,#598,.F.);
#862=ORIENTED_EDGE('',*,*,#629,.F.);
#863=ORIENTED_EDGE('',*,*,#630,.F.);
#864=ORIENTED_EDGE('',*,*,#627,.F.);
#865=ORIENTED_EDGE('',*,*,#600,.F.);
#866=ORIENTED_EDGE('',*,*,#631,.T.);
#867=ORIENTED_EDGE('',*,*,#632,.T.);
#868=ORIENTED_EDGE('',*,*,#629,.T.);
#869=ORIENTED_EDGE('',*,*,#601,.F.);
#870=ORIENTED_EDGE('',*,*,#633,.F.);
#871=ORIENTED_EDGE('',*,*,#634,.F.);
#872=ORIENTED_EDGE('',*,*,#631,.F.);
#873=ORIENTED_EDGE('',*,*,#579,.F.);
#874=ORIENTED_EDGE('',*,*,#585,.T.);
#875=ORIENTED_EDGE('',*,*,#635,.T.);
#876=ORIENTED_EDGE('',*,*,#636,.T.);
#877=ORIENTED_EDGE('',*,*,#581,.F.);
#878=ORIENTED_EDGE('',*,*,#636,.F.);
#879=ORIENTED_EDGE('',*,*,#637,.F.);
#880=ORIENTED_EDGE('',*,*,#638,.F.);
#881=ORIENTED_EDGE('',*,*,#582,.F.);
#882=ORIENTED_EDGE('',*,*,#638,.T.);
#883=ORIENTED_EDGE('',*,*,#639,.T.);
#884=ORIENTED_EDGE('',*,*,#588,.T.);
#885=ORIENTED_EDGE('',*,*,#610,.F.);
#886=ORIENTED_EDGE('',*,*,#640,.T.);
#887=ORIENTED_EDGE('',*,*,#641,.T.);
#888=ORIENTED_EDGE('',*,*,#642,.T.);
#889=ORIENTED_EDGE('',*,*,#608,.F.);
#890=ORIENTED_EDGE('',*,*,#642,.F.);
#891=ORIENTED_EDGE('',*,*,#643,.F.);
#892=ORIENTED_EDGE('',*,*,#644,.F.);
#893=ORIENTED_EDGE('',*,*,#614,.F.);
#894=ORIENTED_EDGE('',*,*,#645,.T.);
#895=ORIENTED_EDGE('',*,*,#646,.T.);
#896=ORIENTED_EDGE('',*,*,#647,.T.);
#897=ORIENTED_EDGE('',*,*,#616,.F.);
#898=ORIENTED_EDGE('',*,*,#648,.F.);
#899=ORIENTED_EDGE('',*,*,#649,.F.);
#900=ORIENTED_EDGE('',*,*,#645,.F.);
#901=ORIENTED_EDGE('',*,*,#618,.F.);
#902=ORIENTED_EDGE('',*,*,#622,.T.);
#903=ORIENTED_EDGE('',*,*,#650,.T.);
#904=ORIENTED_EDGE('',*,*,#648,.T.);
#905=ORIENTED_EDGE('',*,*,#651,.T.);
#906=ORIENTED_EDGE('',*,*,#523,.T.);
#907=ORIENTED_EDGE('',*,*,#526,.T.);
#908=ORIENTED_EDGE('',*,*,#652,.T.);
#909=ORIENTED_EDGE('',*,*,#570,.T.);
#910=ORIENTED_EDGE('',*,*,#565,.T.);
#911=ORIENTED_EDGE('',*,*,#560,.T.);
#912=ORIENTED_EDGE('',*,*,#554,.T.);
#913=ORIENTED_EDGE('',*,*,#637,.T.);
#914=ORIENTED_EDGE('',*,*,#635,.F.);
#915=ORIENTED_EDGE('',*,*,#584,.T.);
#916=ORIENTED_EDGE('',*,*,#587,.F.);
#917=ORIENTED_EDGE('',*,*,#589,.T.);
#918=ORIENTED_EDGE('',*,*,#639,.F.);
#919=ORIENTED_EDGE('',*,*,#653,.T.);
#920=ORIENTED_EDGE('',*,*,#654,.F.);
#921=ORIENTED_EDGE('',*,*,#643,.T.);
#922=ORIENTED_EDGE('',*,*,#641,.F.);
#923=ORIENTED_EDGE('',*,*,#655,.T.);
#924=ORIENTED_EDGE('',*,*,#646,.F.);
#925=ORIENTED_EDGE('',*,*,#649,.T.);
#926=ORIENTED_EDGE('',*,*,#650,.F.);
#927=ORIENTED_EDGE('',*,*,#621,.F.);
#928=ORIENTED_EDGE('',*,*,#624,.F.);
#929=ORIENTED_EDGE('',*,*,#626,.T.);
#930=ORIENTED_EDGE('',*,*,#628,.F.);
#931=ORIENTED_EDGE('',*,*,#630,.T.);
#932=ORIENTED_EDGE('',*,*,#632,.F.);
#933=ORIENTED_EDGE('',*,*,#634,.T.);
#934=ORIENTED_EDGE('',*,*,#606,.F.);
#935=ORIENTED_EDGE('',*,*,#644,.T.);
#936=ORIENTED_EDGE('',*,*,#654,.T.);
#937=ORIENTED_EDGE('',*,*,#656,.T.);
#938=ORIENTED_EDGE('',*,*,#612,.F.);
#939=ORIENTED_EDGE('',*,*,#647,.F.);
#940=ORIENTED_EDGE('',*,*,#655,.F.);
#941=ORIENTED_EDGE('',*,*,#640,.F.);
#942=ORIENTED_EDGE('',*,*,#604,.F.);
#943=ORIENTED_EDGE('',*,*,#656,.F.);
#944=ORIENTED_EDGE('',*,*,#653,.F.);
#945=ORIENTED_EDGE('',*,*,#633,.T.);
#946=ORIENTED_EDGE('',*,*,#516,.F.);
#947=ORIENTED_EDGE('',*,*,#657,.F.);
#948=ORIENTED_EDGE('',*,*,#652,.F.);
#949=ORIENTED_EDGE('',*,*,#525,.T.);
#950=ORIENTED_EDGE('',*,*,#519,.F.);
#951=ORIENTED_EDGE('',*,*,#524,.F.);
#952=ORIENTED_EDGE('',*,*,#651,.F.);
#953=ORIENTED_EDGE('',*,*,#657,.T.);
#954=CYLINDRICAL_SURFACE('',#1070,1.);
#955=CYLINDRICAL_SURFACE('',#1073,1.);
#956=CYLINDRICAL_SURFACE('',#1075,1.);
#957=CYLINDRICAL_SURFACE('',#1077,1.);
#958=CYLINDRICAL_SURFACE('',#1098,1.45);
#959=CYLINDRICAL_SURFACE('',#1104,1.45);
#960=CYLINDRICAL_SURFACE('',#1110,1.82909412097519);
#961=CYLINDRICAL_SURFACE('',#1116,1.45);
#962=CYLINDRICAL_SURFACE('',#1118,1.);
#963=CYLINDRICAL_SURFACE('',#1124,1.);
#964=CYLINDRICAL_SURFACE('',#1129,1.);
#965=CYLINDRICAL_SURFACE('',#1134,0.5);
#966=CYLINDRICAL_SURFACE('',#1140,1.);
#967=CYLINDRICAL_SURFACE('',#1145,1.);
#968=CYLINDRICAL_SURFACE('',#1150,1.);
#969=CYLINDRICAL_SURFACE('',#1152,1.);
#970=CYLINDRICAL_SURFACE('',#1157,1.);
#971=CYLINDRICAL_SURFACE('',#1162,1.);
#972=CYLINDRICAL_SURFACE('',#1167,1.);
#973=CYLINDRICAL_SURFACE('',#1172,1.);
#974=CYLINDRICAL_SURFACE('',#1174,0.5);
#975=CYLINDRICAL_SURFACE('',#1177,0.5);
#976=CYLINDRICAL_SURFACE('',#1180,0.5);
#977=CYLINDRICAL_SURFACE('',#1183,0.5);
#978=CYLINDRICAL_SURFACE('',#1186,0.5);
#979=CYLINDRICAL_SURFACE('',#1188,0.5);
#980=CYLINDRICAL_SURFACE('',#1191,0.5);
#981=CYLINDRICAL_SURFACE('',#1194,0.5);
#982=CYLINDRICAL_SURFACE('',#1198,0.5);
#983=ADVANCED_FACE('',(#133),#954,.T.);
#984=ADVANCED_FACE('',(#134),#955,.T.);
#985=ADVANCED_FACE('',(#135),#956,.T.);
#986=ADVANCED_FACE('',(#136),#957,.T.);
#987=ADVANCED_FACE('',(#137),#116,.T.);
#988=ADVANCED_FACE('',(#138),#117,.T.);
#989=ADVANCED_FACE('',(#139,#37,#38,#39,#40,#41,#42),#118,.T.);
#990=ADVANCED_FACE('',(#140),#24,.T.);
#991=ADVANCED_FACE('',(#141),#958,.F.);
#992=ADVANCED_FACE('',(#142),#25,.T.);
#993=ADVANCED_FACE('',(#143),#959,.F.);
#994=ADVANCED_FACE('',(#144),#26,.T.);
#995=ADVANCED_FACE('',(#145),#960,.F.);
#996=ADVANCED_FACE('',(#146),#27,.T.);
#997=ADVANCED_FACE('',(#147),#961,.F.);
#998=ADVANCED_FACE('',(#148),#962,.T.);
#999=ADVANCED_FACE('',(#149),#28,.T.);
#1000=ADVANCED_FACE('',(#150),#963,.T.);
#1001=ADVANCED_FACE('',(#151),#29,.T.);
#1002=ADVANCED_FACE('',(#152),#964,.T.);
#1003=ADVANCED_FACE('',(#153),#30,.T.);
#1004=ADVANCED_FACE('',(#154),#119,.F.);
#1005=ADVANCED_FACE('',(#155),#965,.F.);
#1006=ADVANCED_FACE('',(#156),#120,.F.);
#1007=ADVANCED_FACE('',(#157),#23,.F.);
#1008=ADVANCED_FACE('',(#158),#966,.T.);
#1009=ADVANCED_FACE('',(#159),#31,.T.);
#1010=ADVANCED_FACE('',(#160),#967,.T.);
#1011=ADVANCED_FACE('',(#161),#32,.T.);
#1012=ADVANCED_FACE('',(#162),#968,.T.);
#1013=ADVANCED_FACE('',(#163),#969,.T.);
#1014=ADVANCED_FACE('',(#164),#33,.T.);
#1015=ADVANCED_FACE('',(#165),#970,.T.);
#1016=ADVANCED_FACE('',(#166),#34,.T.);
#1017=ADVANCED_FACE('',(#167),#971,.T.);
#1018=ADVANCED_FACE('',(#168),#35,.T.);
#1019=ADVANCED_FACE('',(#169),#972,.T.);
#1020=ADVANCED_FACE('',(#170),#36,.T.);
#1021=ADVANCED_FACE('',(#171),#973,.T.);
#1022=ADVANCED_FACE('',(#172),#121,.T.);
#1023=ADVANCED_FACE('',(#173),#974,.T.);
#1024=ADVANCED_FACE('',(#174),#122,.F.);
#1025=ADVANCED_FACE('',(#175),#975,.F.);
#1026=ADVANCED_FACE('',(#176),#123,.F.);
#1027=ADVANCED_FACE('',(#177),#976,.F.);
#1028=ADVANCED_FACE('',(#178),#124,.F.);
#1029=ADVANCED_FACE('',(#179),#977,.F.);
#1030=ADVANCED_FACE('',(#180),#125,.T.);
#1031=ADVANCED_FACE('',(#181),#978,.F.);
#1032=ADVANCED_FACE('',(#182),#979,.F.);
#1033=ADVANCED_FACE('',(#183),#126,.T.);
#1034=ADVANCED_FACE('',(#184),#980,.F.);
#1035=ADVANCED_FACE('',(#185),#127,.F.);
#1036=ADVANCED_FACE('',(#186),#981,.F.);
#1037=ADVANCED_FACE('',(#187,#43,#44,#45,#46,#47,#48),#128,.F.);
#1038=ADVANCED_FACE('',(#188),#982,.F.);
#1039=ADVANCED_FACE('',(#189),#129,.F.);
#1040=ADVANCED_FACE('',(#190),#130,.F.);
#1041=ADVANCED_FACE('',(#191),#131,.T.);
#1042=ADVANCED_FACE('',(#192),#132,.T.);
#1043=CLOSED_SHELL('',(#983,#984,#985,#986,#987,#988,#989,#990,#991,#992,
#993,#994,#995,#996,#997,#998,#999,#1000,#1001,#1002,#1003,#1004,#1005,
#1006,#1007,#1008,#1009,#1010,#1011,#1012,#1013,#1014,#1015,#1016,#1017,
#1018,#1019,#1020,#1021,#1022,#1023,#1024,#1025,#1026,#1027,#1028,#1029,
#1030,#1031,#1032,#1033,#1034,#1035,#1036,#1037,#1038,#1039,#1040,#1041,
#1042));
#1044=DERIVED_UNIT_ELEMENT(#1048,1.);
#1045=DERIVED_UNIT_ELEMENT(#1891,-3.);
#1046=DERIVED_UNIT_ELEMENT(#1048,1.);
#1047=DERIVED_UNIT_ELEMENT(#1891,-3.);
#1048=(
MASS_UNIT()
NAMED_UNIT(*)
SI_UNIT(.KILO.,.GRAM.)
);
#1049=DERIVED_UNIT((#1044,#1045));
#1050=DERIVED_UNIT((#1046,#1047));
#1051=MEASURE_REPRESENTATION_ITEM('density measure',
POSITIVE_RATIO_MEASURE(7850.),#1049);
#1052=MEASURE_REPRESENTATION_ITEM('density measure',
POSITIVE_RATIO_MEASURE(7850.),#1050);
#1053=PROPERTY_DEFINITION_REPRESENTATION(#1063,#1057);
#1054=PROPERTY_DEFINITION_REPRESENTATION(#1064,#1058);
#1055=PROPERTY_DEFINITION_REPRESENTATION(#1065,#1059);
#1056=PROPERTY_DEFINITION_REPRESENTATION(#1066,#1060);
#1057=REPRESENTATION('material name',(#1061),#1887);
#1058=REPRESENTATION('density',(#1051),#1887);
#1059=REPRESENTATION('material name',(#1062),#1888);
#1060=REPRESENTATION('density',(#1052),#1888);
#1061=DESCRIPTIVE_REPRESENTATION_ITEM('Stahl','Stahl');
#1062=DESCRIPTIVE_REPRESENTATION_ITEM('Stahl','Stahl');
#1063=PROPERTY_DEFINITION('material property','material name',#1907);
#1064=PROPERTY_DEFINITION('material property','density of part',#1907);
#1065=PROPERTY_DEFINITION('material property','material name',#1908);
#1066=PROPERTY_DEFINITION('material property','density of part',#1908);
#1067=AXIS2_PLACEMENT_3D('',#1555,#1205,#1206);
#1068=AXIS2_PLACEMENT_3D('',#1556,#1207,#1208);
#1069=AXIS2_PLACEMENT_3D('',#1557,#1209,#1210);
#1070=AXIS2_PLACEMENT_3D('',#1558,#1211,#1212);
#1071=AXIS2_PLACEMENT_3D('',#1563,#1214,#1215);
#1072=AXIS2_PLACEMENT_3D('',#1566,#1217,#1218);
#1073=AXIS2_PLACEMENT_3D('',#1567,#1219,#1220);
#1074=AXIS2_PLACEMENT_3D('',#1571,#1222,#1223);
#1075=AXIS2_PLACEMENT_3D('',#1573,#1225,#1226);
#1076=AXIS2_PLACEMENT_3D('',#1577,#1228,#1229);
#1077=AXIS2_PLACEMENT_3D('',#1579,#1231,#1232);
#1078=AXIS2_PLACEMENT_3D('',#1582,#1235,#1236);
#1079=AXIS2_PLACEMENT_3D('',#1588,#1240,#1241);
#1080=AXIS2_PLACEMENT_3D('',#1592,#1244,#1245);
#1081=AXIS2_PLACEMENT_3D('',#1594,#1246,#1247);
#1082=AXIS2_PLACEMENT_3D('',#1596,#1248,#1249);
#1083=AXIS2_PLACEMENT_3D('',#1601,#1251,#1252);
#1084=AXIS2_PLACEMENT_3D('',#1605,#1254,#1255);
#1085=AXIS2_PLACEMENT_3D('',#1608,#1257,#1258);
#1086=AXIS2_PLACEMENT_3D('',#1613,#1260,#1261);
#1087=AXIS2_PLACEMENT_3D('',#1617,#1263,#1264);
#1088=AXIS2_PLACEMENT_3D('',#1623,#1267,#1268);
#1089=AXIS2_PLACEMENT_3D('',#1627,#1270,#1271);
#1090=AXIS2_PLACEMENT_3D('',#1631,#1273,#1274);
#1091=AXIS2_PLACEMENT_3D('',#1635,#1276,#1277);
#1092=AXIS2_PLACEMENT_3D('',#1638,#1279,#1280);
#1093=AXIS2_PLACEMENT_3D('',#1640,#1281,#1282);
#1094=AXIS2_PLACEMENT_3D('',#1641,#1283,#1284);
#1095=AXIS2_PLACEMENT_3D('',#1643,#1285,#1286);
#1096=AXIS2_PLACEMENT_3D('',#1645,#1287,#1288);
#1097=AXIS2_PLACEMENT_3D('',#1646,#1289,#1290);
#1098=AXIS2_PLACEMENT_3D('',#1647,#1291,#1292);
#1099=AXIS2_PLACEMENT_3D('',#1649,#1293,#1294);
#1100=AXIS2_PLACEMENT_3D('',#1651,#1296,#1297);
#1101=AXIS2_PLACEMENT_3D('',#1653,#1298,#1299);
#1102=AXIS2_PLACEMENT_3D('',#1655,#1300,#1301);
#1103=AXIS2_PLACEMENT_3D('',#1656,#1302,#1303);
#1104=AXIS2_PLACEMENT_3D('',#1657,#1304,#1305);
#1105=AXIS2_PLACEMENT_3D('',#1660,#1307,#1308);
#1106=AXIS2_PLACEMENT_3D('',#1661,#1309,#1310);
#1107=AXIS2_PLACEMENT_3D('',#1663,#1311,#1312);
#1108=AXIS2_PLACEMENT_3D('',#1665,#1313,#1314);
#1109=AXIS2_PLACEMENT_3D('',#1666,#1315,#1316);
#1110=AXIS2_PLACEMENT_3D('',#1667,#1317,#1318);
#1111=AXIS2_PLACEMENT_3D('',#1670,#1320,#1321);
#1112=AXIS2_PLACEMENT_3D('',#1671,#1322,#1323);
#1113=AXIS2_PLACEMENT_3D('',#1673,#1324,#1325);
#1114=AXIS2_PLACEMENT_3D('',#1675,#1326,#1327);
#1115=AXIS2_PLACEMENT_3D('',#1676,#1328,#1329);
#1116=AXIS2_PLACEMENT_3D('',#1677,#1330,#1331);
#1117=AXIS2_PLACEMENT_3D('',#1680,#1333,#1334);
#1118=AXIS2_PLACEMENT_3D('',#1681,#1335,#1336);
#1119=AXIS2_PLACEMENT_3D('',#1683,#1337,#1338);
#1120=AXIS2_PLACEMENT_3D('',#1686,#1340,#1341);
#1121=AXIS2_PLACEMENT_3D('',#1687,#1342,#1343);
#1122=AXIS2_PLACEMENT_3D('',#1689,#1344,#1345);
#1123=AXIS2_PLACEMENT_3D('',#1690,#1346,#1347);
#1124=AXIS2_PLACEMENT_3D('',#1691,#1348,#1349);
#1125=AXIS2_PLACEMENT_3D('',#1693,#1350,#1351);
#1126=AXIS2_PLACEMENT_3D('',#1695,#1353,#1354);
#1127=AXIS2_PLACEMENT_3D('',#1697,#1355,#1356);
#1128=AXIS2_PLACEMENT_3D('',#1698,#1357,#1358);
#1129=AXIS2_PLACEMENT_3D('',#1699,#1359,#1360);
#1130=AXIS2_PLACEMENT_3D('',#1701,#1361,#1362);
#1131=AXIS2_PLACEMENT_3D('',#1703,#1364,#1365);
#1132=AXIS2_PLACEMENT_3D('',#1704,#1366,#1367);
#1133=AXIS2_PLACEMENT_3D('',#1705,#1368,#1369);
#1134=AXIS2_PLACEMENT_3D('',#1711,#1373,#1374);
#1135=AXIS2_PLACEMENT_3D('',#1714,#1376,#1377);
#1136=AXIS2_PLACEMENT_3D('',#1715,#1378,#1379);
#1137=AXIS2_PLACEMENT_3D('',#1745,#1382,#1383);
#1138=AXIS2_PLACEMENT_3D('',#1747,#1384,#1385);
#1139=AXIS2_PLACEMENT_3D('',#1748,#1386,#1387);
#1140=AXIS2_PLACEMENT_3D('',#1749,#1388,#1389);
#1141=AXIS2_PLACEMENT_3D('',#1751,#1390,#1391);
#1142=AXIS2_PLACEMENT_3D('',#1753,#1393,#1394);
#1143=AXIS2_PLACEMENT_3D('',#1755,#1395,#1396);
#1144=AXIS2_PLACEMENT_3D('',#1756,#1397,#1398);
#1145=AXIS2_PLACEMENT_3D('',#1757,#1399,#1400);
#1146=AXIS2_PLACEMENT_3D('',#1759,#1401,#1402);
#1147=AXIS2_PLACEMENT_3D('',#1761,#1404,#1405);
#1148=AXIS2_PLACEMENT_3D('',#1763,#1406,#1407);
#1149=AXIS2_PLACEMENT_3D('',#1764,#1408,#1409);
#1150=AXIS2_PLACEMENT_3D('',#1765,#1410,#1411);
#1151=AXIS2_PLACEMENT_3D('',#1768,#1413,#1414);
#1152=AXIS2_PLACEMENT_3D('',#1769,#1415,#1416);
#1153=AXIS2_PLACEMENT_3D('',#1771,#1417,#1418);
#1154=AXIS2_PLACEMENT_3D('',#1773,#1420,#1421);
#1155=AXIS2_PLACEMENT_3D('',#1775,#1422,#1423);
#1156=AXIS2_PLACEMENT_3D('',#1776,#1424,#1425);
#1157=AXIS2_PLACEMENT_3D('',#1777,#1426,#1427);
#1158=AXIS2_PLACEMENT_3D('',#1779,#1428,#1429);
#1159=AXIS2_PLACEMENT_3D('',#1781,#1431,#1432);
#1160=AXIS2_PLACEMENT_3D('',#1783,#1433,#1434);
#1161=AXIS2_PLACEMENT_3D('',#1784,#1435,#1436);
#1162=AXIS2_PLACEMENT_3D('',#1785,#1437,#1438);
#1163=AXIS2_PLACEMENT_3D('',#1787,#1439,#1440);
#1164=AXIS2_PLACEMENT_3D('',#1789,#1442,#1443);
#1165=AXIS2_PLACEMENT_3D('',#1791,#1444,#1445);
#1166=AXIS2_PLACEMENT_3D('',#1792,#1446,#1447);
#1167=AXIS2_PLACEMENT_3D('',#1793,#1448,#1449);
#1168=AXIS2_PLACEMENT_3D('',#1795,#1450,#1451);
#1169=AXIS2_PLACEMENT_3D('',#1797,#1453,#1454);
#1170=AXIS2_PLACEMENT_3D('',#1799,#1455,#1456);
#1171=AXIS2_PLACEMENT_3D('',#1800,#1457,#1458);
#1172=AXIS2_PLACEMENT_3D('',#1801,#1459,#1460);
#1173=AXIS2_PLACEMENT_3D('',#1803,#1462,#1463);
#1174=AXIS2_PLACEMENT_3D('',#1809,#1467,#1468);
#1175=AXIS2_PLACEMENT_3D('',#1812,#1470,#1471);
#1176=AXIS2_PLACEMENT_3D('',#1813,#1472,#1473);
#1177=AXIS2_PLACEMENT_3D('',#1817,#1476,#1477);
#1178=AXIS2_PLACEMENT_3D('',#1820,#1479,#1480);
#1179=AXIS2_PLACEMENT_3D('',#1821,#1481,#1482);
#1180=AXIS2_PLACEMENT_3D('',#1825,#1485,#1486);
#1181=AXIS2_PLACEMENT_3D('',#1828,#1488,#1489);
#1182=AXIS2_PLACEMENT_3D('',#1829,#1490,#1491);
#1183=AXIS2_PLACEMENT_3D('',#1833,#1494,#1495);
#1184=AXIS2_PLACEMENT_3D('',#1835,#1496,#1497);
#1185=AXIS2_PLACEMENT_3D('',#1837,#1499,#1500);
#1186=AXIS2_PLACEMENT_3D('',#1841,#1503,#1504);
#1187=AXIS2_PLACEMENT_3D('',#1842,#1505,#1506);
#1188=AXIS2_PLACEMENT_3D('',#1843,#1507,#1508);
#1189=AXIS2_PLACEMENT_3D('',#1847,#1510,#1511);
#1190=AXIS2_PLACEMENT_3D('',#1849,#1513,#1514);
#1191=AXIS2_PLACEMENT_3D('',#1853,#1517,#1518);
#1192=AXIS2_PLACEMENT_3D('',#1857,#1520,#1521);
#1193=AXIS2_PLACEMENT_3D('',#1859,#1523,#1524);
#1194=AXIS2_PLACEMENT_3D('',#1863,#1527,#1528);
#1195=AXIS2_PLACEMENT_3D('',#1864,#1529,#1530);
#1196=AXIS2_PLACEMENT_3D('',#1865,#1531,#1532);
#1197=AXIS2_PLACEMENT_3D('',#1871,#1536,#1537);
#1198=AXIS2_PLACEMENT_3D('',#1873,#1539,#1540);
#1199=AXIS2_PLACEMENT_3D('',#1875,#1542,#1543);
#1200=AXIS2_PLACEMENT_3D('',#1876,#1544,#1545);
#1201=AXIS2_PLACEMENT_3D('',#1877,#1546,#1547);
#1202=AXIS2_PLACEMENT_3D('',#1879,#1549,#1550);
#1203=AXIS2_PLACEMENT_3D('',#1880,#1551,#1552);
#1204=AXIS2_PLACEMENT_3D('',#1881,#1553,#1554);
#1205=DIRECTION('axis',(0.,0.,1.));
#1206=DIRECTION('refdir',(1.,0.,0.));
#1207=DIRECTION('axis',(0.,0.,1.));
#1208=DIRECTION('refdir',(1.,0.,0.));
#1209=DIRECTION('axis',(0.,0.,1.));
#1210=DIRECTION('refdir',(1.,0.,0.));
#1211=DIRECTION('center_axis',(-1.,0.,-1.22464679914735E-16));
#1212=DIRECTION('ref_axis',(0.,0.707106781186551,-0.707106781186544));
#1213=DIRECTION('',(1.,0.,1.22464679914735E-16));
#1214=DIRECTION('center_axis',(-0.707106781186554,-1.25607396694703E-14,
-0.707106781186541));
#1215=DIRECTION('ref_axis',(0.707106781186541,-1.25607396694705E-14,-0.707106781186554));
#1216=DIRECTION('',(-1.,0.,-1.22464679914735E-16));
#1217=DIRECTION('center_axis',(-0.707106781186543,-2.35513868802565E-15,
0.707106781186552));
#1218=DIRECTION('ref_axis',(-0.707106781186552,-2.35513868802568E-15,-0.707106781186543));
#1219=DIRECTION('center_axis',(1.22464679914735E-16,0.,-1.));
#1220=DIRECTION('ref_axis',(0.707106781186538,0.707106781186557,0.));
#1221=DIRECTION('',(-1.22464679914735E-16,0.,1.));
#1222=DIRECTION('center_axis',(0.70710678118655,1.57009245868377E-15,-0.707106781186545));
#1223=DIRECTION('ref_axis',(0.707106781186545,1.57009245868376E-15,0.70710678118655));
#1224=DIRECTION('',(1.22464679914735E-16,0.,-1.));
#1225=DIRECTION('center_axis',(1.,0.,1.22464679914735E-16));
#1226=DIRECTION('ref_axis',(0.,0.707106781186549,0.707106781186546));
#1227=DIRECTION('',(-1.,0.,-1.22464679914735E-16));
#1228=DIRECTION('center_axis',(0.707106781186551,-7.8504622934189E-16,0.707106781186544));
#1229=DIRECTION('ref_axis',(-0.707106781186544,-7.85046229341897E-16,0.707106781186551));
#1230=DIRECTION('',(1.,0.,1.22464679914735E-16));
#1231=DIRECTION('center_axis',(-1.22464679914735E-16,0.,1.));
#1232=DIRECTION('ref_axis',(-0.707106781186545,0.70710678118655,0.));
#1233=DIRECTION('',(-1.22464679914735E-16,0.,1.));
#1234=DIRECTION('',(1.22464679914735E-16,0.,-1.));
#1235=DIRECTION('center_axis',(-1.,0.,-1.22464679914735E-16));
#1236=DIRECTION('ref_axis',(-1.22464679914735E-16,1.25056405354134E-16,
1.));
#1237=DIRECTION('',(0.,1.,0.));
#1238=DIRECTION('',(1.22464679914735E-16,-1.25056405354134E-16,-1.));
#1239=DIRECTION('',(0.,1.,0.));
#1240=DIRECTION('center_axis',(1.22464679914735E-16,0.,-1.));
#1241=DIRECTION('ref_axis',(-1.,0.,-1.22464679914735E-16));
#1242=DIRECTION('',(0.,1.,0.));
#1243=DIRECTION('',(1.,0.,1.22464679914735E-16));
#1244=DIRECTION('center_axis',(0.,1.,0.));
#1245=DIRECTION('ref_axis',(1.22464679914735E-16,0.,-1.));
#1246=DIRECTION('center_axis',(0.,1.,0.));
#1247=DIRECTION('ref_axis',(1.,0.,0.));
#1248=DIRECTION('center_axis',(0.,1.,0.));
#1249=DIRECTION('ref_axis',(-1.,0.,0.));
#1250=DIRECTION('',(-1.,0.,-1.22464679914735E-16));
#1251=DIRECTION('center_axis',(0.,1.,0.));
#1252=DIRECTION('ref_axis',(0.707106781186548,0.,-0.707106781186548));
#1253=DIRECTION('',(1.22464679914735E-16,0.,-1.));
#1254=DIRECTION('center_axis',(0.,1.,0.));
#1255=DIRECTION('ref_axis',(0.311695547280591,0.,0.950182027721769));
#1256=DIRECTION('',(0.592335014293853,0.,0.805691771610894));
#1257=DIRECTION('center_axis',(0.,1.,0.));
#1258=DIRECTION('ref_axis',(-0.892282190311405,0.,-0.451478120015889));
#1259=DIRECTION('',(0.,0.,-1.));
#1260=DIRECTION('center_axis',(0.,1.,0.));
#1261=DIRECTION('ref_axis',(0.707106781186547,0.,0.707106781186548));
#1262=DIRECTION('',(1.,0.,0.));
#1263=DIRECTION('center_axis',(0.,1.,0.));
#1264=DIRECTION('ref_axis',(-0.707106781186547,0.,0.707106781186548));
#1265=DIRECTION('',(0.,0.,1.));
#1266=DIRECTION('',(1.,0.,0.));
#1267=DIRECTION('center_axis',(0.,1.,0.));
#1268=DIRECTION('ref_axis',(-0.707106781186548,0.,0.707106781186548));
#1269=DIRECTION('',(0.,0.,1.));
#1270=DIRECTION('center_axis',(0.,1.,0.));
#1271=DIRECTION('ref_axis',(-0.707106781186548,0.,-0.707106781186548));
#1272=DIRECTION('',(-1.,0.,-1.22464679914735E-16));
#1273=DIRECTION('center_axis',(0.,1.,0.));
#1274=DIRECTION('ref_axis',(0.451478120015881,0.,-0.892282190311409));
#1275=DIRECTION('',(-0.592335014293853,0.,-0.805691771610894));
#1276=DIRECTION('center_axis',(0.,1.,0.));
#1277=DIRECTION('ref_axis',(0.950182027721766,0.,-0.311695547280599));
#1278=DIRECTION('',(1.22464679914735E-16,0.,-1.));
#1279=DIRECTION('center_axis',(0.,1.,0.));
#1280=DIRECTION('ref_axis',(-1.,0.,0.));
#1281=DIRECTION('center_axis',(0.,1.,0.));
#1282=DIRECTION('ref_axis',(-1.,0.,0.));
#1283=DIRECTION('center_axis',(0.,-1.,0.));
#1284=DIRECTION('ref_axis',(0.,0.,-1.));
#1285=DIRECTION('center_axis',(-1.,0.,0.));
#1286=DIRECTION('ref_axis',(0.,0.,1.));
#1287=DIRECTION('center_axis',(0.,-1.,0.));
#1288=DIRECTION('ref_axis',(1.,0.,0.));
#1289=DIRECTION('center_axis',(0.,-1.,0.));
#1290=DIRECTION('ref_axis',(1.,0.,0.));
#1291=DIRECTION('center_axis',(0.,1.,0.));
#1292=DIRECTION('ref_axis',(1.,0.,0.));
#1293=DIRECTION('center_axis',(0.,1.,0.));
#1294=DIRECTION('ref_axis',(1.,0.,0.));
#1295=DIRECTION('',(0.,1.,0.));
#1296=DIRECTION('center_axis',(0.,-1.,0.));
#1297=DIRECTION('ref_axis',(0.,0.,-1.));
#1298=DIRECTION('center_axis',(-1.,0.,0.));
#1299=DIRECTION('ref_axis',(0.,0.,1.));
#1300=DIRECTION('center_axis',(0.,-1.,0.));
#1301=DIRECTION('ref_axis',(-1.,0.,0.));
#1302=DIRECTION('center_axis',(0.,-1.,0.));
#1303=DIRECTION('ref_axis',(-1.,0.,0.));
#1304=DIRECTION('center_axis',(0.,-1.,0.));
#1305=DIRECTION('ref_axis',(-1.,0.,0.));
#1306=DIRECTION('',(0.,-1.,0.));
#1307=DIRECTION('center_axis',(0.,1.,0.));
#1308=DIRECTION('ref_axis',(-1.,0.,0.));
#1309=DIRECTION('center_axis',(0.,-1.,0.));
#1310=DIRECTION('ref_axis',(0.,0.,-1.));
#1311=DIRECTION('center_axis',(-1.,0.,0.));
#1312=DIRECTION('ref_axis',(0.,0.,1.));
#1313=DIRECTION('center_axis',(0.,-1.,0.));
#1314=DIRECTION('ref_axis',(-1.,0.,0.));
#1315=DIRECTION('center_axis',(0.,-1.,0.));
#1316=DIRECTION('ref_axis',(-1.,0.,0.));
#1317=DIRECTION('center_axis',(0.,-1.,0.));
#1318=DIRECTION('ref_axis',(-1.,0.,0.));
#1319=DIRECTION('',(0.,-1.,0.));
#1320=DIRECTION('center_axis',(0.,1.,0.));
#1321=DIRECTION('ref_axis',(-1.,0.,0.));
#1322=DIRECTION('center_axis',(0.,-1.,0.));
#1323=DIRECTION('ref_axis',(0.,0.,-1.));
#1324=DIRECTION('center_axis',(-1.,0.,0.));
#1325=DIRECTION('ref_axis',(0.,0.,1.));
#1326=DIRECTION('center_axis',(0.,-1.,0.));
#1327=DIRECTION('ref_axis',(-1.,0.,0.));
#1328=DIRECTION('center_axis',(0.,-1.,0.));
#1329=DIRECTION('ref_axis',(-1.,0.,0.));
#1330=DIRECTION('center_axis',(0.,-1.,0.));
#1331=DIRECTION('ref_axis',(-1.,0.,0.));
#1332=DIRECTION('',(0.,-1.,0.));
#1333=DIRECTION('center_axis',(0.,1.,0.));
#1334=DIRECTION('ref_axis',(-1.,0.,0.));
#1335=DIRECTION('center_axis',(1.,0.,1.22464679914735E-16));
#1336=DIRECTION('ref_axis',(0.,0.707106781186549,0.707106781186546));
#1337=DIRECTION('center_axis',(1.,0.,0.));
#1338=DIRECTION('ref_axis',(0.,1.,0.));
#1339=DIRECTION('',(1.,0.,1.22464679914735E-16));
#1340=DIRECTION('center_axis',(-1.,0.,0.));
#1341=DIRECTION('ref_axis',(0.,0.,1.));
#1342=DIRECTION('center_axis',(0.,1.,0.));
#1343=DIRECTION('ref_axis',(0.,0.,1.));
#1344=DIRECTION('center_axis',(0.,0.,-1.));
#1345=DIRECTION('ref_axis',(-1.,0.,0.));
#1346=DIRECTION('center_axis',(0.,-1.,0.));
#1347=DIRECTION('ref_axis',(0.707106781186548,0.,-0.707106781186548));
#1348=DIRECTION('center_axis',(-1.22464679914735E-16,0.,1.));
#1349=DIRECTION('ref_axis',(-0.70710678118654,0.707106781186555,0.));
#1350=DIRECTION('center_axis',(0.,0.,-1.));
#1351=DIRECTION('ref_axis',(-1.,0.,0.));
#1352=DIRECTION('',(-1.22464679914735E-16,0.,1.));
#1353=DIRECTION('center_axis',(0.,1.,0.));
#1354=DIRECTION('ref_axis',(0.,0.,1.));
#1355=DIRECTION('center_axis',(0.59233501429386,0.,0.805691771610889));
#1356=DIRECTION('ref_axis',(0.805691771610889,0.,-0.59233501429386));
#1357=DIRECTION('center_axis',(0.,-1.,0.));
#1358=DIRECTION('ref_axis',(0.311695547280591,0.,0.950182027721769));
#1359=DIRECTION('center_axis',(-0.592335014293853,0.,-0.805691771610894));
#1360=DIRECTION('ref_axis',(0.569710115252268,0.707106781186545,-0.418844105341416));
#1361=DIRECTION('center_axis',(0.592335014293849,0.,0.805691771610897));
#1362=DIRECTION('ref_axis',(0.805691771610897,0.,-0.592335014293849));
#1363=DIRECTION('',(-0.592335014293853,0.,-0.805691771610894));
#1364=DIRECTION('center_axis',(0.,1.,0.));
#1365=DIRECTION('ref_axis',(0.,0.,1.));
#1366=DIRECTION('center_axis',(0.,-1.,0.));
#1367=DIRECTION('ref_axis',(-0.892282190311405,0.,-0.451478120015889));
#1368=DIRECTION('center_axis',(1.,0.,1.22464679914735E-16));
#1369=DIRECTION('ref_axis',(-1.22464679914735E-16,0.,1.));
#1370=DIRECTION('',(0.,1.,0.));
#1371=DIRECTION('',(1.22464679914735E-16,0.,-1.));
#1372=DIRECTION('',(0.,-1.,0.));
#1373=DIRECTION('center_axis',(0.,-1.,0.));
#1374=DIRECTION('ref_axis',(0.70710678118656,0.,-0.707106781186535));
#1375=DIRECTION('',(0.,-1.,0.));
#1376=DIRECTION('center_axis',(0.,-1.,0.));
#1377=DIRECTION('ref_axis',(0.70710678118656,0.,-0.707106781186535));
#1378=DIRECTION('center_axis',(1.22464679914735E-16,0.,-1.));
#1379=DIRECTION('ref_axis',(1.,0.,1.22464679914735E-16));
#1380=DIRECTION('',(0.,1.,0.));
#1381=DIRECTION('',(-1.,0.,-1.22464679914735E-16));
#1382=DIRECTION('center_axis',(0.894427190999913,0.,0.447213595499963));
#1383=DIRECTION('ref_axis',(0.447213595499963,0.,-0.894427190999913));
#1384=DIRECTION('center_axis',(-0.447213595499967,0.,-0.894427190999911));
#1385=DIRECTION('ref_axis',(0.894427190999911,0.,-0.447213595499967));
#1386=DIRECTION('center_axis',(0.,1.,0.));
#1387=DIRECTION('ref_axis',(1.,0.,-1.11022302462518E-15));
#1388=DIRECTION('center_axis',(0.,0.,-1.));
#1389=DIRECTION('ref_axis',(0.707106781186538,0.707106781186557,0.));
#1390=DIRECTION('center_axis',(0.,0.,-1.));
#1391=DIRECTION('ref_axis',(0.,1.,0.));
#1392=DIRECTION('',(0.,0.,-1.));
#1393=DIRECTION('center_axis',(0.,1.,0.));
#1394=DIRECTION('ref_axis',(0.,0.,1.));
#1395=DIRECTION('center_axis',(-1.,0.,0.));
#1396=DIRECTION('ref_axis',(0.,1.,0.));
#1397=DIRECTION('center_axis',(0.,-1.,0.));
#1398=DIRECTION('ref_axis',(-0.707106781186547,0.,0.707106781186548));
#1399=DIRECTION('center_axis',(-1.,0.,0.));
#1400=DIRECTION('ref_axis',(0.,0.707106781186549,-0.707106781186546));
#1401=DIRECTION('center_axis',(-1.,0.,0.));
#1402=DIRECTION('ref_axis',(0.,1.,0.));
#1403=DIRECTION('',(-1.,0.,0.));
#1404=DIRECTION('center_axis',(0.,1.,0.));
#1405=DIRECTION('ref_axis',(0.,0.,1.));
#1406=DIRECTION('center_axis',(0.,0.,1.));
#1407=DIRECTION('ref_axis',(0.,1.,0.));
#1408=DIRECTION('center_axis',(0.,-1.,0.));
#1409=DIRECTION('ref_axis',(0.707106781186547,0.,0.707106781186548));
#1410=DIRECTION('center_axis',(0.,0.,1.));
#1411=DIRECTION('ref_axis',(-0.707106781186538,0.707106781186557,0.));
#1412=DIRECTION('',(0.,0.,1.));
#1413=DIRECTION('center_axis',(-0.707106781186555,9.42055475210282E-15,
0.70710678118654));
#1414=DIRECTION('ref_axis',(-0.70710678118654,-9.42055475210302E-15,-0.707106781186555));
#1415=DIRECTION('center_axis',(-1.22464679914735E-16,0.,1.));
#1416=DIRECTION('ref_axis',(-0.70710678118654,0.707106781186555,0.));
#1417=DIRECTION('center_axis',(0.,0.,1.));
#1418=DIRECTION('ref_axis',(0.,1.,0.));
#1419=DIRECTION('',(-1.22464679914735E-16,0.,1.));
#1420=DIRECTION('center_axis',(0.,1.,0.));
#1421=DIRECTION('ref_axis',(0.,0.,1.));
#1422=DIRECTION('center_axis',(0.592335014293854,0.,0.805691771610893));
#1423=DIRECTION('ref_axis',(0.,1.,0.));
#1424=DIRECTION('center_axis',(0.,-1.,0.));
#1425=DIRECTION('ref_axis',(0.950182027721766,0.,-0.311695547280599));
#1426=DIRECTION('center_axis',(-0.592335014293853,0.,-0.805691771610894));
#1427=DIRECTION('ref_axis',(-0.569710115252275,0.707106781186542,0.418844105341412));
#1428=DIRECTION('center_axis',(0.592335014293849,0.,0.805691771610897));
#1429=DIRECTION('ref_axis',(0.,1.,0.));
#1430=DIRECTION('',(0.592335014293853,0.,0.805691771610894));
#1431=DIRECTION('center_axis',(0.,1.,0.));
#1432=DIRECTION('ref_axis',(0.,0.,1.));
#1433=DIRECTION('center_axis',(1.,0.,0.));
#1434=DIRECTION('ref_axis',(0.,1.,0.));
#1435=DIRECTION('center_axis',(0.,-1.,0.));
#1436=DIRECTION('ref_axis',(0.451478120015881,0.,-0.892282190311409));
#1437=DIRECTION('center_axis',(1.,0.,1.22464679914735E-16));
#1438=DIRECTION('ref_axis',(0.,0.707106781186549,0.707106781186546));
#1439=DIRECTION('center_axis',(1.,0.,0.));
#1440=DIRECTION('ref_axis',(0.,1.,0.));
#1441=DIRECTION('',(1.,0.,1.22464679914735E-16));
#1442=DIRECTION('center_axis',(0.,1.,0.));
#1443=DIRECTION('ref_axis',(0.,0.,1.));
#1444=DIRECTION('center_axis',(0.,0.,-1.));
#1445=DIRECTION('ref_axis',(0.,1.,0.));
#1446=DIRECTION('center_axis',(0.,-1.,0.));
#1447=DIRECTION('ref_axis',(-0.707106781186548,0.,-0.707106781186548));
#1448=DIRECTION('center_axis',(0.,0.,-1.));
#1449=DIRECTION('ref_axis',(0.707106781186549,0.707106781186546,0.));
#1450=DIRECTION('center_axis',(0.,0.,-1.));
#1451=DIRECTION('ref_axis',(0.,1.,0.));
#1452=DIRECTION('',(0.,0.,-1.));
#1453=DIRECTION('center_axis',(0.,1.,0.));
#1454=DIRECTION('ref_axis',(0.,0.,1.));
#1455=DIRECTION('center_axis',(-1.,0.,0.));
#1456=DIRECTION('ref_axis',(0.,1.,0.));
#1457=DIRECTION('center_axis',(0.,-1.,0.));
#1458=DIRECTION('ref_axis',(-0.707106781186548,0.,0.707106781186548));
#1459=DIRECTION('center_axis',(1.,0.,0.));
#1460=DIRECTION('ref_axis',(0.,0.707106781186549,-0.707106781186546));
#1461=DIRECTION('',(-1.,0.,0.));
#1462=DIRECTION('center_axis',(0.,0.,-1.));
#1463=DIRECTION('ref_axis',(-1.,0.,0.));
#1464=DIRECTION('',(0.,1.,0.));
#1465=DIRECTION('',(-1.,0.,0.));
#1466=DIRECTION('',(0.,-1.,0.));
#1467=DIRECTION('center_axis',(0.,-1.,0.));
#1468=DIRECTION('ref_axis',(0.707106781186552,0.,-0.707106781186543));
#1469=DIRECTION('',(0.,-1.,0.));
#1470=DIRECTION('center_axis',(0.,1.,0.));
#1471=DIRECTION('ref_axis',(0.707106781186552,0.,-0.707106781186543));
#1472=DIRECTION('center_axis',(-1.,0.,0.));
#1473=DIRECTION('ref_axis',(0.,0.,1.));
#1474=DIRECTION('',(0.,1.,0.));
#1475=DIRECTION('',(0.,0.,1.));
#1476=DIRECTION('center_axis',(0.,1.,0.));
#1477=DIRECTION('ref_axis',(-0.707106781186552,0.,0.707106781186543));
#1478=DIRECTION('',(0.,-1.,0.));
#1479=DIRECTION('center_axis',(0.,-1.,0.));
#1480=DIRECTION('ref_axis',(-0.707106781186552,0.,0.707106781186543));
#1481=DIRECTION('center_axis',(0.,0.,1.));
#1482=DIRECTION('ref_axis',(1.,0.,0.));
#1483=DIRECTION('',(0.,1.,0.));
#1484=DIRECTION('',(1.,0.,0.));
#1485=DIRECTION('center_axis',(0.,1.,0.));
#1486=DIRECTION('ref_axis',(0.707106781186553,0.,0.707106781186543));
#1487=DIRECTION('',(0.,-1.,0.));
#1488=DIRECTION('center_axis',(0.,-1.,0.));
#1489=DIRECTION('ref_axis',(0.707106781186553,0.,0.707106781186543));
#1490=DIRECTION('center_axis',(1.,0.,0.));
#1491=DIRECTION('ref_axis',(0.,0.,-1.));
#1492=DIRECTION('',(0.,1.,0.));
#1493=DIRECTION('',(0.,0.,-1.));
#1494=DIRECTION('center_axis',(0.,1.,0.));
#1495=DIRECTION('ref_axis',(0.311695547280637,0.,0.950182027721754));
#1496=DIRECTION('center_axis',(0.,-1.,0.));
#1497=DIRECTION('ref_axis',(0.311695547280637,0.,0.950182027721754));
#1498=DIRECTION('',(0.,1.,0.));
#1499=DIRECTION('center_axis',(0.805691771610894,0.,-0.592335014293853));
#1500=DIRECTION('ref_axis',(0.592335014293853,0.,0.805691771610894));
#1501=DIRECTION('',(0.592335014293853,0.,0.805691771610894));
#1502=DIRECTION('',(0.,-1.,0.));
#1503=DIRECTION('center_axis',(0.,-1.,0.));
#1504=DIRECTION('ref_axis',(-0.892282190311435,0.,-0.45147812001583));
#1505=DIRECTION('center_axis',(0.,-1.,0.));
#1506=DIRECTION('ref_axis',(-0.892282190311435,0.,-0.45147812001583));
#1507=DIRECTION('center_axis',(0.,1.,0.));
#1508=DIRECTION('ref_axis',(0.451478120015878,0.,-0.892282190311411));
#1509=DIRECTION('',(0.,-1.,0.));
#1510=DIRECTION('center_axis',(0.,-1.,0.));
#1511=DIRECTION('ref_axis',(0.451478120015878,0.,-0.892282190311411));
#1512=DIRECTION('',(0.,1.,0.));
#1513=DIRECTION('center_axis',(-0.805691771610894,0.,0.592335014293853));
#1514=DIRECTION('ref_axis',(-0.592335014293853,0.,-0.805691771610894));
#1515=DIRECTION('',(-0.592335014293853,0.,-0.805691771610894));
#1516=DIRECTION('',(0.,-1.,0.));
#1517=DIRECTION('center_axis',(0.,-1.,0.));
#1518=DIRECTION('ref_axis',(-0.707106781186541,0.,-0.707106781186554));
#1519=DIRECTION('',(0.,-1.,0.));
#1520=DIRECTION('center_axis',(0.,-1.,0.));
#1521=DIRECTION('ref_axis',(-0.707106781186541,0.,-0.707106781186554));
#1522=DIRECTION('',(0.,1.,0.));
#1523=DIRECTION('center_axis',(-1.,0.,0.));
#1524=DIRECTION('ref_axis',(0.,0.,1.));
#1525=DIRECTION('',(0.,1.,0.));
#1526=DIRECTION('',(0.,0.,1.));
#1527=DIRECTION('center_axis',(0.,-1.,0.));
#1528=DIRECTION('ref_axis',(-0.707106781186546,0.,0.707106781186549));
#1529=DIRECTION('center_axis',(0.,-1.,0.));
#1530=DIRECTION('ref_axis',(-0.707106781186546,0.,0.707106781186549));
#1531=DIRECTION('center_axis',(0.,1.,0.));
#1532=DIRECTION('ref_axis',(-1.,0.,-1.22464679914735E-16));
#1533=DIRECTION('',(-1.,8.25785706265814E-17,-1.22464679914735E-16));
#1534=DIRECTION('',(-1.22464679914735E-16,0.,1.));
#1535=DIRECTION('',(1.22464679914735E-16,0.,-1.));
#1536=DIRECTION('center_axis',(0.,-1.,0.));
#1537=DIRECTION('ref_axis',(0.950182027721768,0.,-0.311695547280595));
#1538=DIRECTION('',(-1.,0.,-1.22464679914735E-16));
#1539=DIRECTION('center_axis',(0.,-1.,0.));
#1540=DIRECTION('ref_axis',(0.950182027721768,0.,-0.311695547280595));
#1541=DIRECTION('',(0.,1.,0.));
#1542=DIRECTION('center_axis',(1.22464679914735E-16,0.,-1.));
#1543=DIRECTION('ref_axis',(1.,0.,1.22464679914735E-16));
#1544=DIRECTION('center_axis',(1.,0.,1.22464679914735E-16));
#1545=DIRECTION('ref_axis',(-1.22464679914735E-16,0.,1.));
#1546=DIRECTION('center_axis',(1.,0.,1.22464679914735E-16));
#1547=DIRECTION('ref_axis',(1.22464679914735E-16,0.,-1.));
#1548=DIRECTION('',(0.,1.,0.));
#1549=DIRECTION('center_axis',(-1.22464679914735E-16,0.,1.));
#1550=DIRECTION('ref_axis',(1.,-8.25785706265814E-17,1.22464679914735E-16));
#1551=DIRECTION('',(9.30995281610502E-16,1.50113085496069E-15,0.999999999999998));
#1552=DIRECTION('',(1.00000000000001,3.05311331771918E-16,5.55111512312585E-17));
#1553=DIRECTION('',(-5.02644697438288E-15,-2.53618856998846E-16,0.999999999999996));
#1554=DIRECTION('',(0.999999999999997,5.52335954751034E-15,1.23789867245705E-14));
#1555=CARTESIAN_POINT('',(0.,0.,0.));
#1556=CARTESIAN_POINT('',(0.,0.,0.));
#1557=CARTESIAN_POINT('',(0.,0.,0.));
#1558=CARTESIAN_POINT('Origin',(55.7215369687439,20.,-68.9236839772469));
#1559=CARTESIAN_POINT('',(-9.06762962145054,21.,-68.9236839772469));
#1560=CARTESIAN_POINT('',(109.932372507553,21.,-68.9236839772469));
#1561=CARTESIAN_POINT('',(55.7215369687439,21.,-68.9236839772469));
#1562=CARTESIAN_POINT('',(110.932372507553,20.,-69.9236839772469));
#1563=CARTESIAN_POINT('Origin',(109.932372507553,20.,-68.9236839772469));
#1564=CARTESIAN_POINT('',(-10.0676296214505,20.,-69.9236839772469));
#1565=CARTESIAN_POINT('',(55.7215369687439,20.,-69.9236839772469));
#1566=CARTESIAN_POINT('Origin',(-9.06762962145054,20.,-68.9236839772469));
#1567=CARTESIAN_POINT('Origin',(109.932372507553,20.,-9.79554817595895));
#1568=CARTESIAN_POINT('',(109.932372507553,21.,8.97631949183654));
#1569=CARTESIAN_POINT('',(109.932372507553,21.,-9.79554817595895));
#1570=CARTESIAN_POINT('',(110.932372507553,20.,9.97631949183655));
#1571=CARTESIAN_POINT('Origin',(109.932372507553,20.,8.97631949183654));
#1572=CARTESIAN_POINT('',(110.932372507553,20.,-9.79554817595895));
#1573=CARTESIAN_POINT('Origin',(-4.77846409575779,20.,8.97631949183653));
#1574=CARTESIAN_POINT('',(-9.06762962145054,21.,8.97631949183653));
#1575=CARTESIAN_POINT('',(-4.77846409575779,21.,8.97631949183653));
#1576=CARTESIAN_POINT('',(-10.0676296214505,20.,9.97631949183653));
#1577=CARTESIAN_POINT('Origin',(-9.06762962145055,20.,8.97631949183653));
#1578=CARTESIAN_POINT('',(-4.77846409575779,20.,9.97631949183653));
#1579=CARTESIAN_POINT('Origin',(-9.06762962145054,20.,-49.7455499105007));
#1580=CARTESIAN_POINT('',(-10.0676296214505,20.,-49.7455499105007));
#1581=CARTESIAN_POINT('',(-9.06762962145054,21.,-49.7455499105007));
#1582=CARTESIAN_POINT('Origin',(-10.0676296214505,18.,-69.9236839772469));
#1583=CARTESIAN_POINT('',(-10.0676296214505,18.,-69.9236839772469));
#1584=CARTESIAN_POINT('',(-10.0676296214505,18.,-69.9236839772469));
#1585=CARTESIAN_POINT('',(-10.0676296214505,18.,9.97631949183653));
#1586=CARTESIAN_POINT('',(-10.0676296214505,18.,9.97631949183653));
#1587=CARTESIAN_POINT('',(-10.0676296214505,18.,9.97631949183653));
#1588=CARTESIAN_POINT('Origin',(110.932372507553,18.,-69.9236839772469));
#1589=CARTESIAN_POINT('',(110.932372507553,18.,-69.9236839772469));
#1590=CARTESIAN_POINT('',(110.932372507553,18.,-69.9236839772469));
#1591=CARTESIAN_POINT('',(-10.0676296214505,18.,-69.9236839772469));
#1592=CARTESIAN_POINT('Origin',(0.510701429934954,21.,-29.5674158437545));
#1593=CARTESIAN_POINT('',(-5.06762962145054,21.,7.42631949183654));
#1594=CARTESIAN_POINT('Origin',(-5.06762962145054,21.,4.97631949183654));
#1595=CARTESIAN_POINT('',(105.932372507553,21.,7.80541361281174));
#1596=CARTESIAN_POINT('Origin',(105.932372507553,21.,4.97631949183655));
#1597=CARTESIAN_POINT('',(100.432372032578,21.,-60.9236838282353));
#1598=CARTESIAN_POINT('',(89.7517271419567,21.,-60.9236838282353));
#1599=CARTESIAN_POINT('',(20.7215367312567,21.,-60.9236838282353));
#1600=CARTESIAN_POINT('',(101.932372032578,21.,-59.4236838282353));
#1601=CARTESIAN_POINT('Origin',(100.432372032578,21.,-59.4236838282353));
#1602=CARTESIAN_POINT('',(101.932372032578,21.,-44.8959123877262));
#1603=CARTESIAN_POINT('',(101.932372032578,21.,-44.7455498359949));
#1604=CARTESIAN_POINT('',(99.223834375162,21.,-44.0074098662854));
#1605=CARTESIAN_POINT('Origin',(100.432372032578,21.,-44.8959123877262));
#1606=CARTESIAN_POINT('',(88.5431894845403,21.,-58.5351813067945));
#1607=CARTESIAN_POINT('',(79.7192299915011,21.,-70.5374965253959));
#1608=CARTESIAN_POINT('Origin',(89.7517271419567,21.,-59.4236838282353));
#1609=CARTESIAN_POINT('',(101.932301505017,21.,-0.500000074503572));
#1610=CARTESIAN_POINT('',(101.932372032578,21.,-4.0236838282353));
#1611=CARTESIAN_POINT('',(101.932301505017,21.,-14.783707959129));
#1612=CARTESIAN_POINT('',(100.432301505017,21.,0.999999925496429));
#1613=CARTESIAN_POINT('Origin',(100.432301505017,21.,-0.500000074503572));
#1614=CARTESIAN_POINT('',(83.4323012367964,21.,0.999999925496427));
#1615=CARTESIAN_POINT('',(41.7215013333657,21.,0.999999925496429));
#1616=CARTESIAN_POINT('',(81.9323012367964,21.,-0.500000074503573));
#1617=CARTESIAN_POINT('Origin',(83.4323012367964,21.,-0.500000074503573));
#1618=CARTESIAN_POINT('',(81.9323012367964,21.,-4.02368382823531));
#1619=CARTESIAN_POINT('',(81.9323012367964,21.,-17.783707959129));
#1620=CARTESIAN_POINT('',(36.4323720325784,21.,-4.02368382823531));
#1621=CARTESIAN_POINT('',(50.7215367312567,21.,-4.02368382823531));
#1622=CARTESIAN_POINT('',(34.9323720325784,21.,-5.52368382823531));
#1623=CARTESIAN_POINT('Origin',(36.4323720325784,21.,-5.52368382823531));
#1624=CARTESIAN_POINT('',(34.9323720325783,21.,-59.4236838282353));
#1625=CARTESIAN_POINT('',(34.9323720325784,21.,-14.7955498359949));
#1626=CARTESIAN_POINT('',(36.4323720325784,21.,-60.9236838282353));
#1627=CARTESIAN_POINT('Origin',(36.4323720325784,21.,-59.4236838282353));
#1628=CARTESIAN_POINT('',(84.5197128608785,21.,-60.9236838282353));
#1629=CARTESIAN_POINT('',(20.7215367312567,21.,-60.9236838282353));
#1630=CARTESIAN_POINT('',(85.7282505182948,21.,-60.3121863496761));
#1631=CARTESIAN_POINT('Origin',(84.5197128608785,21.,-59.4236838282353));
#1632=CARTESIAN_POINT('',(101.640909689995,21.,-38.6678495306358));
#1633=CARTESIAN_POINT('',(86.1197183897876,21.,-59.7797132807191));
#1634=CARTESIAN_POINT('',(101.932372032578,21.,-37.779347009195));
#1635=CARTESIAN_POINT('Origin',(100.432372032578,21.,-37.779347009195));
#1636=CARTESIAN_POINT('',(101.932372032578,21.,-44.7455498359949));
#1637=CARTESIAN_POINT('',(105.932372507553,21.,-62.4736839772469));
#1638=CARTESIAN_POINT('Origin',(105.932372507553,21.,-64.9236839772469));
#1639=CARTESIAN_POINT('',(-5.06762962145054,21.,-62.4736839772469));
#1640=CARTESIAN_POINT('Origin',(-5.06762962145054,21.,-64.9236839772469));
#1641=CARTESIAN_POINT('Origin',(-5.06762962145054,20.,4.97631949183654));
#1642=CARTESIAN_POINT('',(-5.06762962145054,20.,6.42631949183654));
#1643=CARTESIAN_POINT('Origin',(-5.06762962145054,20.,7.42631949183654));
#1644=CARTESIAN_POINT('',(-6.51762962145054,20.,4.97631949183654));
#1645=CARTESIAN_POINT('Origin',(-5.06762962145054,20.,4.97631949183654));
#1646=CARTESIAN_POINT('Origin',(-5.06762962145054,20.,4.97631949183654));
#1647=CARTESIAN_POINT('Origin',(-5.06762962145054,0.,4.97631949183654));
#1648=CARTESIAN_POINT('',(-6.51762962145054,18.,4.97631949183654));
#1649=CARTESIAN_POINT('Origin',(-5.06762962145054,18.,4.97631949183654));
#1650=CARTESIAN_POINT('',(-6.51762962145054,0.,4.97631949183654));
#1651=CARTESIAN_POINT('Origin',(-5.06762962145054,20.,-64.9236839772469));
#1652=CARTESIAN_POINT('',(-5.06762962145054,20.,-63.4736839772469));
#1653=CARTESIAN_POINT('Origin',(-5.06762962145054,20.,-62.4736839772469));
#1654=CARTESIAN_POINT('',(-3.61762962145054,20.,-64.9236839772469));
#1655=CARTESIAN_POINT('Origin',(-5.06762962145054,20.,-64.9236839772469));
#1656=CARTESIAN_POINT('Origin',(-5.06762962145054,20.,-64.9236839772469));
#1657=CARTESIAN_POINT('Origin',(-5.06762962145054,21.,-64.9236839772469));
#1658=CARTESIAN_POINT('',(-3.61762962145054,18.,-64.9236839772469));
#1659=CARTESIAN_POINT('',(-3.61762962145054,21.,-64.9236839772469));
#1660=CARTESIAN_POINT('Origin',(-5.06762962145054,18.,-64.9236839772469));
#1661=CARTESIAN_POINT('Origin',(105.932372507553,20.,4.97631949183655));
#1662=CARTESIAN_POINT('',(105.932372507553,20.,6.80541361281174));
#1663=CARTESIAN_POINT('Origin',(105.932372507553,20.,7.80541361281174));
#1664=CARTESIAN_POINT('',(107.761466628528,20.,4.97631949183655));
#1665=CARTESIAN_POINT('Origin',(105.932372507553,20.,4.97631949183655));
#1666=CARTESIAN_POINT('Origin',(105.932372507553,20.,4.97631949183655));
#1667=CARTESIAN_POINT('Origin',(105.932372507553,21.,4.97631949183655));
#1668=CARTESIAN_POINT('',(107.761466628528,18.,4.97631949183655));
#1669=CARTESIAN_POINT('',(107.761466628528,21.,4.97631949183655));
#1670=CARTESIAN_POINT('Origin',(105.932372507553,18.,4.97631949183655));
#1671=CARTESIAN_POINT('Origin',(105.932372507553,20.,-64.9236839772469));
#1672=CARTESIAN_POINT('',(105.932372507553,20.,-63.4736839772469));
#1673=CARTESIAN_POINT('Origin',(105.932372507553,20.,-62.4736839772469));
#1674=CARTESIAN_POINT('',(107.382372507553,20.,-64.9236839772469));
#1675=CARTESIAN_POINT('Origin',(105.932372507553,20.,-64.9236839772469));
#1676=CARTESIAN_POINT('Origin',(105.932372507553,20.,-64.9236839772469));
#1677=CARTESIAN_POINT('Origin',(105.932372507553,21.,-64.9236839772469));
#1678=CARTESIAN_POINT('',(107.382372507553,18.,-64.9236839772469));
#1679=CARTESIAN_POINT('',(107.382372507553,21.,-64.9236839772469));
#1680=CARTESIAN_POINT('Origin',(105.932372507553,18.,-64.9236839772469));
#1681=CARTESIAN_POINT('Origin',(20.7215367312567,20.,-60.9236838282353));
#1682=CARTESIAN_POINT('',(89.7517271419567,20.,-59.9236838282353));
#1683=CARTESIAN_POINT('Origin',(89.7517271419567,20.,-60.9236838282353));
#1684=CARTESIAN_POINT('',(100.432372032578,20.,-59.9236838282353));
#1685=CARTESIAN_POINT('',(20.7215367312567,20.,-59.9236838282353));
#1686=CARTESIAN_POINT('Origin',(100.432372032578,20.,-60.9236838282353));
#1687=CARTESIAN_POINT('Origin',(100.432372032578,20.,-59.4236838282353));
#1688=CARTESIAN_POINT('',(100.932372032578,20.,-59.4236838282353));
#1689=CARTESIAN_POINT('Origin',(101.932372032578,20.,-59.4236838282353));
#1690=CARTESIAN_POINT('Origin',(100.432372032578,20.,-59.4236838282353));
#1691=CARTESIAN_POINT('Origin',(101.932372032578,20.,-44.7455498359949));
#1692=CARTESIAN_POINT('',(100.932372032578,20.,-44.8959123877262));
#1693=CARTESIAN_POINT('Origin',(101.932372032578,20.,-44.8959123877262));
#1694=CARTESIAN_POINT('',(100.932372032578,20.,-44.7455498359949));
#1695=CARTESIAN_POINT('Origin',(100.432372032578,20.,-44.8959123877262));
#1696=CARTESIAN_POINT('',(100.029526146773,20.,-44.5997448805792));
#1697=CARTESIAN_POINT('Origin',(99.223834375162,20.,-44.0074098662854));
#1698=CARTESIAN_POINT('Origin',(100.432372032578,20.,-44.8959123877262));
#1699=CARTESIAN_POINT('Origin',(79.7192299915011,20.,-70.5374965253959));
#1700=CARTESIAN_POINT('',(89.3488812561512,20.,-59.1275163210884));
#1701=CARTESIAN_POINT('Origin',(88.5431894845403,20.,-58.5351813067945));
#1702=CARTESIAN_POINT('',(80.524921763112,20.,-71.1298315396897));
#1703=CARTESIAN_POINT('Origin',(89.7517271419567,20.,-59.4236838282353));
#1704=CARTESIAN_POINT('Origin',(89.7517271419567,20.,-59.4236838282353));
#1705=CARTESIAN_POINT('Origin',(100.932372032578,21.,-59.9236838282353));
#1706=CARTESIAN_POINT('',(100.932372032578,18.,-59.4236838282353));
#1707=CARTESIAN_POINT('',(100.932372032578,21.,-59.4236838282353));
#1708=CARTESIAN_POINT('',(100.932372032578,18.,-44.8959123877262));
#1709=CARTESIAN_POINT('',(100.932372032578,18.,-44.9486830354702));
#1710=CARTESIAN_POINT('',(100.932372032578,21.,-44.8959123877262));
#1711=CARTESIAN_POINT('Origin',(100.432372032578,21.,-59.4236838282353));
#1712=CARTESIAN_POINT('',(100.432372032578,18.,-59.9236838282353));
#1713=CARTESIAN_POINT('',(100.432372032578,21.,-59.9236838282353));
#1714=CARTESIAN_POINT('Origin',(100.432372032578,18.,-59.4236838282353));
#1715=CARTESIAN_POINT('Origin',(40.9323720325784,21.,-59.9236838282353));
#1716=CARTESIAN_POINT('',(89.7517271419567,18.,-59.9236838282353));
#1717=CARTESIAN_POINT('',(89.7517271419567,21.,-59.9236838282353));
#1718=CARTESIAN_POINT('',(45.6823717378148,18.,-59.9236838282353));
#1719=CARTESIAN_POINT('Ctrl Pts',(82.4323012367964,20.,-5.02368382823531));
#1720=CARTESIAN_POINT('Ctrl Pts',(82.4323012367964,20.2243994752564,-5.02368382823531));
#1721=CARTESIAN_POINT('Ctrl Pts',(82.3408811637876,20.7488374197485,-4.84084368221765));
#1722=CARTESIAN_POINT('Ctrl Pts',(82.0819008869673,21.,-4.3228831285772));
#1723=CARTESIAN_POINT('Ctrl Pts',(81.9323012367964,21.,-4.02368382823531));
#1724=CARTESIAN_POINT('Ctrl Pts',(82.563200930696,20.,-5.02368382823531));
#1725=CARTESIAN_POINT('Ctrl Pts',(82.563200930696,20.2540634657718,-5.02368382823531));
#1726=CARTESIAN_POINT('Ctrl Pts',(82.4129172739916,20.8084317993736,-4.78286248248529));
#1727=CARTESIAN_POINT('Ctrl Pts',(82.1068341619958,21.,-4.29794985354871));
#1728=CARTESIAN_POINT('Ctrl Pts',(81.9323012367964,21.,-4.02368382823531));
#1729=CARTESIAN_POINT('Ctrl Pts',(82.8238211725852,20.,-4.91520376402411));
#1730=CARTESIAN_POINT('Ctrl Pts',(82.8238211725852,20.2877354781588,-4.91520376402411));
#1731=CARTESIAN_POINT('Ctrl Pts',(82.5580810130278,20.8707040907527,-4.64946360446679));
#1732=CARTESIAN_POINT('Ctrl Pts',(82.1567007120528,21.,-4.24808330349172));
#1733=CARTESIAN_POINT('Ctrl Pts',(81.9323012367963,21.,-4.02368382823531));
#1734=CARTESIAN_POINT('Ctrl Pts',(82.9323012367964,20.,-4.65458352213489));
#1735=CARTESIAN_POINT('Ctrl Pts',(82.9323012367964,20.2540634657718,-4.65458352213489));
#1736=CARTESIAN_POINT('Ctrl Pts',(82.6914798910464,20.8084317993736,-4.5042998654305));
#1737=CARTESIAN_POINT('Ctrl Pts',(82.2065672621098,21.,-4.19821675343474));
#1738=CARTESIAN_POINT('Ctrl Pts',(81.9323012367964,21.,-4.02368382823531));
#1739=CARTESIAN_POINT('Ctrl Pts',(82.9323012367964,20.,-4.52368382823532));
#1740=CARTESIAN_POINT('Ctrl Pts',(82.9323012367964,20.2243994752564,-4.52368382823532));
#1741=CARTESIAN_POINT('Ctrl Pts',(82.7494610907787,20.7488374197485,-4.43226375522648));
#1742=CARTESIAN_POINT('Ctrl Pts',(82.2315005371383,21.,-4.17328347840625));
#1743=CARTESIAN_POINT('Ctrl Pts',(81.9323012367964,21.,-4.02368382823531));
#1744=CARTESIAN_POINT('',(82.4323012367964,20.,-5.02368382823531));
#1745=CARTESIAN_POINT('Origin',(81.9323012367964,20.,-4.02368382823531));
#1746=CARTESIAN_POINT('',(82.9323012367964,20.,-4.52368382823532));
#1747=CARTESIAN_POINT('Origin',(81.9323012367964,20.,-4.02368382823531));
#1748=CARTESIAN_POINT('Origin',(82.4323012367964,20.,-4.52368382823532));
#1749=CARTESIAN_POINT('Origin',(81.9323012367964,20.,-17.783707959129));
#1750=CARTESIAN_POINT('',(82.9323012367964,20.,-0.500000074503573));
#1751=CARTESIAN_POINT('Origin',(81.9323012367964,20.,-0.500000074503573));
#1752=CARTESIAN_POINT('',(82.9323012367964,20.,-17.783707959129));
#1753=CARTESIAN_POINT('Origin',(83.4323012367964,20.,-0.500000074503573));
#1754=CARTESIAN_POINT('',(83.4323012367964,20.,-7.45035722005127E-8));
#1755=CARTESIAN_POINT('Origin',(83.4323012367964,20.,0.999999925496427));
#1756=CARTESIAN_POINT('Origin',(83.4323012367964,20.,-0.500000074503573));
#1757=CARTESIAN_POINT('Origin',(41.7215013333657,20.,0.999999925496429));
#1758=CARTESIAN_POINT('',(100.432301505017,20.,-7.45035722005127E-8));
#1759=CARTESIAN_POINT('Origin',(100.432301505017,20.,0.999999925496429));
#1760=CARTESIAN_POINT('',(41.7215013333657,20.,-7.45035722005127E-8));
#1761=CARTESIAN_POINT('Origin',(100.432301505017,20.,-0.500000074503572));
#1762=CARTESIAN_POINT('',(100.932301505017,20.,-0.500000074503572));
#1763=CARTESIAN_POINT('Origin',(101.932301505017,20.,-0.500000074503572));
#1764=CARTESIAN_POINT('Origin',(100.432301505017,20.,-0.500000074503572));
#1765=CARTESIAN_POINT('Origin',(101.932301505017,20.,-14.783707959129));
#1766=CARTESIAN_POINT('',(100.932372032578,20.,-5.02368382823531));
#1767=CARTESIAN_POINT('',(100.932301505017,20.,-14.783707959129));
#1768=CARTESIAN_POINT('Origin',(101.932372032578,20.,-4.02368382823531));
#1769=CARTESIAN_POINT('Origin',(101.932372032578,20.,-44.7455498359949));
#1770=CARTESIAN_POINT('',(100.932372032578,20.,-37.779347009195));
#1771=CARTESIAN_POINT('Origin',(101.932372032578,20.,-37.779347009195));
#1772=CARTESIAN_POINT('',(100.932372032578,20.,-44.7455498359949));
#1773=CARTESIAN_POINT('Origin',(100.432372032578,20.,-37.779347009195));
#1774=CARTESIAN_POINT('',(100.835217918384,20.,-38.0755145163419));
#1775=CARTESIAN_POINT('Origin',(101.640909689995,20.,-38.6678495306358));
#1776=CARTESIAN_POINT('Origin',(100.432372032578,20.,-37.779347009195));
#1777=CARTESIAN_POINT('Origin',(86.1197183897876,20.,-59.7797132807191));
#1778=CARTESIAN_POINT('',(84.9225587466839,20.,-59.7198513353822));
#1779=CARTESIAN_POINT('Origin',(85.7282505182948,20.,-60.3121863496761));
#1780=CARTESIAN_POINT('',(85.3140266181767,20.,-59.1873782664252));
#1781=CARTESIAN_POINT('Origin',(84.5197128608785,20.,-59.4236838282353));
#1782=CARTESIAN_POINT('',(84.5197128608785,20.,-59.9236838282353));
#1783=CARTESIAN_POINT('Origin',(84.5197128608785,20.,-60.9236838282353));
#1784=CARTESIAN_POINT('Origin',(84.5197128608785,20.,-59.4236838282353));
#1785=CARTESIAN_POINT('Origin',(20.7215367312567,20.,-60.9236838282353));
#1786=CARTESIAN_POINT('',(36.4323720325784,20.,-59.9236838282353));
#1787=CARTESIAN_POINT('Origin',(36.4323720325784,20.,-60.9236838282353));
#1788=CARTESIAN_POINT('',(20.7215367312567,20.,-59.9236838282353));
#1789=CARTESIAN_POINT('Origin',(36.4323720325784,20.,-59.4236838282353));
#1790=CARTESIAN_POINT('',(35.9323720325784,20.,-59.4236838282353));
#1791=CARTESIAN_POINT('Origin',(34.9323720325783,20.,-59.4236838282353));
#1792=CARTESIAN_POINT('Origin',(36.4323720325784,20.,-59.4236838282353));
#1793=CARTESIAN_POINT('Origin',(34.9323720325784,20.,-14.7955498359949));
#1794=CARTESIAN_POINT('',(35.9323720325784,20.,-5.52368382823531));
#1795=CARTESIAN_POINT('Origin',(34.9323720325784,20.,-5.52368382823531));
#1796=CARTESIAN_POINT('',(35.9323720325784,20.,-14.7955498359949));
#1797=CARTESIAN_POINT('Origin',(36.4323720325784,20.,-5.52368382823531));
#1798=CARTESIAN_POINT('',(36.4323720325784,20.,-5.02368382823531));
#1799=CARTESIAN_POINT('Origin',(36.4323720325784,20.,-4.02368382823531));
#1800=CARTESIAN_POINT('Origin',(36.4323720325784,20.,-5.52368382823531));
#1801=CARTESIAN_POINT('Origin',(50.7215367312567,20.,-4.02368382823531));
#1802=CARTESIAN_POINT('',(50.7215367312567,20.,-5.02368382823531));
#1803=CARTESIAN_POINT('Origin',(100.932372032578,21.,-5.02368382823531));
#1804=CARTESIAN_POINT('',(82.4323012367964,18.,-5.02368382823531));
#1805=CARTESIAN_POINT('',(82.4323012367964,18.5,-5.02368382823531));
#1806=CARTESIAN_POINT('',(36.4323720325784,18.,-5.02368382823531));
#1807=CARTESIAN_POINT('',(45.6823717378148,18.,-5.02368382823531));
#1808=CARTESIAN_POINT('',(36.4323720325784,21.,-5.02368382823531));
#1809=CARTESIAN_POINT('Origin',(82.4323012367964,18.5,-4.52368382823531));
#1810=CARTESIAN_POINT('',(82.9323012367964,18.,-4.52368382823531));
#1811=CARTESIAN_POINT('',(82.9323012367964,18.5,-4.52368382823531));
#1812=CARTESIAN_POINT('Origin',(82.4323012367964,18.,-4.52368382823531));
#1813=CARTESIAN_POINT('Origin',(82.9323012367964,16.,-6.00000007450357));
#1814=CARTESIAN_POINT('',(82.9323012367964,18.,-0.500000074503573));
#1815=CARTESIAN_POINT('',(82.9323012367964,16.,-0.500000074503573));
#1816=CARTESIAN_POINT('',(82.9323012367964,18.,-17.9868411586044));
#1817=CARTESIAN_POINT('Origin',(83.4323012367964,16.,-0.500000074503573));
#1818=CARTESIAN_POINT('',(83.4323012367964,18.,-7.45035722005127E-8));
#1819=CARTESIAN_POINT('',(83.4323012367964,16.,-7.45035722005127E-8));
#1820=CARTESIAN_POINT('Origin',(83.4323012367964,18.,-0.500000074503573));
#1821=CARTESIAN_POINT('Origin',(82.9323012367964,16.,-7.45035722005127E-8));
#1822=CARTESIAN_POINT('',(100.432301505017,18.,-7.45035722005127E-8));
#1823=CARTESIAN_POINT('',(100.432301505017,16.,-7.45035722005127E-8));
#1824=CARTESIAN_POINT('',(66.6823363399238,18.,-7.45035722005127E-8));
#1825=CARTESIAN_POINT('Origin',(100.432301505017,16.,-0.500000074503572));
#1826=CARTESIAN_POINT('',(100.932301505017,18.,-0.500000074503573));
#1827=CARTESIAN_POINT('',(100.932301505017,16.,-0.500000074503572));
#1828=CARTESIAN_POINT('Origin',(100.432301505017,18.,-0.500000074503572));
#1829=CARTESIAN_POINT('Origin',(100.932301505017,16.,-7.45035722005127E-8));
#1830=CARTESIAN_POINT('',(100.932301505017,18.,-5.02368382823531));
#1831=CARTESIAN_POINT('',(100.932301505017,18.5,-5.02368382823531));
#1832=CARTESIAN_POINT('',(100.932301505017,18.,-14.9868411586044));
#1833=CARTESIAN_POINT('Origin',(100.432372032578,21.,-44.8959123877262));
#1834=CARTESIAN_POINT('',(100.029526146773,18.,-44.5997448805792));
#1835=CARTESIAN_POINT('Origin',(100.432372032578,18.,-44.8959123877262));
#1836=CARTESIAN_POINT('',(100.029526146773,21.,-44.5997448805792));
#1837=CARTESIAN_POINT('Origin',(88.7635483678889,21.,-59.9236838282353));
#1838=CARTESIAN_POINT('',(89.3488812561512,18.,-59.1275163210884));
#1839=CARTESIAN_POINT('',(100.932372032578,18.,-43.3716974350076));
#1840=CARTESIAN_POINT('',(89.3488812561512,21.,-59.1275163210884));
#1841=CARTESIAN_POINT('Origin',(89.7517271419567,21.,-59.4236838282353));
#1842=CARTESIAN_POINT('Origin',(89.7517271419567,18.,-59.4236838282353));
#1843=CARTESIAN_POINT('Origin',(84.5197128608785,21.,-59.4236838282353));
#1844=CARTESIAN_POINT('',(84.5197128608785,18.,-59.9236838282353));
#1845=CARTESIAN_POINT('',(84.5197128608785,21.,-59.9236838282353));
#1846=CARTESIAN_POINT('',(84.9225587466839,18.,-59.7198513353822));
#1847=CARTESIAN_POINT('Origin',(84.5197128608785,18.,-59.4236838282353));
#1848=CARTESIAN_POINT('',(84.9225587466839,21.,-59.7198513353822));
#1849=CARTESIAN_POINT('Origin',(100.932372032578,21.,-37.9433658698905));
#1850=CARTESIAN_POINT('',(100.835217918384,18.,-38.0755145163419));
#1851=CARTESIAN_POINT('',(100.932372032578,18.,-37.9433658698905));
#1852=CARTESIAN_POINT('',(100.835217918384,21.,-38.0755145163419));
#1853=CARTESIAN_POINT('Origin',(36.4323720325784,21.,-59.4236838282353));
#1854=CARTESIAN_POINT('',(35.9323720325784,18.,-59.4236838282353));
#1855=CARTESIAN_POINT('',(35.9323720325784,21.,-59.4236838282353));
#1856=CARTESIAN_POINT('',(36.4323720325784,18.,-59.9236838282353));
#1857=CARTESIAN_POINT('Origin',(36.4323720325784,18.,-59.4236838282353));
#1858=CARTESIAN_POINT('',(36.4323720325784,21.,-59.9236838282353));
#1859=CARTESIAN_POINT('Origin',(35.9323720325784,21.,-0.023683828235308));
#1860=CARTESIAN_POINT('',(35.9323720325784,18.,-5.52368382823531));
#1861=CARTESIAN_POINT('',(35.9323720325784,21.,-5.52368382823531));
#1862=CARTESIAN_POINT('',(35.9323720325784,18.,-14.9986830354702));
#1863=CARTESIAN_POINT('Origin',(36.4323720325784,21.,-5.52368382823531));
#1864=CARTESIAN_POINT('Origin',(36.4323720325784,18.,-5.52368382823531));
#1865=CARTESIAN_POINT('Origin',(50.4323714430512,18.,-29.9736822427052));
#1866=CARTESIAN_POINT('',(110.932372507553,18.,9.97631949183655));
#1867=CARTESIAN_POINT('',(110.932372507553,18.,9.97631949183655));
#1868=CARTESIAN_POINT('',(110.932372507553,18.,-69.9236839772469));
#1869=CARTESIAN_POINT('',(100.932372032578,18.,-37.779347009195));
#1870=CARTESIAN_POINT('',(100.932372032578,18.,-44.9486830354702));
#1871=CARTESIAN_POINT('Origin',(100.432372032578,18.,-37.779347009195));
#1872=CARTESIAN_POINT('',(45.6823717378148,18.,-59.9236838282353));
#1873=CARTESIAN_POINT('Origin',(100.432372032578,21.,-37.779347009195));
#1874=CARTESIAN_POINT('',(100.932372032578,21.,-37.779347009195));
#1875=CARTESIAN_POINT('Origin',(40.9323720325784,21.,-59.9236838282353));
#1876=CARTESIAN_POINT('Origin',(100.932372032578,21.,-59.9236838282353));
#1877=CARTESIAN_POINT('Origin',(110.932372507553,18.,9.97631949183655));
#1878=CARTESIAN_POINT('',(110.932372507553,18.,9.97631949183655));
#1879=CARTESIAN_POINT('Origin',(-10.0676296214505,18.,9.97631949183653));
#1880=CARTESIAN_POINT('',(1.37352357098452,9.84394305451353,-2.62570617941933));
#1881=CARTESIAN_POINT('',(32.8396283113609,4.62766828062815,153.762582177903));
#1882=UNCERTAINTY_MEASURE_WITH_UNIT(LENGTH_MEASURE(0.01),#1890,
'DISTANCE_ACCURACY_VALUE',
'Maximum model space distance between geometric entities at asserted c
onnectivities');
#1883=UNCERTAINTY_MEASURE_WITH_UNIT(LENGTH_MEASURE(0.01),#1890,
'DISTANCE_ACCURACY_VALUE',
'Maximum model space distance between geometric entities at asserted c
onnectivities');
#1884=UNCERTAINTY_MEASURE_WITH_UNIT(LENGTH_MEASURE(0.01),#1890,
'DISTANCE_ACCURACY_VALUE',
'Maximum model space distance between geometric entities at asserted c
onnectivities');
#1885=UNCERTAINTY_MEASURE_WITH_UNIT(LENGTH_MEASURE(0.01),#1890,
'DISTANCE_ACCURACY_VALUE',
'Maximum model space distance between geometric entities at asserted c
onnectivities');
#1886=(
GEOMETRIC_REPRESENTATION_CONTEXT(3)
GLOBAL_UNCERTAINTY_ASSIGNED_CONTEXT((#1882))
GLOBAL_UNIT_ASSIGNED_CONTEXT((#1890,#1892,#1893))
REPRESENTATION_CONTEXT('','3D')
);
#1887=(
GEOMETRIC_REPRESENTATION_CONTEXT(3)
GLOBAL_UNCERTAINTY_ASSIGNED_CONTEXT((#1883))
GLOBAL_UNIT_ASSIGNED_CONTEXT((#1890,#1892,#1893))
REPRESENTATION_CONTEXT('','3D')
);
#1888=(
GEOMETRIC_REPRESENTATION_CONTEXT(3)
GLOBAL_UNCERTAINTY_ASSIGNED_CONTEXT((#1884))
GLOBAL_UNIT_ASSIGNED_CONTEXT((#1890,#1892,#1893))
REPRESENTATION_CONTEXT('','3D')
);
#1889=(
GEOMETRIC_REPRESENTATION_CONTEXT(3)
GLOBAL_UNCERTAINTY_ASSIGNED_CONTEXT((#1885))
GLOBAL_UNIT_ASSIGNED_CONTEXT((#1890,#1892,#1893))
REPRESENTATION_CONTEXT('','3D')
);
#1890=(
LENGTH_UNIT()
NAMED_UNIT(*)
SI_UNIT(.MILLI.,.METRE.)
);
#1891=(
LENGTH_UNIT()
NAMED_UNIT(*)
SI_UNIT($,.METRE.)
);
#1892=(
NAMED_UNIT(*)
PLANE_ANGLE_UNIT()
SI_UNIT($,.RADIAN.)
);
#1893=(
NAMED_UNIT(*)
SI_UNIT($,.STERADIAN.)
SOLID_ANGLE_UNIT()
);
#1894=SHAPE_DEFINITION_REPRESENTATION(#1897,#1902);
#1895=SHAPE_DEFINITION_REPRESENTATION(#1898,#1903);
#1896=SHAPE_DEFINITION_REPRESENTATION(#1899,#1904);
#1897=PRODUCT_DEFINITION_SHAPE('',$,#1906);
#1898=PRODUCT_DEFINITION_SHAPE('',$,#1907);
#1899=PRODUCT_DEFINITION_SHAPE('',$,#1908);
#1900=PRODUCT_DEFINITION_SHAPE($,$,#19);
#1901=PRODUCT_DEFINITION_SHAPE($,$,#20);
#1902=SHAPE_REPRESENTATION('',(#1067,#1203,#1204),#1886);
#1903=SHAPE_REPRESENTATION('',(#1068),#1887);
#1904=SHAPE_REPRESENTATION('',(#1069),#1888);
#1905=PRODUCT_DEFINITION_CONTEXT('part definition',#1916,'design');
#1906=PRODUCT_DEFINITION('2026-08-04-16-44-00-452','Case2.0',#1909,#1905);
#1907=PRODUCT_DEFINITION('2026-08-05-16-32-02-707','Komponente1',#1910,
#1905);
#1908=PRODUCT_DEFINITION('2026-08-05-16-32-52-017','Komponente2',#1911,
#1905);
#1909=PRODUCT_DEFINITION_FORMATION('',$,#1918);
#1910=PRODUCT_DEFINITION_FORMATION('',$,#1919);
#1911=PRODUCT_DEFINITION_FORMATION('',$,#1920);
#1912=PRODUCT_RELATED_PRODUCT_CATEGORY('Case2.0','Case2.0',(#1918));
#1913=PRODUCT_RELATED_PRODUCT_CATEGORY('Komponente1','Komponente1',(#1919));
#1914=PRODUCT_RELATED_PRODUCT_CATEGORY('Komponente2','Komponente2',(#1920));
#1915=APPLICATION_PROTOCOL_DEFINITION('international standard',
'automotive_design',2009,#1916);
#1916=APPLICATION_CONTEXT(
'Core Data for Automotive Mechanical Design Process');
#1917=PRODUCT_CONTEXT('part definition',#1916,'mechanical');
#1918=PRODUCT('2026-08-04-16-44-00-452','Case2.0',$,(#1917));
#1919=PRODUCT('2026-08-05-16-32-02-707','Komponente1',$,(#1917));
#1920=PRODUCT('2026-08-05-16-32-52-017','Komponente2',$,(#1917));
#1921=PRESENTATION_STYLE_ASSIGNMENT((#1922));
#1922=SURFACE_STYLE_USAGE(.BOTH.,#1923);
#1923=SURFACE_SIDE_STYLE('',(#1924));
#1924=SURFACE_STYLE_FILL_AREA(#1925);
#1925=FILL_AREA_STYLE('Stahl - satiniert',(#1926));
#1926=FILL_AREA_STYLE_COLOUR('Stahl - satiniert',#1927);
#1927=COLOUR_RGB('Stahl - satiniert',0.627450980392157,0.627450980392157,
0.627450980392157);
ENDSEC;
END-ISO-10303-21;
